<ttFont>
<head>
    <!-- Most of this table will be recalculated by the compiler -->
    <tableVersion value="1.0"/>
    <fontRevision value="1.0"/>
    <checkSumAdjustment value="0x6a9ccad8"/>
    <magicNumber value="0x5f0f3cf5"/>
    <flags value="00000000 00001011"/>
    <unitsPerEm value="1000"/>
    <created value="Thu Apr  4 21:23:59 2019"/>
    <modified value="Thu Apr  4 21:24:01 2019"/>
    <xMin value="-71"/>
    <yMin value="-286"/>
    <xMax value="1126"/>
    <yMax value="1006"/>
    <macStyle value="00000000 00000000"/>
    <lowestRecPPEM value="6"/>
    <fontDirectionHint value="2"/>
    <indexToLocFormat value="0"/>
    <glyphDataFormat value="0"/>
  </head>
    <TTGlyph name=".notdef" xMin="60" yMin="-100" xMax="454" yMax="750">
      <contour>
        <pt x="60" y="-100" on="1"/>
        <pt x="60" y="750" on="1"/>
        <pt x="454" y="750" on="1"/>
        <pt x="454" y="-100" on="1"/>
      </contour>
    </TTGlyph>
    <TTGlyph name="A" xMin="-4" yMin="0" xMax="736" yMax="700">
      <contour>
        <pt x="-4" y="0" on="1"/>
        <pt x="284" y="700" on="1"/>
        <pt x="452" y="700" on="1"/>
        <pt x="736" y="0" on="1"/>
        <pt x="579" y="0" on="1"/>
        <pt x="508" y="184" on="1"/>
        <pt x="219" y="184" on="1"/>
        <pt x="147" y="0" on="1"/>
      </contour>
      <contour>
        <pt x="264" y="300" on="1"/>
        <pt x="464" y="300" on="1"/>
        <pt x="365" y="558" on="1"/>
      </contour>
    </TTGlyph>
    <TTGlyph name="AE" xMin="-4" yMin="0" xMax="942" yMax="700">
      <contour>
        <pt x="-4" y="0" on="1"/>
        <pt x="284" y="700" on="1"/>
        <pt x="942" y="700" on="1"/>
        <pt x="942" y="574" on="1"/>
        <pt x="505" y="574" on="1"/>
        <pt x="567" y="414" on="1"/>
        <pt x="814" y="414" on="1"/>
        <pt x="814" y="292" on="1"/>
        <pt x="615" y="292" on="1"/>
        <pt x="679" y="126" on="1"/>
        <pt x="942" y="126" on="1"/>
        <pt x="942" y="0" on="1"/>
        <pt x="579" y="0" on="1"/>
        <pt x="508" y="184" on="1"/>
        <pt x="219" y="184" on="1"/>
        <pt x="147" y="0" on="1"/>
      </contour>
      <contour>
        <pt x="264" y="300" on="1"/>
        <pt x="464" y="300" on="1"/>
        <pt x="365" y="558" on="1"/>
      </contour>
    </TTGlyph>
    <TTGlyph name="Aacute" xMin="-4" yMin="0" xMax="736" yMax="917">
      <component glyphName="A" x="0" y="0" flags="0x204"/>
      <component glyphName="acute" x="143" y="179" flags="0x4"/>
    </TTGlyph>
    <TTGlyph name="Abreve" xMin="-4" yMin="0" xMax="736" yMax="936">
      <component glyphName="A" x="0" y="0" flags="0x204"/>
      <component glyphName="breve" x="108" y="179" flags="0x4"/>
    </TTGlyph>
    <TTGlyph name="Acircumflex" xMin="-4" yMin="0" xMax="736" yMax="920">
      <component glyphName="A" x="0" y="0" flags="0x204"/>
      <component glyphName="circumflex" x="108" y="179" flags="0x4"/>
    </TTGlyph>
    <TTGlyph name="Adieresis" xMin="-4" yMin="0" xMax="736" yMax="928">
      <component glyphName="A" x="0" y="0" flags="0x204"/>
      <component glyphName="dieresis" x="72" y="179" flags="0x4"/>
    </TTGlyph>
    <TTGlyph name="Agrave" xMin="-4" yMin="0" xMax="736" yMax="917">
      <component glyphName="A" x="0" y="0" flags="0x204"/>
      <component glyphName="grave" x="66" y="179" flags="0x4"/>
    </TTGlyph>
    <TTGlyph name="Amacron" xMin="-4" yMin="0" xMax="736" yMax="892">
      <component glyphName="A" x="0" y="0" flags="0x204"/>
      <component glyphName="macron" x="108" y="179" flags="0x4"/>
    </TTGlyph>
    <TTGlyph name="Aogonek" xMin="-4" yMin="-221" xMax="755" yMax="700">
      <contour>
        <pt x="-4" y="0" on="1"/>
        <pt x="284" y="700" on="1"/>
        <pt x="452" y="700" on="1"/>
        <pt x="736" y="0" on="1"/>
        <pt x="690" y="-28" on="0"/>
        <pt x="646" y="-79" on="0"/>
        <pt x="646" y="-105" on="1"/>
        <pt x="646" y="-126" on="0"/>
        <pt x="673" y="-149" on="0"/>
        <pt x="696" y="-149" on="1"/>
        <pt x="706" y="-149" on="0"/>
        <pt x="728" y="-143" on="0"/>
        <pt x="736" y="-137" on="1"/>
        <pt x="755" y="-199" on="1"/>
        <pt x="738" y="-209" on="0"/>
        <pt x="694" y="-221" on="0"/>
        <pt x="672" y="-221" on="1"/>
        <pt x="624" y="-221" on="0"/>
        <pt x="566" y="-170" on="0"/>
        <pt x="566" y="-129" on="1"/>
        <pt x="566" y="-93" on="0"/>
        <pt x="610" y="-31" on="0"/>
        <pt x="658" y="0" on="1"/>
        <pt x="579" y="0" on="1"/>
        <pt x="508" y="184" on="1"/>
        <pt x="219" y="184" on="1"/>
        <pt x="147" y="0" on="1"/>
      </contour>
      <contour>
        <pt x="264" y="300" on="1"/>
        <pt x="464" y="300" on="1"/>
        <pt x="365" y="558" on="1"/>
      </contour>
    </TTGlyph>
    <TTGlyph name="Aring" xMin="-4" yMin="0" xMax="736" yMax="1006">
      <component glyphName="A" x="0" y="0" flags="0x204"/>
      <component glyphName="ring" x="108" y="179" flags="0x4"/>
    </TTGlyph>
    <TTGlyph name="Atilde" xMin="-4" yMin="0" xMax="736" yMax="919">
      <component glyphName="A" x="0" y="0" flags="0x204"/>
      <component glyphName="tilde" x="109" y="179" flags="0x4"/>
    </TTGlyph>
    <TTGlyph name="B" xMin="63" yMin="0" xMax="653" yMax="700">
      <contour>
        <pt x="63" y="700" on="1"/>
        <pt x="392" y="700" on="1"/>
        <pt x="497" y="700" on="0"/>
        <pt x="629" y="593" on="0"/>
        <pt x="629" y="508" on="1"/>
        <pt x="629" y="462" on="0"/>
        <pt x="583" y="386" on="0"/>
        <pt x="543" y="361" on="1"/>
        <pt x="593" y="337" on="0"/>
        <pt x="653" y="254" on="0"/>
        <pt x="653" y="203" on="1"/>
        <pt x="653" y="112" on="0"/>
        <pt x="518" y="0" on="0"/>
        <pt x="408" y="0" on="1"/>
        <pt x="63" y="0" on="1"/>
      </contour>
      <contour>
        <pt x="383" y="580" on="1"/>
        <pt x="208" y="580" on="1"/>
        <pt x="208" y="414" on="1"/>
        <pt x="383" y="414" on="1"/>
        <pt x="429" y="414" on="0"/>
        <pt x="485" y="459" on="0"/>
        <pt x="485" y="497" on="1"/>
        <pt x="485" y="535" on="0"/>
        <pt x="429" y="580" on="0"/>
      </contour>
      <contour>
        <pt x="397" y="120" on="1"/>
        <pt x="447" y="120" on="0"/>
        <pt x="507" y="169" on="0"/>
        <pt x="507" y="211" on="1"/>
        <pt x="507" y="251" on="0"/>
        <pt x="447" y="301" on="0"/>
        <pt x="397" y="301" on="1"/>
        <pt x="208" y="301" on="1"/>
        <pt x="208" y="120" on="1"/>
      </contour>
    </TTGlyph>
    <TTGlyph name="C" xMin="36" yMin="-10" xMax="700" yMax="711">
      <contour>
        <pt x="413" y="124" on="1"/>
        <pt x="468" y="124" on="0"/>
        <pt x="564" y="170" on="0"/>
        <pt x="601" y="213" on="1"/>
        <pt x="696" y="119" on="1"/>
        <pt x="646" y="60" on="0"/>
        <pt x="491" y="-10" on="0"/>
        <pt x="409" y="-10" on="1"/>
        <pt x="330" y="-10" on="0"/>
        <pt x="193" y="46" on="0"/>
        <pt x="93" y="142" on="0"/>
        <pt x="36" y="274" on="0"/>
        <pt x="36" y="350" on="1"/>
        <pt x="36" y="426" on="0"/>
        <pt x="94" y="559" on="0"/>
        <pt x="194" y="655" on="0"/>
        <pt x="331" y="711" on="0"/>
        <pt x="409" y="711" on="1"/>
        <pt x="493" y="711" on="0"/>
        <pt x="651" y="640" on="0"/>
        <pt x="700" y="580" on="1"/>
        <pt x="602" y="483" on="1"/>
        <pt x="565" y="529" on="0"/>
        <pt x="465" y="578" on="0"/>
        <pt x="409" y="578" on="1"/>
        <pt x="362" y="578" on="0"/>
        <pt x="279" y="543" on="0"/>
        <pt x="219" y="482" on="0"/>
        <pt x="185" y="399" on="0"/>
        <pt x="185" y="350" on="1"/>
        <pt x="185" y="302" on="0"/>
        <pt x="220" y="219" on="0"/>
        <pt x="281" y="159" on="0"/>
        <pt x="364" y="124" on="0"/>
      </contour>
    </TTGlyph>
    <TTGlyph name="Cacute" xMin="36" yMin="-10" xMax="700" yMax="917">
      <component glyphName="C" x="0" y="0" flags="0x204"/>
      <component glyphName="acute" x="183" y="179" flags="0x4"/>
    </TTGlyph>
    <TTGlyph name="Ccaron" xMin="36" yMin="-10" xMax="700" yMax="920">
      <component glyphName="C" x="0" y="0" flags="0x204"/>
      <component glyphName="caron" x="147" y="179" flags="0x4"/>
    </TTGlyph>
    <TTGlyph name="Ccedilla" xMin="36" yMin="-236" xMax="700" yMax="711">
      <contour>
        <pt x="413" y="124" on="1"/>
        <pt x="468" y="124" on="0"/>
        <pt x="564" y="170" on="0"/>
        <pt x="601" y="213" on="1"/>
        <pt x="696" y="119" on="1"/>
        <pt x="650" y="65" on="0"/>
        <pt x="513" y="-3" on="0"/>
        <pt x="438" y="-9" on="1"/>
        <pt x="427" y="-46" on="1"/>
        <pt x="470" y="-50" on="0"/>
        <pt x="522" y="-98" on="0"/>
        <pt x="522" y="-135" on="1"/>
        <pt x="522" y="-178" on="0"/>
        <pt x="447" y="-236" on="0"/>
        <pt x="390" y="-236" on="1"/>
        <pt x="353" y="-236" on="0"/>
        <pt x="290" y="-213" on="0"/>
        <pt x="265" y="-191" on="1"/>
        <pt x="310" y="-143" on="1"/>
        <pt x="328" y="-157" on="0"/>
        <pt x="367" y="-172" on="0"/>
        <pt x="388" y="-172" on="1"/>
        <pt x="414" y="-172" on="0"/>
        <pt x="442" y="-152" on="0"/>
        <pt x="442" y="-134" on="1"/>
        <pt x="442" y="-117" on="0"/>
        <pt x="413" y="-97" on="0"/>
        <pt x="388" y="-97" on="1"/>
        <pt x="346" y="-97" on="1"/>
        <pt x="372" y="-8" on="1"/>
        <pt x="300" y="-2" on="0"/>
        <pt x="176" y="58" on="0"/>
        <pt x="87" y="153" on="0"/>
        <pt x="36" y="279" on="0"/>
        <pt x="36" y="350" on="1"/>
        <pt x="36" y="426" on="0"/>
        <pt x="94" y="559" on="0"/>
        <pt x="194" y="655" on="0"/>
        <pt x="331" y="711" on="0"/>
        <pt x="409" y="711" on="1"/>
        <pt x="493" y="711" on="0"/>
        <pt x="651" y="640" on="0"/>
        <pt x="700" y="580" on="1"/>
        <pt x="602" y="483" on="1"/>
        <pt x="565" y="529" on="0"/>
        <pt x="465" y="578" on="0"/>
        <pt x="409" y="578" on="1"/>
        <pt x="362" y="578" on="0"/>
        <pt x="279" y="543" on="0"/>
        <pt x="219" y="482" on="0"/>
        <pt x="185" y="399" on="0"/>
        <pt x="185" y="350" on="1"/>
        <pt x="185" y="302" on="0"/>
        <pt x="220" y="219" on="0"/>
        <pt x="281" y="159" on="0"/>
        <pt x="364" y="124" on="0"/>
      </contour>
    </TTGlyph>
    <TTGlyph name="Ccircumflex" xMin="36" yMin="-10" xMax="700" yMax="920">
      <component glyphName="C" x="0" y="0" flags="0x204"/>
      <component glyphName="circumflex" x="148" y="179" flags="0x4"/>
    </TTGlyph>
    <TTGlyph name="Cdotaccent" xMin="36" yMin="-10" xMax="700" yMax="926">
      <component glyphName="C" x="0" y="0" flags="0x204"/>
      <component glyphName="dotaccent" x="261" y="179" flags="0x4"/>
    </TTGlyph>
    <TTGlyph name="D" xMin="63" yMin="0" xMax="702" yMax="700">
      <contour>
        <pt x="63" y="0" on="1"/>
        <pt x="63" y="700" on="1"/>
        <pt x="332" y="700" on="1"/>
        <pt x="410" y="700" on="0"/>
        <pt x="546" y="646" on="0"/>
        <pt x="645" y="552" on="0"/>
        <pt x="702" y="422" on="0"/>
        <pt x="702" y="348" on="1"/>
        <pt x="702" y="275" on="0"/>
        <pt x="645" y="147" on="0"/>
        <pt x="546" y="54" on="0"/>
        <pt x="410" y="0" on="0"/>
        <pt x="332" y="0" on="1"/>
      </contour>
      <contour>
        <pt x="331" y="571" on="1"/>
        <pt x="208" y="571" on="1"/>
        <pt x="208" y="129" on="1"/>
        <pt x="331" y="129" on="1"/>
        <pt x="377" y="129" on="0"/>
        <pt x="458" y="163" on="0"/>
        <pt x="518" y="222" on="0"/>
        <pt x="552" y="302" on="0"/>
        <pt x="552" y="348" on="1"/>
        <pt x="552" y="395" on="0"/>
        <pt x="518" y="477" on="0"/>
        <pt x="458" y="537" on="0"/>
        <pt x="377" y="571" on="0"/>
      </contour>
    </TTGlyph>
    <TTGlyph name="Dcaron" xMin="63" yMin="0" xMax="702" yMax="920">
      <component glyphName="D" x="0" y="0" flags="0x204"/>
      <component glyphName="caron" x="109" y="179" flags="0x4"/>
    </TTGlyph>
    <TTGlyph name="Dcroat" xMin="17" yMin="0" xMax="734" yMax="700">
      <contour>
        <pt x="95" y="0" on="1"/>
        <pt x="95" y="293" on="1"/>
        <pt x="17" y="293" on="1"/>
        <pt x="17" y="408" on="1"/>
        <pt x="95" y="408" on="1"/>
        <pt x="95" y="700" on="1"/>
        <pt x="364" y="700" on="1"/>
        <pt x="442" y="700" on="0"/>
        <pt x="578" y="646" on="0"/>
        <pt x="677" y="552" on="0"/>
        <pt x="734" y="422" on="0"/>
        <pt x="734" y="348" on="1"/>
        <pt x="734" y="275" on="0"/>
        <pt x="677" y="147" on="0"/>
        <pt x="578" y="54" on="0"/>
        <pt x="442" y="0" on="0"/>
        <pt x="364" y="0" on="1"/>
      </contour>
      <contour>
        <pt x="363" y="571" on="1"/>
        <pt x="240" y="571" on="1"/>
        <pt x="240" y="408" on="1"/>
        <pt x="405" y="408" on="1"/>
        <pt x="405" y="293" on="1"/>
        <pt x="240" y="293" on="1"/>
        <pt x="240" y="129" on="1"/>
        <pt x="363" y="129" on="1"/>
        <pt x="409" y="129" on="0"/>
        <pt x="490" y="163" on="0"/>
        <pt x="550" y="222" on="0"/>
        <pt x="584" y="302" on="0"/>
        <pt x="584" y="348" on="1"/>
        <pt x="584" y="395" on="0"/>
        <pt x="550" y="477" on="0"/>
        <pt x="490" y="537" on="0"/>
        <pt x="409" y="571" on="0"/>
      </contour>
    </TTGlyph>
    <TTGlyph name="E" xMin="63" yMin="0" xMax="605" yMax="700">
      <contour>
        <pt x="63" y="0" on="1"/>
        <pt x="63" y="700" on="1"/>
        <pt x="601" y="700" on="1"/>
        <pt x="601" y="574" on="1"/>
        <pt x="208" y="574" on="1"/>
        <pt x="208" y="414" on="1"/>
        <pt x="467" y="414" on="1"/>
        <pt x="467" y="292" on="1"/>
        <pt x="208" y="292" on="1"/>
        <pt x="208" y="126" on="1"/>
        <pt x="605" y="126" on="1"/>
        <pt x="605" y="0" on="1"/>
      </contour>
    </TTGlyph>
    <TTGlyph name="Eacute" xMin="63" yMin="0" xMax="605" yMax="917">
      <component glyphName="E" x="0" y="0" flags="0x204"/>
      <component glyphName="acute" x="121" y="179" flags="0x4"/>
    </TTGlyph>
    <TTGlyph name="Ebreve" xMin="63" yMin="0" xMax="605" yMax="936">
      <component glyphName="E" x="0" y="0" flags="0x204"/>
      <component glyphName="breve" x="86" y="179" flags="0x4"/>
    </TTGlyph>
    <TTGlyph name="Ecaron" xMin="63" yMin="0" xMax="605" yMax="920">
      <component glyphName="E" x="0" y="0" flags="0x204"/>
      <component glyphName="caron" x="84" y="179" flags="0x4"/>
    </TTGlyph>
    <TTGlyph name="Ecircumflex" xMin="63" yMin="0" xMax="605" yMax="920">
      <component glyphName="E" x="0" y="0" flags="0x204"/>
      <component glyphName="circumflex" x="86" y="179" flags="0x4"/>
    </TTGlyph>
    <TTGlyph name="Edieresis" xMin="63" yMin="0" xMax="605" yMax="928">
      <component glyphName="E" x="0" y="0" flags="0x204"/>
      <component glyphName="dieresis" x="50" y="179" flags="0x4"/>
    </TTGlyph>
    <TTGlyph name="Edotaccent" xMin="63" yMin="0" xMax="605" yMax="926">
      <component glyphName="E" x="0" y="0" flags="0x204"/>
      <component glyphName="dotaccent" x="199" y="179" flags="0x4"/>
    </TTGlyph>
    <TTGlyph name="Egrave" xMin="63" yMin="0" xMax="605" yMax="917">
      <component glyphName="E" x="0" y="0" flags="0x204"/>
      <component glyphName="grave" x="44" y="179" flags="0x4"/>
    </TTGlyph>
    <TTGlyph name="Emacron" xMin="63" yMin="0" xMax="605" yMax="892">
      <component glyphName="E" x="0" y="0" flags="0x204"/>
      <component glyphName="macron" x="86" y="179" flags="0x4"/>
    </TTGlyph>
    <TTGlyph name="Eng" xMin="63" yMin="-215" xMax="685" yMax="700">
      <contour>
        <pt x="549" y="4" on="1"/>
        <pt x="200" y="462" on="1"/>
        <pt x="200" y="0" on="1"/>
        <pt x="63" y="0" on="1"/>
        <pt x="63" y="700" on="1"/>
        <pt x="196" y="700" on="1"/>
        <pt x="549" y="241" on="1"/>
        <pt x="549" y="700" on="1"/>
        <pt x="685" y="700" on="1"/>
        <pt x="685" y="-61" on="1"/>
        <pt x="685" y="-134" on="0"/>
        <pt x="597" y="-215" on="0"/>
        <pt x="517" y="-215" on="1"/>
        <pt x="499" y="-215" on="0"/>
        <pt x="457" y="-210" on="0"/>
        <pt x="445" y="-206" on="1"/>
        <pt x="445" y="-101" on="1"/>
        <pt x="456" y="-103" on="0"/>
        <pt x="476" y="-105" on="0"/>
        <pt x="490" y="-105" on="1"/>
        <pt x="520" y="-105" on="0"/>
        <pt x="549" y="-80" on="0"/>
        <pt x="549" y="-52" on="1"/>
      </contour>
    </TTGlyph>
    <TTGlyph name="Eogonek" xMin="63" yMin="-221" xMax="624" yMax="700">
      <contour>
        <pt x="63" y="0" on="1"/>
        <pt x="63" y="700" on="1"/>
        <pt x="601" y="700" on="1"/>
        <pt x="601" y="574" on="1"/>
        <pt x="208" y="574" on="1"/>
        <pt x="208" y="414" on="1"/>
        <pt x="467" y="414" on="1"/>
        <pt x="467" y="292" on="1"/>
        <pt x="208" y="292" on="1"/>
        <pt x="208" y="126" on="1"/>
        <pt x="605" y="126" on="1"/>
        <pt x="605" y="0" on="1"/>
        <pt x="559" y="-28" on="0"/>
        <pt x="515" y="-79" on="0"/>
        <pt x="515" y="-105" on="1"/>
        <pt x="515" y="-126" on="0"/>
        <pt x="542" y="-149" on="0"/>
        <pt x="565" y="-149" on="1"/>
        <pt x="575" y="-149" on="0"/>
        <pt x="597" y="-143" on="0"/>
        <pt x="605" y="-137" on="1"/>
        <pt x="624" y="-199" on="1"/>
        <pt x="607" y="-209" on="0"/>
        <pt x="563" y="-221" on="0"/>
        <pt x="541" y="-221" on="1"/>
        <pt x="493" y="-221" on="0"/>
        <pt x="435" y="-170" on="0"/>
        <pt x="435" y="-129" on="1"/>
        <pt x="435" y="-93" on="0"/>
        <pt x="479" y="-31" on="0"/>
        <pt x="527" y="0" on="1"/>
      </contour>
    </TTGlyph>
    <TTGlyph name="Eth" xMin="17" yMin="0" xMax="734" yMax="700">
      <contour>
        <pt x="95" y="0" on="1"/>
        <pt x="95" y="293" on="1"/>
        <pt x="17" y="293" on="1"/>
        <pt x="17" y="408" on="1"/>
        <pt x="95" y="408" on="1"/>
        <pt x="95" y="700" on="1"/>
        <pt x="364" y="700" on="1"/>
        <pt x="442" y="700" on="0"/>
        <pt x="578" y="646" on="0"/>
        <pt x="677" y="552" on="0"/>
        <pt x="734" y="422" on="0"/>
        <pt x="734" y="348" on="1"/>
        <pt x="734" y="275" on="0"/>
        <pt x="677" y="147" on="0"/>
        <pt x="578" y="54" on="0"/>
        <pt x="442" y="0" on="0"/>
        <pt x="364" y="0" on="1"/>
      </contour>
      <contour>
        <pt x="363" y="571" on="1"/>
        <pt x="240" y="571" on="1"/>
        <pt x="240" y="408" on="1"/>
        <pt x="405" y="408" on="1"/>
        <pt x="405" y="293" on="1"/>
        <pt x="240" y="293" on="1"/>
        <pt x="240" y="129" on="1"/>
        <pt x="363" y="129" on="1"/>
        <pt x="409" y="129" on="0"/>
        <pt x="490" y="163" on="0"/>
        <pt x="550" y="222" on="0"/>
        <pt x="584" y="302" on="0"/>
        <pt x="584" y="348" on="1"/>
        <pt x="584" y="395" on="0"/>
        <pt x="550" y="477" on="0"/>
        <pt x="490" y="537" on="0"/>
        <pt x="409" y="571" on="0"/>
      </contour>
    </TTGlyph>
    <TTGlyph name="Euro" xMin="35" yMin="-11" xMax="756" yMax="711">
      <contour>
        <pt x="241" y="350" on="1"/>
        <pt x="241" y="342" on="0"/>
        <pt x="241" y="326" on="0"/>
        <pt x="242" y="319" on="1"/>
        <pt x="465" y="319" on="1"/>
        <pt x="438" y="249" on="1"/>
        <pt x="257" y="249" on="1"/>
        <pt x="282" y="181" on="0"/>
        <pt x="394" y="101" on="0"/>
        <pt x="472" y="101" on="1"/>
        <pt x="531" y="101" on="0"/>
        <pt x="635" y="147" on="0"/>
        <pt x="664" y="187" on="1"/>
        <pt x="755" y="118" on="1"/>
        <pt x="707" y="55" on="0"/>
        <pt x="562" y="-11" on="0"/>
        <pt x="472" y="-11" on="1"/>
        <pt x="341" y="-11" on="0"/>
        <pt x="154" y="132" on="0"/>
        <pt x="124" y="249" on="1"/>
        <pt x="35" y="249" on="1"/>
        <pt x="35" y="319" on="1"/>
        <pt x="113" y="319" on="1"/>
        <pt x="112" y="326" on="0"/>
        <pt x="112" y="342" on="0"/>
        <pt x="112" y="350" on="1"/>
        <pt x="112" y="358" on="0"/>
        <pt x="112" y="374" on="0"/>
        <pt x="113" y="381" on="1"/>
        <pt x="35" y="381" on="1"/>
        <pt x="35" y="452" on="1"/>
        <pt x="124" y="452" on="1"/>
        <pt x="154" y="568" on="0"/>
        <pt x="342" y="711" on="0"/>
        <pt x="473" y="711" on="1"/>
        <pt x="564" y="711" on="0"/>
        <pt x="709" y="645" on="0"/>
        <pt x="756" y="582" on="1"/>
        <pt x="663" y="512" on="1"/>
        <pt x="634" y="553" on="0"/>
        <pt x="533" y="599" on="0"/>
        <pt x="473" y="599" on="1"/>
        <pt x="395" y="599" on="0"/>
        <pt x="283" y="520" on="0"/>
        <pt x="258" y="452" on="1"/>
        <pt x="514" y="452" on="1"/>
        <pt x="487" y="381" on="1"/>
        <pt x="242" y="381" on="1"/>
        <pt x="241" y="374" on="0"/>
        <pt x="241" y="358" on="0"/>
      </contour>
    </TTGlyph>
    <TTGlyph name="F" xMin="63" yMin="0" xMax="604" yMax="700">
      <contour>
        <pt x="63" y="0" on="1"/>
        <pt x="63" y="700" on="1"/>
        <pt x="604" y="700" on="1"/>
        <pt x="604" y="574" on="1"/>
        <pt x="208" y="574" on="1"/>
        <pt x="208" y="409" on="1"/>
        <pt x="471" y="409" on="1"/>
        <pt x="471" y="287" on="1"/>
        <pt x="208" y="287" on="1"/>
        <pt x="208" y="0" on="1"/>
      </contour>
    </TTGlyph>
    <TTGlyph name="G" xMin="36" yMin="-11" xMax="758" yMax="711">
      <contour>
        <pt x="758" y="349" on="1"/>
        <pt x="758" y="272" on="0"/>
        <pt x="705" y="139" on="0"/>
        <pt x="612" y="44" on="0"/>
        <pt x="482" y="-11" on="0"/>
        <pt x="407" y="-11" on="1"/>
        <pt x="329" y="-11" on="0"/>
        <pt x="193" y="45" on="0"/>
        <pt x="94" y="142" on="0"/>
        <pt x="36" y="274" on="0"/>
        <pt x="36" y="350" on="1"/>
        <pt x="36" y="426" on="0"/>
        <pt x="93" y="558" on="0"/>
        <pt x="192" y="655" on="0"/>
        <pt x="328" y="711" on="0"/>
        <pt x="405" y="711" on="1"/>
        <pt x="492" y="711" on="0"/>
        <pt x="646" y="641" on="0"/>
        <pt x="696" y="580" on="1"/>
        <pt x="595" y="487" on="1"/>
        <pt x="558" y="531" on="0"/>
        <pt x="461" y="578" on="0"/>
        <pt x="405" y="578" on="1"/>
        <pt x="358" y="578" on="0"/>
        <pt x="277" y="543" on="0"/>
        <pt x="218" y="482" on="0"/>
        <pt x="185" y="399" on="0"/>
        <pt x="185" y="350" on="1"/>
        <pt x="185" y="301" on="0"/>
        <pt x="219" y="217" on="0"/>
        <pt x="279" y="156" on="0"/>
        <pt x="362" y="121" on="0"/>
        <pt x="409" y="121" on="1"/>
        <pt x="483" y="121" on="0"/>
        <pt x="590" y="203" on="0"/>
        <pt x="603" y="267" on="1"/>
        <pt x="396" y="267" on="1"/>
        <pt x="396" y="393" on="1"/>
        <pt x="758" y="393" on="1"/>
      </contour>
    </TTGlyph>
    <TTGlyph name="Gbreve" xMin="36" yMin="-11" xMax="758" yMax="936">
      <component glyphName="G" x="0" y="0" flags="0x204"/>
      <component glyphName="breve" x="147" y="179" flags="0x4"/>
    </TTGlyph>
    <TTGlyph name="Gcircumflex" xMin="36" yMin="-11" xMax="758" yMax="920">
      <component glyphName="G" x="0" y="0" flags="0x204"/>
      <component glyphName="circumflex" x="147" y="179" flags="0x4"/>
    </TTGlyph>
    <TTGlyph name="Gcommaaccent" xMin="36" yMin="-286" xMax="758" yMax="711">
      <component glyphName="G" x="0" y="0" flags="0x204"/>
      <component glyphName="commaaccent" x="279" y="0" flags="0x4"/>
    </TTGlyph>
    <TTGlyph name="Gdotaccent" xMin="36" yMin="-11" xMax="758" yMax="926">
      <component glyphName="G" x="0" y="0" flags="0x204"/>
      <component glyphName="dotaccent" x="260" y="179" flags="0x4"/>
    </TTGlyph>
    <TTGlyph name="H" xMin="63" yMin="0" xMax="675" yMax="700">
      <contour>
        <pt x="63" y="0" on="1"/>
        <pt x="63" y="700" on="1"/>
        <pt x="208" y="700" on="1"/>
        <pt x="208" y="419" on="1"/>
        <pt x="530" y="419" on="1"/>
        <pt x="530" y="700" on="1"/>
        <pt x="675" y="700" on="1"/>
        <pt x="675" y="0" on="1"/>
        <pt x="530" y="0" on="1"/>
        <pt x="530" y="286" on="1"/>
        <pt x="208" y="286" on="1"/>
        <pt x="208" y="0" on="1"/>
      </contour>
    </TTGlyph>
    <TTGlyph name="Hbar" xMin="10" yMin="0" xMax="746" yMax="700">
      <contour>
        <pt x="72" y="0" on="1"/>
        <pt x="72" y="497" on="1"/>
        <pt x="10" y="497" on="1"/>
        <pt x="10" y="613" on="1"/>
        <pt x="72" y="613" on="1"/>
        <pt x="72" y="700" on="1"/>
        <pt x="217" y="700" on="1"/>
        <pt x="217" y="613" on="1"/>
        <pt x="539" y="613" on="1"/>
        <pt x="539" y="700" on="1"/>
        <pt x="684" y="700" on="1"/>
        <pt x="684" y="613" on="1"/>
        <pt x="746" y="613" on="1"/>
        <pt x="746" y="497" on="1"/>
        <pt x="684" y="497" on="1"/>
        <pt x="684" y="0" on="1"/>
        <pt x="539" y="0" on="1"/>
        <pt x="539" y="286" on="1"/>
        <pt x="217" y="286" on="1"/>
        <pt x="217" y="0" on="1"/>
      </contour>
      <contour>
        <pt x="217" y="419" on="1"/>
        <pt x="539" y="419" on="1"/>
        <pt x="539" y="497" on="1"/>
        <pt x="217" y="497" on="1"/>
      </contour>
    </TTGlyph>
    <TTGlyph name="Hcircumflex" xMin="63" yMin="0" xMax="675" yMax="920">
      <component glyphName="H" x="0" y="0" flags="0x204"/>
      <component glyphName="circumflex" x="111" y="179" flags="0x4"/>
    </TTGlyph>
    <TTGlyph name="I" xMin="63" yMin="0" xMax="208" yMax="700">
      <contour>
        <pt x="63" y="0" on="1"/>
        <pt x="63" y="700" on="1"/>
        <pt x="208" y="700" on="1"/>
        <pt x="208" y="0" on="1"/>
      </contour>
    </TTGlyph>
    <TTGlyph name="IJ" xMin="63" yMin="-10" xMax="861" yMax="700">
      <component glyphName="I" x="0" y="0" flags="0x4"/>
      <component glyphName="J" x="272" y="0" flags="0x4"/>
    </TTGlyph>
    <TTGlyph name="Iacute" xMin="63" yMin="0" xMax="312" yMax="917">
      <component glyphName="I" x="0" y="0" flags="0x204"/>
      <component glyphName="acute" x="-88" y="179" flags="0x4"/>
    </TTGlyph>
    <TTGlyph name="Ibreve" xMin="-40" yMin="0" xMax="311" yMax="936">
      <component glyphName="I" x="0" y="0" flags="0x204"/>
      <component glyphName="breve" x="-123" y="179" flags="0x4"/>
    </TTGlyph>
    <TTGlyph name="Icircumflex" xMin="-49" yMin="0" xMax="321" yMax="920">
      <component glyphName="I" x="0" y="0" flags="0x204"/>
      <component glyphName="circumflex" x="-123" y="179" flags="0x4"/>
    </TTGlyph>
    <TTGlyph name="Idieresis" xMin="-48" yMin="0" xMax="320" yMax="928">
      <component glyphName="I" x="0" y="0" flags="0x204"/>
      <component glyphName="dieresis" x="-158" y="179" flags="0x4"/>
    </TTGlyph>
    <TTGlyph name="Idotaccent" xMin="61" yMin="0" xMax="210" yMax="926">
      <component glyphName="I" x="0" y="0" flags="0x204"/>
      <component glyphName="dotaccent" x="-10" y="179" flags="0x4"/>
    </TTGlyph>
    <TTGlyph name="Igrave" xMin="-38" yMin="0" xMax="208" yMax="917">
      <component glyphName="I" x="0" y="0" flags="0x204"/>
      <component glyphName="grave" x="-165" y="179" flags="0x4"/>
    </TTGlyph>
    <TTGlyph name="Imacron" xMin="-21" yMin="0" xMax="299" yMax="892">
      <component glyphName="I" x="0" y="0" flags="0x204"/>
      <component glyphName="macron" x="-123" y="179" flags="0x4"/>
    </TTGlyph>
    <TTGlyph name="Iogonek" xMin="38" yMin="-221" xMax="227" yMax="700">
      <contour>
        <pt x="63" y="0" on="1"/>
        <pt x="63" y="700" on="1"/>
        <pt x="208" y="700" on="1"/>
        <pt x="208" y="0" on="1"/>
        <pt x="162" y="-28" on="0"/>
        <pt x="118" y="-79" on="0"/>
        <pt x="118" y="-105" on="1"/>
        <pt x="118" y="-126" on="0"/>
        <pt x="145" y="-149" on="0"/>
        <pt x="168" y="-149" on="1"/>
        <pt x="178" y="-149" on="0"/>
        <pt x="200" y="-143" on="0"/>
        <pt x="208" y="-137" on="1"/>
        <pt x="227" y="-199" on="1"/>
        <pt x="210" y="-209" on="0"/>
        <pt x="166" y="-221" on="0"/>
        <pt x="144" y="-221" on="1"/>
        <pt x="96" y="-221" on="0"/>
        <pt x="38" y="-170" on="0"/>
        <pt x="38" y="-129" on="1"/>
        <pt x="38" y="-93" on="0"/>
        <pt x="82" y="-31" on="0"/>
        <pt x="130" y="0" on="1"/>
      </contour>
    </TTGlyph>
    <TTGlyph name="Itilde" xMin="-55" yMin="0" xMax="332" yMax="919">
      <component glyphName="I" x="0" y="0" flags="0x204"/>
      <component glyphName="tilde" x="-121" y="179" flags="0x4"/>
    </TTGlyph>
    <TTGlyph name="J" xMin="17" yMin="-10" xMax="589" yMax="700">
      <contour>
        <pt x="589" y="272" on="1"/>
        <pt x="589" y="209" on="0"/>
        <pt x="547" y="104" on="0"/>
        <pt x="472" y="30" on="0"/>
        <pt x="365" y="-10" on="0"/>
        <pt x="300" y="-10" on="1"/>
        <pt x="196" y="-10" on="0"/>
        <pt x="48" y="96" on="0"/>
        <pt x="17" y="195" on="1"/>
        <pt x="151" y="246" on="1"/>
        <pt x="173" y="183" on="0"/>
        <pt x="247" y="121" on="0"/>
        <pt x="301" y="121" on="1"/>
        <pt x="365" y="121" on="0"/>
        <pt x="444" y="207" on="0"/>
        <pt x="444" y="276" on="1"/>
        <pt x="444" y="700" on="1"/>
        <pt x="589" y="700" on="1"/>
      </contour>
    </TTGlyph>
    <TTGlyph name="Jcircumflex" xMin="17" yMin="-10" xMax="705" yMax="920">
      <component glyphName="J" x="0" y="0" flags="0x204"/>
      <component glyphName="circumflex" x="261" y="179" flags="0x4"/>
    </TTGlyph>
    <TTGlyph name="K" xMin="63" yMin="0" xMax="707" yMax="700">
      <contour>
        <pt x="63" y="0" on="1"/>
        <pt x="63" y="700" on="1"/>
        <pt x="208" y="700" on="1"/>
        <pt x="208" y="386" on="1"/>
        <pt x="514" y="700" on="1"/>
        <pt x="691" y="700" on="1"/>
        <pt x="353" y="367" on="1"/>
        <pt x="707" y="0" on="1"/>
        <pt x="513" y="0" on="1"/>
        <pt x="208" y="328" on="1"/>
        <pt x="208" y="0" on="1"/>
      </contour>
    </TTGlyph>
    <TTGlyph name="Kcommaaccent" xMin="63" yMin="-286" xMax="707" yMax="700">
      <component glyphName="K" x="0" y="0" flags="0x204"/>
      <component glyphName="commaaccent" x="228" y="0" flags="0x4"/>
    </TTGlyph>
    <TTGlyph name="L" xMin="63" yMin="0" xMax="591" yMax="700">
      <contour>
        <pt x="63" y="0" on="1"/>
        <pt x="63" y="700" on="1"/>
        <pt x="208" y="700" on="1"/>
        <pt x="208" y="128" on="1"/>
        <pt x="591" y="128" on="1"/>
        <pt x="591" y="0" on="1"/>
      </contour>
    </TTGlyph>
    <TTGlyph name="Lacute" xMin="63" yMin="0" xMax="591" yMax="917">
      <component glyphName="L" x="0" y="0" flags="0x204"/>
      <component glyphName="acute" x="-89" y="179" flags="0x4"/>
    </TTGlyph>
    <TTGlyph name="Lcaron" xMin="63" yMin="0" xMax="591" yMax="720">
      <component glyphName="L" x="0" y="0" flags="0x4"/>
      <component glyphName="caronSlovak" x="288" y="0" flags="0x4"/>
    </TTGlyph>
    <TTGlyph name="Lcommaaccent" xMin="63" yMin="-286" xMax="591" yMax="700">
      <component glyphName="L" x="0" y="0" flags="0x204"/>
      <component glyphName="commaaccent" x="219" y="0" flags="0x4"/>
    </TTGlyph>
    <TTGlyph name="Ldot" xMin="63" yMin="0" xMax="591" yMax="700">
      <component glyphName="L" x="0" y="0" flags="0x4"/>
      <component glyphName="dotaccent" x="290" y="-306" flags="0x4"/>
    </TTGlyph>
    <TTGlyph name="Lslash" xMin="11" yMin="0" xMax="617" yMax="700">
      <contour>
        <pt x="89" y="0" on="1"/>
        <pt x="89" y="208" on="1"/>
        <pt x="11" y="159" on="1"/>
        <pt x="11" y="282" on="1"/>
        <pt x="89" y="331" on="1"/>
        <pt x="89" y="700" on="1"/>
        <pt x="234" y="700" on="1"/>
        <pt x="234" y="423" on="1"/>
        <pt x="411" y="535" on="1"/>
        <pt x="411" y="412" on="1"/>
        <pt x="234" y="300" on="1"/>
        <pt x="234" y="128" on="1"/>
        <pt x="617" y="128" on="1"/>
        <pt x="617" y="0" on="1"/>
      </contour>
    </TTGlyph>
    <TTGlyph name="M" xMin="63" yMin="0" xMax="819" yMax="700">
      <contour>
        <pt x="439" y="50" on="1"/>
        <pt x="197" y="515" on="1"/>
        <pt x="197" y="0" on="1"/>
        <pt x="63" y="0" on="1"/>
        <pt x="63" y="700" on="1"/>
        <pt x="249" y="700" on="1"/>
        <pt x="441" y="324" on="1"/>
        <pt x="633" y="700" on="1"/>
        <pt x="819" y="700" on="1"/>
        <pt x="819" y="0" on="1"/>
        <pt x="682" y="0" on="1"/>
        <pt x="682" y="514" on="1"/>
      </contour>
    </TTGlyph>
    <TTGlyph name="N" xMin="63" yMin="0" xMax="685" yMax="700">
      <contour>
        <pt x="63" y="700" on="1"/>
        <pt x="201" y="700" on="1"/>
        <pt x="549" y="247" on="1"/>
        <pt x="549" y="700" on="1"/>
        <pt x="685" y="700" on="1"/>
        <pt x="685" y="0" on="1"/>
        <pt x="557" y="0" on="1"/>
        <pt x="200" y="468" on="1"/>
        <pt x="200" y="0" on="1"/>
        <pt x="63" y="0" on="1"/>
      </contour>
    </TTGlyph>
    <TTGlyph name="Nacute" xMin="63" yMin="0" xMax="685" yMax="917">
      <component glyphName="N" x="0" y="0" flags="0x204"/>
      <component glyphName="acute" x="150" y="179" flags="0x4"/>
    </TTGlyph>
    <TTGlyph name="Ncaron" xMin="63" yMin="0" xMax="685" yMax="920">
      <component glyphName="N" x="0" y="0" flags="0x204"/>
      <component glyphName="caron" x="114" y="179" flags="0x4"/>
    </TTGlyph>
    <TTGlyph name="Ncommaaccent" xMin="63" yMin="-286" xMax="685" yMax="700">
      <component glyphName="N" x="0" y="0" flags="0x204"/>
      <component glyphName="commaaccent" x="244" y="0" flags="0x4"/>
    </TTGlyph>
    <TTGlyph name="Ntilde" xMin="63" yMin="0" xMax="685" yMax="919">
      <component glyphName="N" x="0" y="0" flags="0x204"/>
      <component glyphName="tilde" x="117" y="179" flags="0x4"/>
    </TTGlyph>
    <TTGlyph name="O" xMin="36" yMin="-11" xMax="777" yMax="711">
      <contour>
        <pt x="777" y="350" on="1"/>
        <pt x="777" y="275" on="0"/>
        <pt x="719" y="142" on="0"/>
        <pt x="620" y="45" on="0"/>
        <pt x="484" y="-11" on="0"/>
        <pt x="406" y="-11" on="1"/>
        <pt x="329" y="-11" on="0"/>
        <pt x="193" y="45" on="0"/>
        <pt x="94" y="142" on="0"/>
        <pt x="36" y="275" on="0"/>
        <pt x="36" y="350" on="1"/>
        <pt x="36" y="425" on="0"/>
        <pt x="94" y="558" on="0"/>
        <pt x="193" y="655" on="0"/>
        <pt x="329" y="711" on="0"/>
        <pt x="406" y="711" on="1"/>
        <pt x="484" y="711" on="0"/>
        <pt x="620" y="655" on="0"/>
        <pt x="719" y="558" on="0"/>
        <pt x="777" y="425" on="0"/>
      </contour>
      <contour>
        <pt x="628" y="350" on="1"/>
        <pt x="628" y="399" on="0"/>
        <pt x="594" y="482" on="0"/>
        <pt x="535" y="543" on="0"/>
        <pt x="453" y="578" on="0"/>
        <pt x="406" y="578" on="1"/>
        <pt x="359" y="578" on="0"/>
        <pt x="278" y="543" on="0"/>
        <pt x="219" y="482" on="0"/>
        <pt x="185" y="399" on="0"/>
        <pt x="185" y="350" on="1"/>
        <pt x="185" y="302" on="0"/>
        <pt x="219" y="218" on="0"/>
        <pt x="278" y="157" on="0"/>
        <pt x="359" y="122" on="0"/>
        <pt x="406" y="122" on="1"/>
        <pt x="453" y="122" on="0"/>
        <pt x="535" y="157" on="0"/>
        <pt x="594" y="218" on="0"/>
        <pt x="628" y="302" on="0"/>
      </contour>
    </TTGlyph>
    <TTGlyph name="OE" xMin="40" yMin="0" xMax="1059" yMax="700">
      <contour>
        <pt x="400" y="0" on="1"/>
        <pt x="325" y="0" on="0"/>
        <pt x="193" y="55" on="0"/>
        <pt x="96" y="149" on="0"/>
        <pt x="40" y="277" on="0"/>
        <pt x="40" y="350" on="1"/>
        <pt x="40" y="423" on="0"/>
        <pt x="96" y="551" on="0"/>
        <pt x="193" y="645" on="0"/>
        <pt x="325" y="700" on="0"/>
        <pt x="400" y="700" on="1"/>
        <pt x="1059" y="700" on="1"/>
        <pt x="1059" y="574" on="1"/>
        <pt x="673" y="574" on="1"/>
        <pt x="703" y="540" on="0"/>
        <pt x="744" y="459" on="0"/>
        <pt x="752" y="414" on="1"/>
        <pt x="935" y="414" on="1"/>
        <pt x="935" y="292" on="1"/>
        <pt x="753" y="292" on="1"/>
        <pt x="746" y="246" on="0"/>
        <pt x="705" y="160" on="0"/>
        <pt x="674" y="126" on="1"/>
        <pt x="1059" y="126" on="1"/>
        <pt x="1059" y="0" on="1"/>
      </contour>
      <contour>
        <pt x="400" y="129" on="1"/>
        <pt x="444" y="129" on="0"/>
        <pt x="521" y="163" on="0"/>
        <pt x="578" y="222" on="0"/>
        <pt x="611" y="303" on="0"/>
        <pt x="611" y="350" on="1"/>
        <pt x="611" y="397" on="0"/>
        <pt x="578" y="478" on="0"/>
        <pt x="521" y="537" on="0"/>
        <pt x="444" y="571" on="0"/>
        <pt x="400" y="571" on="1"/>
        <pt x="356" y="571" on="0"/>
        <pt x="278" y="537" on="0"/>
        <pt x="222" y="478" on="0"/>
        <pt x="189" y="397" on="0"/>
        <pt x="189" y="350" on="1"/>
        <pt x="189" y="303" on="0"/>
        <pt x="222" y="222" on="0"/>
        <pt x="278" y="163" on="0"/>
        <pt x="356" y="129" on="0"/>
      </contour>
    </TTGlyph>
    <TTGlyph name="Oacute" xMin="36" yMin="-11" xMax="777" yMax="917">
      <component glyphName="O" x="0" y="0" flags="0x204"/>
      <component glyphName="acute" x="182" y="179" flags="0x4"/>
    </TTGlyph>
    <TTGlyph name="Obreve" xMin="36" yMin="-11" xMax="777" yMax="936">
      <component glyphName="O" x="0" y="0" flags="0x204"/>
      <component glyphName="breve" x="148" y="179" flags="0x4"/>
    </TTGlyph>
    <TTGlyph name="Ocircumflex" xMin="36" yMin="-11" xMax="777" yMax="920">
      <component glyphName="O" x="0" y="0" flags="0x204"/>
      <component glyphName="circumflex" x="148" y="179" flags="0x4"/>
    </TTGlyph>
    <TTGlyph name="Odieresis" xMin="36" yMin="-11" xMax="777" yMax="928">
      <component glyphName="O" x="0" y="0" flags="0x204"/>
      <component glyphName="dieresis" x="112" y="179" flags="0x4"/>
    </TTGlyph>
    <TTGlyph name="Ograve" xMin="36" yMin="-11" xMax="777" yMax="917">
      <component glyphName="O" x="0" y="0" flags="0x204"/>
      <component glyphName="grave" x="106" y="179" flags="0x4"/>
    </TTGlyph>
    <TTGlyph name="Ohungarumlaut" xMin="36" yMin="-11" xMax="777" yMax="916">
      <component glyphName="O" x="0" y="0" flags="0x204"/>
      <component glyphName="hungarumlaut" x="157" y="179" flags="0x4"/>
    </TTGlyph>
    <TTGlyph name="Omacron" xMin="36" yMin="-11" xMax="777" yMax="892">
      <component glyphName="O" x="0" y="0" flags="0x204"/>
      <component glyphName="macron" x="148" y="179" flags="0x4"/>
    </TTGlyph>
    <TTGlyph name="Oslash" xMin="36" yMin="-11" xMax="777" yMax="711">
      <contour>
        <pt x="177" y="0" on="1"/>
        <pt x="49" y="0" on="1"/>
        <pt x="134" y="103" on="1"/>
        <pt x="88" y="151" on="0"/>
        <pt x="36" y="278" on="0"/>
        <pt x="36" y="350" on="1"/>
        <pt x="36" y="425" on="0"/>
        <pt x="94" y="558" on="0"/>
        <pt x="193" y="655" on="0"/>
        <pt x="329" y="711" on="0"/>
        <pt x="406" y="711" on="1"/>
        <pt x="458" y="711" on="0"/>
        <pt x="554" y="685" on="0"/>
        <pt x="595" y="662" on="1"/>
        <pt x="627" y="700" on="1"/>
        <pt x="756" y="700" on="1"/>
        <pt x="674" y="601" on="1"/>
        <pt x="722" y="553" on="0"/>
        <pt x="777" y="423" on="0"/>
        <pt x="777" y="350" on="1"/>
        <pt x="777" y="275" on="0"/>
        <pt x="719" y="142" on="0"/>
        <pt x="620" y="45" on="0"/>
        <pt x="484" y="-11" on="0"/>
        <pt x="406" y="-11" on="1"/>
        <pt x="352" y="-11" on="0"/>
        <pt x="254" y="17" on="0"/>
        <pt x="211" y="42" on="1"/>
      </contour>
      <contour>
        <pt x="185" y="350" on="1"/>
        <pt x="185" y="312" on="0"/>
        <pt x="207" y="243" on="0"/>
        <pt x="226" y="215" on="1"/>
        <pt x="507" y="555" on="1"/>
        <pt x="485" y="566" on="0"/>
        <pt x="434" y="578" on="0"/>
        <pt x="406" y="578" on="1"/>
        <pt x="359" y="578" on="0"/>
        <pt x="278" y="543" on="0"/>
        <pt x="219" y="482" on="0"/>
        <pt x="185" y="399" on="0"/>
      </contour>
      <contour>
        <pt x="628" y="350" on="1"/>
        <pt x="628" y="390" on="0"/>
        <pt x="604" y="463" on="0"/>
        <pt x="583" y="491" on="1"/>
        <pt x="300" y="149" on="1"/>
        <pt x="323" y="136" on="0"/>
        <pt x="377" y="122" on="0"/>
        <pt x="406" y="122" on="1"/>
        <pt x="453" y="122" on="0"/>
        <pt x="535" y="157" on="0"/>
        <pt x="594" y="218" on="0"/>
        <pt x="628" y="302" on="0"/>
      </contour>
    </TTGlyph>
    <TTGlyph name="Otilde" xMin="36" yMin="-11" xMax="777" yMax="919">
      <component glyphName="O" x="0" y="0" flags="0x204"/>
      <component glyphName="tilde" x="149" y="179" flags="0x4"/>
    </TTGlyph>
    <TTGlyph name="P" xMin="63" yMin="0" xMax="649" yMax="700">
      <contour>
        <pt x="63" y="0" on="1"/>
        <pt x="63" y="700" on="1"/>
        <pt x="414" y="700" on="1"/>
        <pt x="465" y="700" on="0"/>
        <pt x="552" y="667" on="0"/>
        <pt x="614" y="609" on="0"/>
        <pt x="649" y="528" on="0"/>
        <pt x="649" y="480" on="1"/>
        <pt x="649" y="433" on="0"/>
        <pt x="614" y="354" on="0"/>
        <pt x="551" y="296" on="0"/>
        <pt x="465" y="264" on="0"/>
        <pt x="414" y="264" on="1"/>
        <pt x="208" y="264" on="1"/>
        <pt x="208" y="0" on="1"/>
      </contour>
      <contour>
        <pt x="398" y="575" on="1"/>
        <pt x="208" y="575" on="1"/>
        <pt x="208" y="384" on="1"/>
        <pt x="398" y="384" on="1"/>
        <pt x="445" y="384" on="0"/>
        <pt x="502" y="436" on="0"/>
        <pt x="502" y="479" on="1"/>
        <pt x="502" y="522" on="0"/>
        <pt x="445" y="575" on="0"/>
      </contour>
    </TTGlyph>
    <TTGlyph name="Q" xMin="36" yMin="-34" xMax="777" yMax="711">
      <contour>
        <pt x="777" y="350" on="1"/>
        <pt x="777" y="275" on="0"/>
        <pt x="720" y="144" on="0"/>
        <pt x="670" y="95" on="1"/>
        <pt x="740" y="8" on="1"/>
        <pt x="613" y="-34" on="1"/>
        <pt x="567" y="24" on="1"/>
        <pt x="530" y="7" on="0"/>
        <pt x="449" y="-11" on="0"/>
        <pt x="406" y="-11" on="1"/>
        <pt x="329" y="-11" on="0"/>
        <pt x="193" y="45" on="0"/>
        <pt x="94" y="142" on="0"/>
        <pt x="36" y="275" on="0"/>
        <pt x="36" y="350" on="1"/>
        <pt x="36" y="425" on="0"/>
        <pt x="94" y="558" on="0"/>
        <pt x="193" y="655" on="0"/>
        <pt x="329" y="711" on="0"/>
        <pt x="406" y="711" on="1"/>
        <pt x="484" y="711" on="0"/>
        <pt x="620" y="655" on="0"/>
        <pt x="719" y="558" on="0"/>
        <pt x="777" y="425" on="0"/>
      </contour>
      <contour>
        <pt x="528" y="272" on="1"/>
        <pt x="581" y="207" on="1"/>
        <pt x="603" y="235" on="0"/>
        <pt x="628" y="309" on="0"/>
        <pt x="628" y="350" on="1"/>
        <pt x="628" y="399" on="0"/>
        <pt x="594" y="482" on="0"/>
        <pt x="535" y="543" on="0"/>
        <pt x="453" y="578" on="0"/>
        <pt x="406" y="578" on="1"/>
        <pt x="359" y="578" on="0"/>
        <pt x="278" y="543" on="0"/>
        <pt x="219" y="482" on="0"/>
        <pt x="185" y="399" on="0"/>
        <pt x="185" y="350" on="1"/>
        <pt x="185" y="302" on="0"/>
        <pt x="219" y="218" on="0"/>
        <pt x="278" y="157" on="0"/>
        <pt x="359" y="122" on="0"/>
        <pt x="406" y="122" on="1"/>
        <pt x="425" y="122" on="0"/>
        <pt x="462" y="128" on="0"/>
        <pt x="478" y="134" on="1"/>
        <pt x="401" y="230" on="1"/>
      </contour>
    </TTGlyph>
    <TTGlyph name="R" xMin="63" yMin="0" xMax="665" yMax="700">
      <contour>
        <pt x="63" y="0" on="1"/>
        <pt x="63" y="700" on="1"/>
        <pt x="405" y="700" on="1"/>
        <pt x="458" y="700" on="0"/>
        <pt x="547" y="668" on="0"/>
        <pt x="611" y="611" on="0"/>
        <pt x="647" y="531" on="0"/>
        <pt x="647" y="483" on="1"/>
        <pt x="647" y="417" on="0"/>
        <pt x="572" y="313" on="0"/>
        <pt x="510" y="288" on="1"/>
        <pt x="665" y="0" on="1"/>
        <pt x="503" y="0" on="1"/>
        <pt x="366" y="268" on="1"/>
        <pt x="208" y="268" on="1"/>
        <pt x="208" y="0" on="1"/>
      </contour>
      <contour>
        <pt x="392" y="575" on="1"/>
        <pt x="208" y="575" on="1"/>
        <pt x="208" y="387" on="1"/>
        <pt x="392" y="387" on="1"/>
        <pt x="441" y="387" on="0"/>
        <pt x="500" y="439" on="0"/>
        <pt x="500" y="481" on="1"/>
        <pt x="500" y="523" on="0"/>
        <pt x="441" y="575" on="0"/>
      </contour>
    </TTGlyph>
    <TTGlyph name="Racute" xMin="63" yMin="0" xMax="665" yMax="917">
      <component glyphName="R" x="0" y="0" flags="0x204"/>
      <component glyphName="acute" x="114" y="179" flags="0x4"/>
    </TTGlyph>
    <TTGlyph name="Rcaron" xMin="63" yMin="0" xMax="665" yMax="920">
      <component glyphName="R" x="0" y="0" flags="0x204"/>
      <component glyphName="caron" x="78" y="179" flags="0x4"/>
    </TTGlyph>
    <TTGlyph name="Rcommaaccent" xMin="63" yMin="-286" xMax="665" yMax="700">
      <component glyphName="R" x="0" y="0" flags="0x204"/>
      <component glyphName="commaaccent" x="217" y="0" flags="0x4"/>
    </TTGlyph>
    <TTGlyph name="S" xMin="3" yMin="-10" xMax="608" yMax="710">
      <contour>
        <pt x="3" y="111" on="1"/>
        <pt x="86" y="215" on="1"/>
        <pt x="147" y="162" on="0"/>
        <pt x="260" y="113" on="0"/>
        <pt x="323" y="113" on="1"/>
        <pt x="388" y="113" on="0"/>
        <pt x="466" y="161" on="0"/>
        <pt x="466" y="201" on="1"/>
        <pt x="466" y="237" on="0"/>
        <pt x="413" y="277" on="0"/>
        <pt x="351" y="287" on="1"/>
        <pt x="212" y="311" on="1"/>
        <pt x="122" y="326" on="0"/>
        <pt x="29" y="422" on="0"/>
        <pt x="29" y="498" on="1"/>
        <pt x="29" y="596" on="0"/>
        <pt x="178" y="710" on="0"/>
        <pt x="305" y="710" on="1"/>
        <pt x="381" y="710" on="0"/>
        <pt x="536" y="658" on="0"/>
        <pt x="594" y="612" on="1"/>
        <pt x="516" y="504" on="1"/>
        <pt x="460" y="547" on="0"/>
        <pt x="352" y="588" on="0"/>
        <pt x="295" y="588" on="1"/>
        <pt x="237" y="588" on="0"/>
        <pt x="167" y="545" on="0"/>
        <pt x="167" y="509" on="1"/>
        <pt x="167" y="477" on="0"/>
        <pt x="213" y="441" on="0"/>
        <pt x="267" y="433" on="1"/>
        <pt x="399" y="411" on="1"/>
        <pt x="503" y="394" on="0"/>
        <pt x="608" y="295" on="0"/>
        <pt x="608" y="214" on="1"/>
        <pt x="608" y="112" on="0"/>
        <pt x="447" y="-10" on="0"/>
        <pt x="313" y="-10" on="1"/>
        <pt x="229" y="-10" on="0"/>
        <pt x="66" y="54" on="0"/>
      </contour>
    </TTGlyph>
    <TTGlyph name="Sacute" xMin="3" yMin="-10" xMax="608" yMax="917">
      <component glyphName="S" x="0" y="0" flags="0x204"/>
      <component glyphName="acute" x="76" y="179" flags="0x4"/>
    </TTGlyph>
    <TTGlyph name="Scaron" xMin="3" yMin="-10" xMax="608" yMax="920">
      <component glyphName="S" x="0" y="0" flags="0x204"/>
      <component glyphName="caron" x="40" y="179" flags="0x4"/>
    </TTGlyph>
    <TTGlyph name="Scedilla" xMin="3" yMin="-236" xMax="608" yMax="710">
      <contour>
        <pt x="3" y="111" on="1"/>
        <pt x="86" y="215" on="1"/>
        <pt x="147" y="162" on="0"/>
        <pt x="260" y="113" on="0"/>
        <pt x="323" y="113" on="1"/>
        <pt x="388" y="113" on="0"/>
        <pt x="466" y="161" on="0"/>
        <pt x="466" y="201" on="1"/>
        <pt x="466" y="237" on="0"/>
        <pt x="413" y="277" on="0"/>
        <pt x="351" y="287" on="1"/>
        <pt x="212" y="311" on="1"/>
        <pt x="122" y="326" on="0"/>
        <pt x="29" y="422" on="0"/>
        <pt x="29" y="498" on="1"/>
        <pt x="29" y="596" on="0"/>
        <pt x="178" y="710" on="0"/>
        <pt x="305" y="710" on="1"/>
        <pt x="381" y="710" on="0"/>
        <pt x="536" y="658" on="0"/>
        <pt x="594" y="612" on="1"/>
        <pt x="516" y="504" on="1"/>
        <pt x="460" y="547" on="0"/>
        <pt x="352" y="588" on="0"/>
        <pt x="295" y="588" on="1"/>
        <pt x="237" y="588" on="0"/>
        <pt x="167" y="545" on="0"/>
        <pt x="167" y="509" on="1"/>
        <pt x="167" y="477" on="0"/>
        <pt x="213" y="441" on="0"/>
        <pt x="267" y="433" on="1"/>
        <pt x="399" y="411" on="1"/>
        <pt x="503" y="394" on="0"/>
        <pt x="608" y="295" on="0"/>
        <pt x="608" y="214" on="1"/>
        <pt x="608" y="117" on="0"/>
        <pt x="462" y="-4" on="0"/>
        <pt x="338" y="-9" on="1"/>
        <pt x="327" y="-46" on="1"/>
        <pt x="370" y="-50" on="0"/>
        <pt x="422" y="-98" on="0"/>
        <pt x="422" y="-135" on="1"/>
        <pt x="422" y="-178" on="0"/>
        <pt x="347" y="-236" on="0"/>
        <pt x="290" y="-236" on="1"/>
        <pt x="253" y="-236" on="0"/>
        <pt x="190" y="-213" on="0"/>
        <pt x="165" y="-191" on="1"/>
        <pt x="210" y="-143" on="1"/>
        <pt x="228" y="-157" on="0"/>
        <pt x="267" y="-172" on="0"/>
        <pt x="288" y="-172" on="1"/>
        <pt x="314" y="-172" on="0"/>
        <pt x="342" y="-152" on="0"/>
        <pt x="342" y="-134" on="1"/>
        <pt x="342" y="-117" on="0"/>
        <pt x="313" y="-97" on="0"/>
        <pt x="288" y="-97" on="1"/>
        <pt x="246" y="-97" on="1"/>
        <pt x="272" y="-8" on="1"/>
        <pt x="198" y="-1" on="0"/>
        <pt x="58" y="60" on="0"/>
      </contour>
    </TTGlyph>
    <TTGlyph name="Scircumflex" xMin="3" yMin="-10" xMax="608" yMax="920">
      <component glyphName="S" x="0" y="0" flags="0x204"/>
      <component glyphName="circumflex" x="41" y="179" flags="0x4"/>
    </TTGlyph>
    <TTGlyph name="Scommaaccent" xMin="3" yMin="-286" xMax="608" yMax="710">
      <component glyphName="S" x="0" y="0" flags="0x204"/>
      <component glyphName="commaaccent" x="179" y="0" flags="0x4"/>
    </TTGlyph>
    <TTGlyph name="T" xMin="18" yMin="0" xMax="634" yMax="700">
      <contour>
        <pt x="18" y="572" on="1"/>
        <pt x="18" y="700" on="1"/>
        <pt x="634" y="700" on="1"/>
        <pt x="634" y="572" on="1"/>
        <pt x="399" y="572" on="1"/>
        <pt x="399" y="0" on="1"/>
        <pt x="254" y="0" on="1"/>
        <pt x="254" y="572" on="1"/>
      </contour>
    </TTGlyph>
    <TTGlyph name="Tbar" xMin="18" yMin="0" xMax="634" yMax="700">
      <contour>
        <pt x="116" y="395" on="1"/>
        <pt x="254" y="395" on="1"/>
        <pt x="254" y="572" on="1"/>
        <pt x="18" y="572" on="1"/>
        <pt x="18" y="700" on="1"/>
        <pt x="634" y="700" on="1"/>
        <pt x="634" y="572" on="1"/>
        <pt x="399" y="572" on="1"/>
        <pt x="399" y="395" on="1"/>
        <pt x="536" y="395" on="1"/>
        <pt x="536" y="280" on="1"/>
        <pt x="399" y="280" on="1"/>
        <pt x="399" y="0" on="1"/>
        <pt x="254" y="0" on="1"/>
        <pt x="254" y="280" on="1"/>
        <pt x="116" y="280" on="1"/>
      </contour>
    </TTGlyph>
    <TTGlyph name="Tcaron" xMin="18" yMin="0" xMax="634" yMax="920">
      <component glyphName="T" x="0" y="0" flags="0x204"/>
      <component glyphName="caron" x="66" y="179" flags="0x4"/>
    </TTGlyph>
    <TTGlyph name="Tcedilla" xMin="18" yMin="-236" xMax="634" yMax="700">
      <contour>
        <pt x="18" y="572" on="1"/>
        <pt x="18" y="700" on="1"/>
        <pt x="634" y="700" on="1"/>
        <pt x="634" y="572" on="1"/>
        <pt x="399" y="572" on="1"/>
        <pt x="399" y="0" on="1"/>
        <pt x="358" y="0" on="1"/>
        <pt x="344" y="-46" on="1"/>
        <pt x="387" y="-50" on="0"/>
        <pt x="439" y="-98" on="0"/>
        <pt x="439" y="-135" on="1"/>
        <pt x="439" y="-178" on="0"/>
        <pt x="364" y="-236" on="0"/>
        <pt x="307" y="-236" on="1"/>
        <pt x="270" y="-236" on="0"/>
        <pt x="207" y="-213" on="0"/>
        <pt x="182" y="-191" on="1"/>
        <pt x="227" y="-143" on="1"/>
        <pt x="245" y="-157" on="0"/>
        <pt x="284" y="-172" on="0"/>
        <pt x="305" y="-172" on="1"/>
        <pt x="331" y="-172" on="0"/>
        <pt x="359" y="-152" on="0"/>
        <pt x="359" y="-134" on="1"/>
        <pt x="359" y="-117" on="0"/>
        <pt x="330" y="-97" on="0"/>
        <pt x="305" y="-97" on="1"/>
        <pt x="263" y="-97" on="1"/>
        <pt x="291" y="0" on="1"/>
        <pt x="254" y="0" on="1"/>
        <pt x="254" y="572" on="1"/>
      </contour>
    </TTGlyph>
    <TTGlyph name="Thorn" xMin="63" yMin="0" xMax="646" yMax="700">
      <contour>
        <pt x="63" y="0" on="1"/>
        <pt x="63" y="700" on="1"/>
        <pt x="208" y="700" on="1"/>
        <pt x="208" y="570" on="1"/>
        <pt x="415" y="570" on="1"/>
        <pt x="465" y="570" on="0"/>
        <pt x="550" y="536" on="0"/>
        <pt x="611" y="478" on="0"/>
        <pt x="646" y="396" on="0"/>
        <pt x="646" y="348" on="1"/>
        <pt x="646" y="302" on="0"/>
        <pt x="611" y="222" on="0"/>
        <pt x="549" y="164" on="0"/>
        <pt x="464" y="130" on="0"/>
        <pt x="415" y="130" on="1"/>
        <pt x="208" y="130" on="1"/>
        <pt x="208" y="0" on="1"/>
      </contour>
      <contour>
        <pt x="398" y="445" on="1"/>
        <pt x="208" y="445" on="1"/>
        <pt x="208" y="251" on="1"/>
        <pt x="398" y="251" on="1"/>
        <pt x="442" y="251" on="0"/>
        <pt x="499" y="305" on="0"/>
        <pt x="499" y="347" on="1"/>
        <pt x="499" y="390" on="0"/>
        <pt x="442" y="446" on="0"/>
      </contour>
    </TTGlyph>
    <TTGlyph name="U" xMin="52" yMin="-10" xMax="672" yMax="700">
      <contour>
        <pt x="672" y="303" on="1"/>
        <pt x="672" y="232" on="0"/>
        <pt x="628" y="115" on="0"/>
        <pt x="547" y="34" on="0"/>
        <pt x="432" y="-10" on="0"/>
        <pt x="362" y="-10" on="1"/>
        <pt x="291" y="-10" on="0"/>
        <pt x="176" y="34" on="0"/>
        <pt x="96" y="115" on="0"/>
        <pt x="52" y="231" on="0"/>
        <pt x="52" y="303" on="1"/>
        <pt x="52" y="700" on="1"/>
        <pt x="197" y="700" on="1"/>
        <pt x="197" y="303" on="1"/>
        <pt x="197" y="222" on="0"/>
        <pt x="288" y="124" on="0"/>
        <pt x="363" y="124" on="1"/>
        <pt x="438" y="124" on="0"/>
        <pt x="527" y="222" on="0"/>
        <pt x="527" y="303" on="1"/>
        <pt x="527" y="700" on="1"/>
        <pt x="672" y="700" on="1"/>
      </contour>
    </TTGlyph>
    <TTGlyph name="Uacute" xMin="52" yMin="-10" xMax="672" yMax="917">
      <component glyphName="U" x="0" y="0" flags="0x204"/>
      <component glyphName="acute" x="139" y="179" flags="0x4"/>
    </TTGlyph>
    <TTGlyph name="Ubreve" xMin="52" yMin="-10" xMax="672" yMax="936">
      <component glyphName="U" x="0" y="0" flags="0x204"/>
      <component glyphName="breve" x="104" y="179" flags="0x4"/>
    </TTGlyph>
    <TTGlyph name="Ucircumflex" xMin="52" yMin="-10" xMax="672" yMax="920">
      <component glyphName="U" x="0" y="0" flags="0x204"/>
      <component glyphName="circumflex" x="104" y="179" flags="0x4"/>
    </TTGlyph>
    <TTGlyph name="Udieresis" xMin="52" yMin="-10" xMax="672" yMax="928">
      <component glyphName="U" x="0" y="0" flags="0x204"/>
      <component glyphName="dieresis" x="69" y="179" flags="0x4"/>
    </TTGlyph>
    <TTGlyph name="Ugrave" xMin="52" yMin="-10" xMax="672" yMax="917">
      <component glyphName="U" x="0" y="0" flags="0x204"/>
      <component glyphName="grave" x="62" y="179" flags="0x4"/>
    </TTGlyph>
    <TTGlyph name="Uhungarumlaut" xMin="52" yMin="-10" xMax="672" yMax="916">
      <component glyphName="U" x="0" y="0" flags="0x204"/>
      <component glyphName="hungarumlaut" x="114" y="179" flags="0x4"/>
    </TTGlyph>
    <TTGlyph name="Umacron" xMin="52" yMin="-10" xMax="672" yMax="892">
      <component glyphName="U" x="0" y="0" flags="0x204"/>
      <component glyphName="macron" x="104" y="179" flags="0x4"/>
    </TTGlyph>
    <TTGlyph name="Uogonek" xMin="52" yMin="-221" xMax="672" yMax="700">
      <contour>
        <pt x="672" y="303" on="1"/>
        <pt x="672" y="182" on="0"/>
        <pt x="548" y="20" on="0"/>
        <pt x="442" y="-2" on="1"/>
        <pt x="397" y="-29" on="0"/>
        <pt x="355" y="-80" on="0"/>
        <pt x="355" y="-105" on="1"/>
        <pt x="355" y="-126" on="0"/>
        <pt x="382" y="-149" on="0"/>
        <pt x="405" y="-149" on="1"/>
        <pt x="415" y="-149" on="0"/>
        <pt x="437" y="-143" on="0"/>
        <pt x="445" y="-137" on="1"/>
        <pt x="464" y="-199" on="1"/>
        <pt x="447" y="-209" on="0"/>
        <pt x="403" y="-221" on="0"/>
        <pt x="381" y="-221" on="1"/>
        <pt x="333" y="-221" on="0"/>
        <pt x="275" y="-170" on="0"/>
        <pt x="275" y="-129" on="1"/>
        <pt x="275" y="-96" on="0"/>
        <pt x="312" y="-38" on="0"/>
        <pt x="352" y="-10" on="1"/>
        <pt x="215" y="-7" on="0"/>
        <pt x="52" y="162" on="0"/>
        <pt x="52" y="303" on="1"/>
        <pt x="52" y="700" on="1"/>
        <pt x="197" y="700" on="1"/>
        <pt x="197" y="303" on="1"/>
        <pt x="197" y="222" on="0"/>
        <pt x="288" y="124" on="0"/>
        <pt x="363" y="124" on="1"/>
        <pt x="438" y="124" on="0"/>
        <pt x="527" y="222" on="0"/>
        <pt x="527" y="303" on="1"/>
        <pt x="527" y="700" on="1"/>
        <pt x="672" y="700" on="1"/>
      </contour>
    </TTGlyph>
    <TTGlyph name="Uring" xMin="52" yMin="-10" xMax="672" yMax="1006">
      <component glyphName="U" x="0" y="0" flags="0x204"/>
      <component glyphName="ring" x="104" y="179" flags="0x4"/>
    </TTGlyph>
    <TTGlyph name="Utilde" xMin="52" yMin="-10" xMax="672" yMax="919">
      <component glyphName="U" x="0" y="0" flags="0x204"/>
      <component glyphName="tilde" x="105" y="179" flags="0x4"/>
    </TTGlyph>
    <TTGlyph name="V" xMin="-4" yMin="0" xMax="736" yMax="700">
      <contour>
        <pt x="280" y="0" on="1"/>
        <pt x="-4" y="700" on="1"/>
        <pt x="153" y="700" on="1"/>
        <pt x="367" y="147" on="1"/>
        <pt x="586" y="700" on="1"/>
        <pt x="736" y="700" on="1"/>
        <pt x="448" y="0" on="1"/>
      </contour>
    </TTGlyph>
    <TTGlyph name="W" xMin="26" yMin="0" xMax="918" yMax="700">
      <contour>
        <pt x="333" y="0" on="1"/>
        <pt x="181" y="0" on="1"/>
        <pt x="26" y="700" on="1"/>
        <pt x="175" y="700" on="1"/>
        <pt x="270" y="225" on="1"/>
        <pt x="407" y="700" on="1"/>
        <pt x="543" y="700" on="1"/>
        <pt x="679" y="227" on="1"/>
        <pt x="774" y="700" on="1"/>
        <pt x="918" y="700" on="1"/>
        <pt x="763" y="0" on="1"/>
        <pt x="611" y="0" on="1"/>
        <pt x="472" y="489" on="1"/>
      </contour>
    </TTGlyph>
    <TTGlyph name="Wacute" xMin="26" yMin="0" xMax="918" yMax="917">
      <component glyphName="W" x="0" y="0" flags="0x204"/>
      <component glyphName="acute" x="248" y="179" flags="0x4"/>
    </TTGlyph>
    <TTGlyph name="Wcircumflex" xMin="26" yMin="0" xMax="918" yMax="920">
      <component glyphName="W" x="0" y="0" flags="0x204"/>
      <component glyphName="circumflex" x="213" y="179" flags="0x4"/>
    </TTGlyph>
    <TTGlyph name="Wdieresis" xMin="26" yMin="0" xMax="918" yMax="928">
      <component glyphName="W" x="0" y="0" flags="0x204"/>
      <component glyphName="dieresis" x="177" y="179" flags="0x4"/>
    </TTGlyph>
    <TTGlyph name="Wgrave" xMin="26" yMin="0" xMax="918" yMax="917">
      <component glyphName="W" x="0" y="0" flags="0x204"/>
      <component glyphName="grave" x="171" y="179" flags="0x4"/>
    </TTGlyph>
    <TTGlyph name="X" xMin="-3" yMin="0" xMax="703" yMax="700">
      <contour>
        <pt x="164" y="0" on="1"/>
        <pt x="-3" y="0" on="1"/>
        <pt x="263" y="362" on="1"/>
        <pt x="11" y="700" on="1"/>
        <pt x="184" y="700" on="1"/>
        <pt x="350" y="470" on="1"/>
        <pt x="515" y="700" on="1"/>
        <pt x="682" y="700" on="1"/>
        <pt x="433" y="362" on="1"/>
        <pt x="703" y="0" on="1"/>
        <pt x="530" y="0" on="1"/>
        <pt x="347" y="255" on="1"/>
      </contour>
    </TTGlyph>
    <TTGlyph name="Y" xMin="-6" yMin="0" xMax="712" yMax="700">
      <contour>
        <pt x="280" y="0" on="1"/>
        <pt x="280" y="268" on="1"/>
        <pt x="-6" y="700" on="1"/>
        <pt x="161" y="700" on="1"/>
        <pt x="357" y="396" on="1"/>
        <pt x="554" y="700" on="1"/>
        <pt x="712" y="700" on="1"/>
        <pt x="425" y="267" on="1"/>
        <pt x="425" y="0" on="1"/>
      </contour>
    </TTGlyph>
    <TTGlyph name="Yacute" xMin="-6" yMin="0" xMax="712" yMax="917">
      <component glyphName="Y" x="0" y="0" flags="0x204"/>
      <component glyphName="acute" x="129" y="179" flags="0x4"/>
    </TTGlyph>
    <TTGlyph name="Ycircumflex" xMin="-6" yMin="0" xMax="712" yMax="920">
      <component glyphName="Y" x="0" y="0" flags="0x204"/>
      <component glyphName="circumflex" x="95" y="179" flags="0x4"/>
    </TTGlyph>
    <TTGlyph name="Ydieresis" xMin="-6" yMin="0" xMax="712" yMax="928">
      <component glyphName="Y" x="0" y="0" flags="0x204"/>
      <component glyphName="dieresis" x="59" y="179" flags="0x4"/>
    </TTGlyph>
    <TTGlyph name="Ygrave" xMin="-6" yMin="0" xMax="712" yMax="917">
      <component glyphName="Y" x="0" y="0" flags="0x204"/>
      <component glyphName="grave" x="53" y="179" flags="0x4"/>
    </TTGlyph>
    <TTGlyph name="Z" xMin="21" yMin="0" xMax="600" yMax="700">
      <contour>
        <pt x="21" y="0" on="1"/>
        <pt x="21" y="99" on="1"/>
        <pt x="407" y="574" on="1"/>
        <pt x="24" y="574" on="1"/>
        <pt x="24" y="700" on="1"/>
        <pt x="596" y="700" on="1"/>
        <pt x="596" y="601" on="1"/>
        <pt x="210" y="126" on="1"/>
        <pt x="600" y="126" on="1"/>
        <pt x="600" y="0" on="1"/>
      </contour>
    </TTGlyph>
    <TTGlyph name="Zacute" xMin="21" yMin="0" xMax="600" yMax="917">
      <component glyphName="Z" x="0" y="0" flags="0x204"/>
      <component glyphName="acute" x="93" y="179" flags="0x4"/>
    </TTGlyph>
    <TTGlyph name="Zcaron" xMin="21" yMin="0" xMax="600" yMax="920">
      <component glyphName="Z" x="0" y="0" flags="0x204"/>
      <component glyphName="caron" x="57" y="179" flags="0x4"/>
    </TTGlyph>
    <TTGlyph name="Zdotaccent" xMin="21" yMin="0" xMax="600" yMax="926">
      <component glyphName="Z" x="0" y="0" flags="0x204"/>
      <component glyphName="dotaccent" x="171" y="179" flags="0x4"/>
    </TTGlyph>
    <TTGlyph name="a" xMin="29" yMin="-9" xMax="505" yMax="531">
      <contour>
        <pt x="219" y="-9" on="1"/>
        <pt x="135" y="-9" on="0"/>
        <pt x="29" y="80" on="0"/>
        <pt x="29" y="151" on="1"/>
        <pt x="29" y="225" on="0"/>
        <pt x="143" y="309" on="0"/>
        <pt x="243" y="309" on="1"/>
        <pt x="275" y="309" on="0"/>
        <pt x="339" y="299" on="0"/>
        <pt x="370" y="289" on="1"/>
        <pt x="370" y="326" on="1"/>
        <pt x="370" y="371" on="0"/>
        <pt x="314" y="417" on="0"/>
        <pt x="260" y="417" on="1"/>
        <pt x="227" y="417" on="0"/>
        <pt x="150" y="396" on="0"/>
        <pt x="101" y="374" on="1"/>
        <pt x="51" y="475" on="1"/>
        <pt x="112" y="503" on="0"/>
        <pt x="227" y="531" on="0"/>
        <pt x="283" y="531" on="1"/>
        <pt x="388" y="531" on="0"/>
        <pt x="505" y="430" on="0"/>
        <pt x="505" y="338" on="1"/>
        <pt x="505" y="0" on="1"/>
        <pt x="370" y="0" on="1"/>
        <pt x="370" y="36" on="1"/>
        <pt x="337" y="13" on="0"/>
        <pt x="264" y="-9" on="0"/>
      </contour>
      <contour>
        <pt x="160" y="154" on="1"/>
        <pt x="160" y="124" on="0"/>
        <pt x="212" y="89" on="0"/>
        <pt x="255" y="89" on="1"/>
        <pt x="289" y="89" on="0"/>
        <pt x="346" y="106" on="0"/>
        <pt x="370" y="122" on="1"/>
        <pt x="370" y="200" on="1"/>
        <pt x="345" y="210" on="0"/>
        <pt x="290" y="219" on="0"/>
        <pt x="260" y="219" on="1"/>
        <pt x="213" y="219" on="0"/>
        <pt x="160" y="184" on="0"/>
      </contour>
    </TTGlyph>
    <TTGlyph name="a.school" xMin="30" yMin="-7" xMax="578" yMax="528">
      <contour>
        <pt x="443" y="0" on="1"/>
        <pt x="443" y="43" on="1"/>
        <pt x="412" y="18" on="0"/>
        <pt x="336" y="-7" on="0"/>
        <pt x="295" y="-7" on="1"/>
        <pt x="240" y="-7" on="0"/>
        <pt x="143" y="35" on="0"/>
        <pt x="71" y="107" on="0"/>
        <pt x="30" y="205" on="0"/>
        <pt x="30" y="261" on="1"/>
        <pt x="30" y="317" on="0"/>
        <pt x="72" y="415" on="0"/>
        <pt x="144" y="487" on="0"/>
        <pt x="243" y="528" on="0"/>
        <pt x="299" y="528" on="1"/>
        <pt x="337" y="528" on="0"/>
        <pt x="410" y="507" on="0"/>
        <pt x="441" y="487" on="1"/>
        <pt x="441" y="521" on="1"/>
        <pt x="578" y="521" on="1"/>
        <pt x="578" y="0" on="1"/>
      </contour>
      <contour>
        <pt x="165" y="261" on="1"/>
        <pt x="165" y="198" on="0"/>
        <pt x="253" y="110" on="0"/>
        <pt x="317" y="110" on="1"/>
        <pt x="355" y="110" on="0"/>
        <pt x="418" y="136" on="0"/>
        <pt x="441" y="160" on="1"/>
        <pt x="441" y="363" on="1"/>
        <pt x="419" y="386" on="0"/>
        <pt x="354" y="412" on="0"/>
        <pt x="317" y="412" on="1"/>
        <pt x="252" y="412" on="0"/>
        <pt x="165" y="325" on="0"/>
      </contour>
    </TTGlyph>
    <TTGlyph name="aacute" xMin="29" yMin="-9" xMax="505" yMax="738">
      <component glyphName="a" x="0" y="0" flags="0x204"/>
      <component glyphName="acute" x="46" y="0" flags="0x4"/>
    </TTGlyph>
    <TTGlyph name="aacute.school" xMin="30" yMin="-7" xMax="578" yMax="738">
      <component glyphName="a.school" x="0" y="0" flags="0x204"/>
      <component glyphName="acute" x="91" y="0" flags="0x4"/>
    </TTGlyph>
    <TTGlyph name="abreve" xMin="29" yMin="-9" xMax="505" yMax="757">
      <component glyphName="a" x="0" y="0" flags="0x204"/>
      <component glyphName="breve" x="11" y="0" flags="0x4"/>
    </TTGlyph>
    <TTGlyph name="abreve.school" xMin="30" yMin="-7" xMax="578" yMax="757">
      <component glyphName="a.school" x="0" y="0" flags="0x204"/>
      <component glyphName="breve" x="56" y="0" flags="0x4"/>
    </TTGlyph>
    <TTGlyph name="acircumflex" xMin="29" yMin="-9" xMax="505" yMax="741">
      <component glyphName="a" x="0" y="0" flags="0x204"/>
      <component glyphName="circumflex" x="11" y="0" flags="0x4"/>
    </TTGlyph>
    <TTGlyph name="acircumflex.school" xMin="30" yMin="-7" xMax="578" yMax="741">
      <component glyphName="a.school" x="0" y="0" flags="0x204"/>
      <component glyphName="circumflex" x="56" y="0" flags="0x4"/>
    </TTGlyph>
    <TTGlyph name="acute" xMin="154" yMin="608" xMax="400" yMax="738">
      <contour>
        <pt x="244" y="738" on="1"/>
        <pt x="400" y="738" on="1"/>
        <pt x="265" y="608" on="1"/>
        <pt x="154" y="608" on="1"/>
      </contour>
    </TTGlyph>
    <TTGlyph name="adieresis" xMin="29" yMin="-9" xMax="505" yMax="749">
      <component glyphName="a" x="0" y="0" flags="0x204"/>
      <component glyphName="dieresis" x="-24" y="0" flags="0x4"/>
    </TTGlyph>
    <TTGlyph name="adieresis.school" xMin="30" yMin="-7" xMax="578" yMax="749">
      <component glyphName="a.school" x="0" y="0" flags="0x204"/>
      <component glyphName="dieresis" x="21" y="0" flags="0x4"/>
    </TTGlyph>
    <TTGlyph name="ae" xMin="33" yMin="-10" xMax="896" yMax="531">
      <contour>
        <pt x="219" y="-9" on="1"/>
        <pt x="138" y="-9" on="0"/>
        <pt x="33" y="80" on="0"/>
        <pt x="33" y="151" on="1"/>
        <pt x="33" y="225" on="0"/>
        <pt x="145" y="309" on="0"/>
        <pt x="243" y="309" on="1"/>
        <pt x="276" y="309" on="0"/>
        <pt x="340" y="299" on="0"/>
        <pt x="370" y="289" on="1"/>
        <pt x="370" y="326" on="1"/>
        <pt x="370" y="371" on="0"/>
        <pt x="314" y="417" on="0"/>
        <pt x="260" y="417" on="1"/>
        <pt x="227" y="417" on="0"/>
        <pt x="150" y="396" on="0"/>
        <pt x="101" y="374" on="1"/>
        <pt x="51" y="475" on="1"/>
        <pt x="112" y="503" on="0"/>
        <pt x="227" y="531" on="0"/>
        <pt x="283" y="531" on="1"/>
        <pt x="345" y="531" on="0"/>
        <pt x="436" y="494" on="0"/>
        <pt x="464" y="460" on="1"/>
        <pt x="498" y="494" on="0"/>
        <pt x="587" y="530" on="0"/>
        <pt x="638" y="530" on="1"/>
        <pt x="694" y="530" on="0"/>
        <pt x="789" y="487" on="0"/>
        <pt x="857" y="413" on="0"/>
        <pt x="896" y="310" on="0"/>
        <pt x="896" y="250" on="1"/>
        <pt x="896" y="214" on="1"/>
        <pt x="509" y="214" on="1"/>
        <pt x="522" y="165" on="0"/>
        <pt x="602" y="105" on="0"/>
        <pt x="656" y="105" on="1"/>
        <pt x="691" y="105" on="0"/>
        <pt x="751" y="127" on="0"/>
        <pt x="771" y="147" on="1"/>
        <pt x="861" y="65" on="1"/>
        <pt x="813" y="26" on="0"/>
        <pt x="712" y="-10" on="0"/>
        <pt x="650" y="-10" on="1"/>
        <pt x="587" y="-10" on="0"/>
        <pt x="478" y="38" on="0"/>
        <pt x="440" y="79" on="1"/>
        <pt x="393" y="33" on="0"/>
        <pt x="286" y="-9" on="0"/>
      </contour>
      <contour>
        <pt x="635" y="417" on="1"/>
        <pt x="588" y="417" on="0"/>
        <pt x="520" y="360" on="0"/>
        <pt x="508" y="312" on="1"/>
        <pt x="763" y="312" on="1"/>
        <pt x="750" y="358" on="0"/>
        <pt x="681" y="417" on="0"/>
      </contour>
      <contour>
        <pt x="164" y="154" on="1"/>
        <pt x="164" y="124" on="0"/>
        <pt x="213" y="89" on="0"/>
        <pt x="255" y="89" on="1"/>
        <pt x="295" y="89" on="0"/>
        <pt x="364" y="118" on="0"/>
        <pt x="394" y="148" on="1"/>
        <pt x="389" y="160" on="0"/>
        <pt x="380" y="184" on="0"/>
        <pt x="377" y="197" on="1"/>
        <pt x="351" y="208" on="0"/>
        <pt x="292" y="219" on="0"/>
        <pt x="261" y="219" on="1"/>
        <pt x="215" y="219" on="0"/>
        <pt x="164" y="184" on="0"/>
      </contour>
    </TTGlyph>
    <TTGlyph name="agrave" xMin="29" yMin="-9" xMax="505" yMax="738">
      <component glyphName="a" x="0" y="0" flags="0x204"/>
      <component glyphName="grave" x="-31" y="0" flags="0x4"/>
    </TTGlyph>
    <TTGlyph name="agrave.school" xMin="30" yMin="-7" xMax="578" yMax="738">
      <component glyphName="a.school" x="0" y="0" flags="0x204"/>
      <component glyphName="grave" x="14" y="0" flags="0x4"/>
    </TTGlyph>
    <TTGlyph name="amacron" xMin="29" yMin="-9" xMax="505" yMax="713">
      <component glyphName="a" x="0" y="0" flags="0x204"/>
      <component glyphName="macron" x="11" y="0" flags="0x4"/>
    </TTGlyph>
    <TTGlyph name="amacron.school" xMin="30" yMin="-7" xMax="578" yMax="713">
      <component glyphName="a.school" x="0" y="0" flags="0x204"/>
      <component glyphName="macron" x="56" y="0" flags="0x4"/>
    </TTGlyph>
    <TTGlyph name="ampersand" xMin="24" yMin="-20" xMax="659" yMax="712">
      <contour>
        <pt x="659" y="77" on="1"/>
        <pt x="577" y="-20" on="1"/>
        <pt x="553" y="-2" on="0"/>
        <pt x="504" y="37" on="0"/>
        <pt x="479" y="57" on="1"/>
        <pt x="436" y="24" on="0"/>
        <pt x="331" y="-10" on="0"/>
        <pt x="271" y="-10" on="1"/>
        <pt x="161" y="-10" on="0"/>
        <pt x="24" y="100" on="0"/>
        <pt x="24" y="189" on="1"/>
        <pt x="24" y="254" on="0"/>
        <pt x="87" y="342" on="0"/>
        <pt x="160" y="382" on="1"/>
        <pt x="129" y="423" on="0"/>
        <pt x="102" y="495" on="0"/>
        <pt x="102" y="535" on="1"/>
        <pt x="102" y="610" on="0"/>
        <pt x="214" y="712" on="0"/>
        <pt x="298" y="712" on="1"/>
        <pt x="379" y="712" on="0"/>
        <pt x="487" y="618" on="0"/>
        <pt x="487" y="547" on="1"/>
        <pt x="487" y="501" on="0"/>
        <pt x="438" y="425" on="0"/>
        <pt x="388" y="395" on="1"/>
        <pt x="337" y="364" on="1"/>
        <pt x="366" y="333" on="0"/>
        <pt x="434" y="266" on="0"/>
        <pt x="470" y="233" on="1"/>
        <pt x="489" y="266" on="0"/>
        <pt x="517" y="345" on="0"/>
        <pt x="526" y="391" on="1"/>
        <pt x="644" y="372" on="1"/>
        <pt x="629" y="306" on="0"/>
        <pt x="587" y="198" on="0"/>
        <pt x="560" y="156" on="1"/>
        <pt x="585" y="134" on="0"/>
        <pt x="636" y="94" on="0"/>
      </contour>
      <contour>
        <pt x="225" y="538" on="1"/>
        <pt x="225" y="516" on="0"/>
        <pt x="245" y="473" on="0"/>
        <pt x="271" y="441" on="1"/>
        <pt x="312" y="466" on="1"/>
        <pt x="339" y="482" on="0"/>
        <pt x="363" y="519" on="0"/>
        <pt x="363" y="543" on="1"/>
        <pt x="363" y="571" on="0"/>
        <pt x="323" y="610" on="0"/>
        <pt x="294" y="610" on="1"/>
        <pt x="264" y="610" on="0"/>
        <pt x="225" y="569" on="0"/>
      </contour>
      <contour>
        <pt x="151" y="199" on="1"/>
        <pt x="151" y="153" on="0"/>
        <pt x="221" y="98" on="0"/>
        <pt x="281" y="98" on="1"/>
        <pt x="312" y="98" on="0"/>
        <pt x="368" y="115" on="0"/>
        <pt x="393" y="132" on="1"/>
        <pt x="348" y="173" on="0"/>
        <pt x="263" y="259" on="0"/>
        <pt x="226" y="301" on="1"/>
        <pt x="186" y="278" on="0"/>
        <pt x="151" y="230" on="0"/>
      </contour>
    </TTGlyph>
    <TTGlyph name="aogonek" xMin="29" yMin="-221" xMax="524" yMax="531">
      <contour>
        <pt x="219" y="-9" on="1"/>
        <pt x="135" y="-9" on="0"/>
        <pt x="29" y="80" on="0"/>
        <pt x="29" y="151" on="1"/>
        <pt x="29" y="225" on="0"/>
        <pt x="143" y="309" on="0"/>
        <pt x="243" y="309" on="1"/>
        <pt x="275" y="309" on="0"/>
        <pt x="339" y="299" on="0"/>
        <pt x="370" y="289" on="1"/>
        <pt x="370" y="326" on="1"/>
        <pt x="370" y="371" on="0"/>
        <pt x="314" y="417" on="0"/>
        <pt x="260" y="417" on="1"/>
        <pt x="227" y="417" on="0"/>
        <pt x="150" y="396" on="0"/>
        <pt x="101" y="374" on="1"/>
        <pt x="51" y="475" on="1"/>
        <pt x="112" y="503" on="0"/>
        <pt x="227" y="531" on="0"/>
        <pt x="283" y="531" on="1"/>
        <pt x="388" y="531" on="0"/>
        <pt x="505" y="430" on="0"/>
        <pt x="505" y="338" on="1"/>
        <pt x="505" y="0" on="1"/>
        <pt x="459" y="-28" on="0"/>
        <pt x="415" y="-79" on="0"/>
        <pt x="415" y="-105" on="1"/>
        <pt x="415" y="-126" on="0"/>
        <pt x="442" y="-149" on="0"/>
        <pt x="465" y="-149" on="1"/>
        <pt x="475" y="-149" on="0"/>
        <pt x="497" y="-143" on="0"/>
        <pt x="505" y="-137" on="1"/>
        <pt x="524" y="-199" on="1"/>
        <pt x="507" y="-209" on="0"/>
        <pt x="463" y="-221" on="0"/>
        <pt x="441" y="-221" on="1"/>
        <pt x="393" y="-221" on="0"/>
        <pt x="335" y="-170" on="0"/>
        <pt x="335" y="-129" on="1"/>
        <pt x="335" y="-93" on="0"/>
        <pt x="379" y="-31" on="0"/>
        <pt x="427" y="0" on="1"/>
        <pt x="370" y="0" on="1"/>
        <pt x="370" y="36" on="1"/>
        <pt x="337" y="13" on="0"/>
        <pt x="264" y="-9" on="0"/>
      </contour>
      <contour>
        <pt x="160" y="154" on="1"/>
        <pt x="160" y="124" on="0"/>
        <pt x="212" y="89" on="0"/>
        <pt x="255" y="89" on="1"/>
        <pt x="289" y="89" on="0"/>
        <pt x="346" y="106" on="0"/>
        <pt x="370" y="122" on="1"/>
        <pt x="370" y="200" on="1"/>
        <pt x="345" y="210" on="0"/>
        <pt x="290" y="219" on="0"/>
        <pt x="260" y="219" on="1"/>
        <pt x="213" y="219" on="0"/>
        <pt x="160" y="184" on="0"/>
      </contour>
    </TTGlyph>
    <TTGlyph name="aogonek.school" xMin="30" yMin="-221" xMax="597" yMax="528">
      <contour>
        <pt x="443" y="0" on="1"/>
        <pt x="443" y="43" on="1"/>
        <pt x="412" y="18" on="0"/>
        <pt x="336" y="-7" on="0"/>
        <pt x="295" y="-7" on="1"/>
        <pt x="240" y="-7" on="0"/>
        <pt x="143" y="35" on="0"/>
        <pt x="71" y="107" on="0"/>
        <pt x="30" y="205" on="0"/>
        <pt x="30" y="261" on="1"/>
        <pt x="30" y="317" on="0"/>
        <pt x="72" y="415" on="0"/>
        <pt x="144" y="487" on="0"/>
        <pt x="243" y="528" on="0"/>
        <pt x="299" y="528" on="1"/>
        <pt x="337" y="528" on="0"/>
        <pt x="410" y="507" on="0"/>
        <pt x="441" y="487" on="1"/>
        <pt x="441" y="521" on="1"/>
        <pt x="578" y="521" on="1"/>
        <pt x="578" y="0" on="1"/>
        <pt x="532" y="-28" on="0"/>
        <pt x="488" y="-79" on="0"/>
        <pt x="488" y="-105" on="1"/>
        <pt x="488" y="-126" on="0"/>
        <pt x="515" y="-149" on="0"/>
        <pt x="538" y="-149" on="1"/>
        <pt x="548" y="-149" on="0"/>
        <pt x="570" y="-143" on="0"/>
        <pt x="578" y="-137" on="1"/>
        <pt x="597" y="-199" on="1"/>
        <pt x="580" y="-209" on="0"/>
        <pt x="536" y="-221" on="0"/>
        <pt x="514" y="-221" on="1"/>
        <pt x="466" y="-221" on="0"/>
        <pt x="408" y="-170" on="0"/>
        <pt x="408" y="-129" on="1"/>
        <pt x="408" y="-93" on="0"/>
        <pt x="452" y="-31" on="0"/>
        <pt x="500" y="0" on="1"/>
      </contour>
      <contour>
        <pt x="165" y="261" on="1"/>
        <pt x="165" y="198" on="0"/>
        <pt x="253" y="110" on="0"/>
        <pt x="317" y="110" on="1"/>
        <pt x="355" y="110" on="0"/>
        <pt x="418" y="136" on="0"/>
        <pt x="441" y="160" on="1"/>
        <pt x="441" y="363" on="1"/>
        <pt x="419" y="386" on="0"/>
        <pt x="354" y="412" on="0"/>
        <pt x="317" y="412" on="1"/>
        <pt x="252" y="412" on="0"/>
        <pt x="165" y="325" on="0"/>
      </contour>
    </TTGlyph>
    <TTGlyph name="aring" xMin="29" yMin="-9" xMax="505" yMax="827">
      <component glyphName="a" x="0" y="0" flags="0x204"/>
      <component glyphName="ring" x="11" y="0" flags="0x4"/>
    </TTGlyph>
    <TTGlyph name="aring.school" xMin="30" yMin="-7" xMax="578" yMax="827">
      <component glyphName="a.school" x="0" y="0" flags="0x204"/>
      <component glyphName="ring" x="56" y="0" flags="0x4"/>
    </TTGlyph>
    <TTGlyph name="asciicircum" xMin="34" yMin="350" xMax="519" yMax="700">
      <contour>
        <pt x="34" y="350" on="1"/>
        <pt x="218" y="700" on="1"/>
        <pt x="335" y="700" on="1"/>
        <pt x="519" y="350" on="1"/>
        <pt x="406" y="350" on="1"/>
        <pt x="277" y="598" on="1"/>
        <pt x="147" y="350" on="1"/>
      </contour>
    </TTGlyph>
    <TTGlyph name="asciitilde" xMin="27" yMin="278" xMax="580" yMax="466">
      <contour>
        <pt x="269" y="441" on="1"/>
        <pt x="358" y="399" on="1"/>
        <pt x="380" y="389" on="0"/>
        <pt x="408" y="380" on="0"/>
        <pt x="419" y="380" on="1"/>
        <pt x="447" y="380" on="0"/>
        <pt x="479" y="419" on="0"/>
        <pt x="484" y="459" on="1"/>
        <pt x="580" y="448" on="1"/>
        <pt x="570" y="367" on="0"/>
        <pt x="493" y="278" on="0"/>
        <pt x="433" y="278" on="1"/>
        <pt x="411" y="278" on="0"/>
        <pt x="362" y="290" on="0"/>
        <pt x="337" y="303" on="1"/>
        <pt x="249" y="345" on="1"/>
        <pt x="226" y="355" on="0"/>
        <pt x="198" y="364" on="0"/>
        <pt x="187" y="364" on="1"/>
        <pt x="160" y="364" on="0"/>
        <pt x="128" y="325" on="0"/>
        <pt x="123" y="285" on="1"/>
        <pt x="27" y="296" on="1"/>
        <pt x="37" y="377" on="0"/>
        <pt x="114" y="466" on="0"/>
        <pt x="174" y="466" on="1"/>
        <pt x="196" y="466" on="0"/>
        <pt x="245" y="454" on="0"/>
      </contour>
    </TTGlyph>
    <TTGlyph name="asterisk" xMin="43" yMin="316" xMax="434" yMax="700">
      <contour>
        <pt x="384" y="367" on="1"/>
        <pt x="281" y="432" on="1"/>
        <pt x="283" y="316" on="1"/>
        <pt x="194" y="316" on="1"/>
        <pt x="196" y="432" on="1"/>
        <pt x="91" y="367" on="1"/>
        <pt x="43" y="442" on="1"/>
        <pt x="156" y="508" on="1"/>
        <pt x="43" y="575" on="1"/>
        <pt x="92" y="649" on="1"/>
        <pt x="196" y="584" on="1"/>
        <pt x="194" y="700" on="1"/>
        <pt x="283" y="700" on="1"/>
        <pt x="281" y="583" on="1"/>
        <pt x="385" y="649" on="1"/>
        <pt x="434" y="575" on="1"/>
        <pt x="321" y="508" on="1"/>
        <pt x="434" y="442" on="1"/>
      </contour>
    </TTGlyph>
    <TTGlyph name="at" xMin="41" yMin="-144" xMax="748" yMax="581">
      <contour>
        <pt x="352" y="48" on="1"/>
        <pt x="291" y="48" on="0"/>
        <pt x="207" y="138" on="0"/>
        <pt x="207" y="203" on="1"/>
        <pt x="207" y="241" on="0"/>
        <pt x="235" y="308" on="0"/>
        <pt x="282" y="357" on="0"/>
        <pt x="347" y="386" on="0"/>
        <pt x="384" y="386" on="1"/>
        <pt x="411" y="386" on="0"/>
        <pt x="459" y="369" on="0"/>
        <pt x="477" y="353" on="1"/>
        <pt x="481" y="372" on="1"/>
        <pt x="571" y="372" on="1"/>
        <pt x="528" y="169" on="1"/>
        <pt x="522" y="142" on="0"/>
        <pt x="546" y="113" on="0"/>
        <pt x="572" y="113" on="1"/>
        <pt x="619" y="113" on="0"/>
        <pt x="679" y="202" on="0"/>
        <pt x="679" y="271" on="1"/>
        <pt x="679" y="325" on="0"/>
        <pt x="638" y="417" on="0"/>
        <pt x="565" y="485" on="0"/>
        <pt x="465" y="523" on="0"/>
        <pt x="407" y="523" on="1"/>
        <pt x="344" y="523" on="0"/>
        <pt x="234" y="475" on="0"/>
        <pt x="155" y="392" on="0"/>
        <pt x="109" y="278" on="0"/>
        <pt x="109" y="213" on="1"/>
        <pt x="109" y="148" on="0"/>
        <pt x="153" y="40" on="0"/>
        <pt x="233" y="-38" on="0"/>
        <pt x="344" y="-81" on="0"/>
        <pt x="410" y="-81" on="1"/>
        <pt x="456" y="-81" on="0"/>
        <pt x="539" y="-63" on="0"/>
        <pt x="575" y="-44" on="1"/>
        <pt x="601" y="-100" on="1"/>
        <pt x="554" y="-122" on="0"/>
        <pt x="460" y="-144" on="0"/>
        <pt x="410" y="-144" on="1"/>
        <pt x="331" y="-144" on="0"/>
        <pt x="195" y="-91" on="0"/>
        <pt x="97" y="2" on="0"/>
        <pt x="41" y="132" on="0"/>
        <pt x="41" y="207" on="1"/>
        <pt x="41" y="287" on="0"/>
        <pt x="97" y="424" on="0"/>
        <pt x="195" y="524" on="0"/>
        <pt x="331" y="581" on="0"/>
        <pt x="410" y="581" on="1"/>
        <pt x="481" y="581" on="0"/>
        <pt x="605" y="534" on="0"/>
        <pt x="696" y="452" on="0"/>
        <pt x="748" y="340" on="0"/>
        <pt x="748" y="276" on="1"/>
        <pt x="748" y="226" on="0"/>
        <pt x="720" y="142" on="0"/>
        <pt x="670" y="82" on="0"/>
        <pt x="600" y="48" on="0"/>
        <pt x="559" y="48" on="1"/>
        <pt x="523" y="48" on="0"/>
        <pt x="471" y="70" on="0"/>
        <pt x="457" y="89" on="1"/>
        <pt x="434" y="70" on="0"/>
        <pt x="380" y="48" on="0"/>
      </contour>
      <contour>
        <pt x="293" y="210" on="1"/>
        <pt x="293" y="171" on="0"/>
        <pt x="338" y="122" on="0"/>
        <pt x="373" y="122" on="1"/>
        <pt x="391" y="122" on="0"/>
        <pt x="425" y="135" on="0"/>
        <pt x="439" y="148" on="1"/>
        <pt x="439" y="154" on="0"/>
        <pt x="441" y="171" on="0"/>
        <pt x="443" y="181" on="1"/>
        <pt x="461" y="273" on="1"/>
        <pt x="449" y="291" on="0"/>
        <pt x="411" y="310" on="0"/>
        <pt x="386" y="310" on="1"/>
        <pt x="349" y="310" on="0"/>
        <pt x="293" y="251" on="0"/>
      </contour>
    </TTGlyph>
    <TTGlyph name="at.cap" xMin="41" yMin="-13" xMax="748" yMax="712">
      <component glyphName="at" x="0" y="131" flags="0x4"/>
    </TTGlyph>
    <TTGlyph name="atilde" xMin="29" yMin="-9" xMax="505" yMax="740">
      <component glyphName="a" x="0" y="0" flags="0x204"/>
      <component glyphName="tilde" x="12" y="0" flags="0x4"/>
    </TTGlyph>
    <TTGlyph name="atilde.school" xMin="30" yMin="-7" xMax="578" yMax="740">
      <component glyphName="a.school" x="0" y="0" flags="0x204"/>
      <component glyphName="tilde" x="58" y="0" flags="0x4"/>
    </TTGlyph>
    <TTGlyph name="b" xMin="54" yMin="-7" xMax="602" yMax="730">
      <contour>
        <pt x="602" y="260" on="1"/>
        <pt x="602" y="204" on="0"/>
        <pt x="560" y="106" on="0"/>
        <pt x="488" y="34" on="0"/>
        <pt x="389" y="-7" on="0"/>
        <pt x="333" y="-7" on="1"/>
        <pt x="294" y="-7" on="0"/>
        <pt x="220" y="15" on="0"/>
        <pt x="189" y="35" on="1"/>
        <pt x="189" y="0" on="1"/>
        <pt x="54" y="0" on="1"/>
        <pt x="54" y="700" on="1"/>
        <pt x="191" y="730" on="1"/>
        <pt x="191" y="480" on="1"/>
        <pt x="222" y="503" on="0"/>
        <pt x="297" y="528" on="0"/>
        <pt x="337" y="528" on="1"/>
        <pt x="392" y="528" on="0"/>
        <pt x="489" y="486" on="0"/>
        <pt x="561" y="414" on="0"/>
        <pt x="602" y="316" on="0"/>
      </contour>
      <contour>
        <pt x="315" y="411" on="1"/>
        <pt x="278" y="411" on="0"/>
        <pt x="214" y="386" on="0"/>
        <pt x="191" y="362" on="1"/>
        <pt x="191" y="157" on="1"/>
        <pt x="213" y="135" on="0"/>
        <pt x="278" y="109" on="0"/>
        <pt x="315" y="109" on="1"/>
        <pt x="379" y="109" on="0"/>
        <pt x="467" y="196" on="0"/>
        <pt x="467" y="260" on="1"/>
        <pt x="467" y="324" on="0"/>
        <pt x="378" y="411" on="0"/>
      </contour>
    </TTGlyph>
    <TTGlyph name="backslash" xMin="21" yMin="-209" xMax="588" yMax="700">
      <contour>
        <pt x="588" y="-209" on="1"/>
        <pt x="444" y="-209" on="1"/>
        <pt x="21" y="700" on="1"/>
        <pt x="165" y="700" on="1"/>
      </contour>
    </TTGlyph>
    <TTGlyph name="bar" xMin="99" yMin="-212" xMax="226" yMax="700">
      <contour>
        <pt x="99" y="-212" on="1"/>
        <pt x="99" y="700" on="1"/>
        <pt x="226" y="700" on="1"/>
        <pt x="226" y="-212" on="1"/>
      </contour>
    </TTGlyph>
    <TTGlyph name="braceleft" xMin="16" yMin="-218" xMax="389" yMax="710">
      <contour>
        <pt x="289" y="85" on="1"/>
        <pt x="252" y="-15" on="1"/>
        <pt x="236" y="-57" on="0"/>
        <pt x="267" y="-113" on="0"/>
        <pt x="307" y="-113" on="1"/>
        <pt x="323" y="-113" on="0"/>
        <pt x="353" y="-108" on="0"/>
        <pt x="369" y="-102" on="1"/>
        <pt x="389" y="-201" on="1"/>
        <pt x="364" y="-209" on="0"/>
        <pt x="315" y="-218" on="0"/>
        <pt x="290" y="-218" on="1"/>
        <pt x="240" y="-218" on="0"/>
        <pt x="166" y="-186" on="0"/>
        <pt x="123" y="-130" on="0"/>
        <pt x="116" y="-54" on="0"/>
        <pt x="132" y="-10" on="1"/>
        <pt x="166" y="81" on="1"/>
        <pt x="185" y="130" on="0"/>
        <pt x="147" y="195" on="0"/>
        <pt x="99" y="195" on="1"/>
        <pt x="16" y="195" on="1"/>
        <pt x="16" y="297" on="1"/>
        <pt x="99" y="297" on="1"/>
        <pt x="147" y="297" on="0"/>
        <pt x="185" y="362" on="0"/>
        <pt x="166" y="411" on="1"/>
        <pt x="132" y="502" on="1"/>
        <pt x="116" y="546" on="0"/>
        <pt x="123" y="623" on="0"/>
        <pt x="166" y="678" on="0"/>
        <pt x="240" y="710" on="0"/>
        <pt x="290" y="710" on="1"/>
        <pt x="315" y="710" on="0"/>
        <pt x="364" y="701" on="0"/>
        <pt x="389" y="693" on="1"/>
        <pt x="369" y="595" on="1"/>
        <pt x="353" y="600" on="0"/>
        <pt x="323" y="606" on="0"/>
        <pt x="307" y="606" on="1"/>
        <pt x="267" y="605" on="0"/>
        <pt x="236" y="549" on="0"/>
        <pt x="252" y="507" on="1"/>
        <pt x="289" y="407" on="1"/>
        <pt x="310" y="350" on="0"/>
        <pt x="251" y="259" on="0"/>
        <pt x="188" y="246" on="1"/>
        <pt x="251" y="233" on="0"/>
        <pt x="310" y="142" on="0"/>
      </contour>
    </TTGlyph>
    <TTGlyph name="braceright" xMin="40" yMin="-217" xMax="413" yMax="711">
      <contour>
        <pt x="140" y="408" on="1"/>
        <pt x="177" y="508" on="1"/>
        <pt x="193" y="550" on="0"/>
        <pt x="162" y="606" on="0"/>
        <pt x="122" y="606" on="1"/>
        <pt x="106" y="606" on="0"/>
        <pt x="76" y="601" on="0"/>
        <pt x="60" y="595" on="1"/>
        <pt x="40" y="694" on="1"/>
        <pt x="65" y="702" on="0"/>
        <pt x="114" y="711" on="0"/>
        <pt x="139" y="711" on="1"/>
        <pt x="189" y="711" on="0"/>
        <pt x="263" y="679" on="0"/>
        <pt x="306" y="623" on="0"/>
        <pt x="313" y="547" on="0"/>
        <pt x="297" y="503" on="1"/>
        <pt x="263" y="412" on="1"/>
        <pt x="244" y="363" on="0"/>
        <pt x="282" y="298" on="0"/>
        <pt x="330" y="298" on="1"/>
        <pt x="413" y="298" on="1"/>
        <pt x="413" y="196" on="1"/>
        <pt x="330" y="196" on="1"/>
        <pt x="282" y="196" on="0"/>
        <pt x="244" y="131" on="0"/>
        <pt x="263" y="82" on="1"/>
        <pt x="297" y="-9" on="1"/>
        <pt x="313" y="-53" on="0"/>
        <pt x="306" y="-130" on="0"/>
        <pt x="263" y="-185" on="0"/>
        <pt x="189" y="-217" on="0"/>
        <pt x="139" y="-217" on="1"/>
        <pt x="114" y="-217" on="0"/>
        <pt x="65" y="-208" on="0"/>
        <pt x="40" y="-200" on="1"/>
        <pt x="60" y="-102" on="1"/>
        <pt x="76" y="-107" on="0"/>
        <pt x="106" y="-113" on="0"/>
        <pt x="122" y="-113" on="1"/>
        <pt x="162" y="-112" on="0"/>
        <pt x="193" y="-56" on="0"/>
        <pt x="177" y="-14" on="1"/>
        <pt x="140" y="86" on="1"/>
        <pt x="119" y="143" on="0"/>
        <pt x="178" y="234" on="0"/>
        <pt x="241" y="247" on="1"/>
        <pt x="178" y="260" on="0"/>
        <pt x="119" y="351" on="0"/>
      </contour>
    </TTGlyph>
    <TTGlyph name="bracketleft" xMin="56" yMin="-213" xMax="356" yMax="700">
      <contour>
        <pt x="356" y="-213" on="1"/>
        <pt x="56" y="-213" on="1"/>
        <pt x="56" y="700" on="1"/>
        <pt x="356" y="700" on="1"/>
        <pt x="356" y="593" on="1"/>
        <pt x="186" y="593" on="1"/>
        <pt x="186" y="-105" on="1"/>
        <pt x="356" y="-105" on="1"/>
      </contour>
    </TTGlyph>
    <TTGlyph name="bracketright" xMin="38" yMin="-213" xMax="338" yMax="700">
      <contour>
        <pt x="38" y="700" on="1"/>
        <pt x="338" y="700" on="1"/>
        <pt x="338" y="-213" on="1"/>
        <pt x="38" y="-213" on="1"/>
        <pt x="38" y="-106" on="1"/>
        <pt x="208" y="-106" on="1"/>
        <pt x="208" y="592" on="1"/>
        <pt x="38" y="592" on="1"/>
      </contour>
    </TTGlyph>
    <TTGlyph name="breve" xMin="83" yMin="600" xMax="434" yMax="757">
      <contour>
        <pt x="258" y="677" on="1"/>
        <pt x="292" y="677" on="0"/>
        <pt x="338" y="717" on="0"/>
        <pt x="350" y="757" on="1"/>
        <pt x="434" y="735" on="1"/>
        <pt x="418" y="671" on="0"/>
        <pt x="326" y="600" on="0"/>
        <pt x="258" y="600" on="1"/>
        <pt x="191" y="600" on="0"/>
        <pt x="99" y="671" on="0"/>
        <pt x="83" y="735" on="1"/>
        <pt x="167" y="757" on="1"/>
        <pt x="180" y="717" on="0"/>
        <pt x="225" y="677" on="0"/>
      </contour>
    </TTGlyph>
    <TTGlyph name="bullet" xMin="60" yMin="216" xMax="295" yMax="447">
      <contour>
        <pt x="177" y="216" on="1"/>
        <pt x="128" y="216" on="0"/>
        <pt x="60" y="283" on="0"/>
        <pt x="60" y="331" on="1"/>
        <pt x="60" y="380" on="0"/>
        <pt x="128" y="447" on="0"/>
        <pt x="177" y="447" on="1"/>
        <pt x="226" y="447" on="0"/>
        <pt x="295" y="380" on="0"/>
        <pt x="295" y="331" on="1"/>
        <pt x="295" y="283" on="0"/>
        <pt x="226" y="216" on="0"/>
      </contour>
    </TTGlyph>
    <TTGlyph name="c" xMin="30" yMin="-10" xMax="519" yMax="531">
      <contour>
        <pt x="309" y="110" on="1"/>
        <pt x="344" y="110" on="0"/>
        <pt x="405" y="138" on="0"/>
        <pt x="433" y="168" on="1"/>
        <pt x="515" y="83" on="1"/>
        <pt x="475" y="39" on="0"/>
        <pt x="363" y="-10" on="0"/>
        <pt x="303" y="-10" on="1"/>
        <pt x="246" y="-10" on="0"/>
        <pt x="145" y="32" on="0"/>
        <pt x="72" y="104" on="0"/>
        <pt x="30" y="203" on="0"/>
        <pt x="30" y="260" on="1"/>
        <pt x="30" y="317" on="0"/>
        <pt x="72" y="416" on="0"/>
        <pt x="145" y="489" on="0"/>
        <pt x="246" y="531" on="0"/>
        <pt x="303" y="531" on="1"/>
        <pt x="365" y="531" on="0"/>
        <pt x="479" y="482" on="0"/>
        <pt x="519" y="438" on="1"/>
        <pt x="435" y="349" on="1"/>
        <pt x="407" y="380" on="0"/>
        <pt x="343" y="412" on="0"/>
        <pt x="306" y="412" on="1"/>
        <pt x="247" y="412" on="0"/>
        <pt x="166" y="324" on="0"/>
        <pt x="166" y="260" on="1"/>
        <pt x="166" y="196" on="0"/>
        <pt x="249" y="110" on="0"/>
      </contour>
    </TTGlyph>
    <TTGlyph name="cacute" xMin="30" yMin="-10" xMax="519" yMax="738">
      <component glyphName="c" x="0" y="0" flags="0x204"/>
      <component glyphName="acute" x="77" y="0" flags="0x4"/>
    </TTGlyph>
    <TTGlyph name="caron" xMin="74" yMin="606" xMax="444" yMax="741">
      <contour>
        <pt x="187" y="741" on="1"/>
        <pt x="261" y="668" on="1"/>
        <pt x="334" y="741" on="1"/>
        <pt x="444" y="741" on="1"/>
        <pt x="329" y="606" on="1"/>
        <pt x="189" y="606" on="1"/>
        <pt x="74" y="741" on="1"/>
      </contour>
    </TTGlyph>
    <TTGlyph name="caronSlovak" xMin="109" yMin="478" xMax="250" yMax="720">
      <contour>
        <pt x="117" y="720" on="1"/>
        <pt x="250" y="720" on="1"/>
        <pt x="200" y="478" on="1"/>
        <pt x="109" y="478" on="1"/>
      </contour>
    </TTGlyph>
    <TTGlyph name="ccaron" xMin="30" yMin="-10" xMax="519" yMax="741">
      <component glyphName="c" x="0" y="0" flags="0x204"/>
      <component glyphName="caron" x="41" y="0" flags="0x4"/>
    </TTGlyph>
    <TTGlyph name="ccedilla" xMin="30" yMin="-236" xMax="519" yMax="531">
      <contour>
        <pt x="309" y="110" on="1"/>
        <pt x="344" y="110" on="0"/>
        <pt x="405" y="138" on="0"/>
        <pt x="433" y="168" on="1"/>
        <pt x="515" y="83" on="1"/>
        <pt x="480" y="45" on="0"/>
        <pt x="386" y="-3" on="0"/>
        <pt x="335" y="-8" on="1"/>
        <pt x="323" y="-46" on="1"/>
        <pt x="366" y="-50" on="0"/>
        <pt x="418" y="-98" on="0"/>
        <pt x="418" y="-135" on="1"/>
        <pt x="418" y="-178" on="0"/>
        <pt x="343" y="-236" on="0"/>
        <pt x="286" y="-236" on="1"/>
        <pt x="249" y="-236" on="0"/>
        <pt x="186" y="-213" on="0"/>
        <pt x="161" y="-191" on="1"/>
        <pt x="206" y="-143" on="1"/>
        <pt x="224" y="-157" on="0"/>
        <pt x="263" y="-172" on="0"/>
        <pt x="284" y="-172" on="1"/>
        <pt x="310" y="-172" on="0"/>
        <pt x="338" y="-152" on="0"/>
        <pt x="338" y="-134" on="1"/>
        <pt x="338" y="-117" on="0"/>
        <pt x="309" y="-97" on="0"/>
        <pt x="284" y="-97" on="1"/>
        <pt x="242" y="-97" on="1"/>
        <pt x="268" y="-8" on="1"/>
        <pt x="217" y="-2" on="0"/>
        <pt x="129" y="45" on="0"/>
        <pt x="66" y="115" on="0"/>
        <pt x="30" y="208" on="0"/>
        <pt x="30" y="260" on="1"/>
        <pt x="30" y="317" on="0"/>
        <pt x="72" y="416" on="0"/>
        <pt x="145" y="489" on="0"/>
        <pt x="246" y="531" on="0"/>
        <pt x="303" y="531" on="1"/>
        <pt x="365" y="531" on="0"/>
        <pt x="479" y="482" on="0"/>
        <pt x="519" y="438" on="1"/>
        <pt x="435" y="349" on="1"/>
        <pt x="407" y="380" on="0"/>
        <pt x="343" y="412" on="0"/>
        <pt x="306" y="412" on="1"/>
        <pt x="247" y="412" on="0"/>
        <pt x="166" y="324" on="0"/>
        <pt x="166" y="260" on="1"/>
        <pt x="166" y="196" on="0"/>
        <pt x="249" y="110" on="0"/>
      </contour>
    </TTGlyph>
    <TTGlyph name="ccircumflex" xMin="30" yMin="-10" xMax="519" yMax="741">
      <component glyphName="c" x="0" y="0" flags="0x204"/>
      <component glyphName="circumflex" x="43" y="0" flags="0x4"/>
    </TTGlyph>
    <TTGlyph name="cdotaccent" xMin="30" yMin="-10" xMax="519" yMax="747">
      <component glyphName="c" x="0" y="0" flags="0x204"/>
      <component glyphName="dotaccent" x="156" y="0" flags="0x4"/>
    </TTGlyph>
    <TTGlyph name="cedilla" xMin="146" yMin="-236" xMax="403" yMax="0">
      <contour>
        <pt x="403" y="-135" on="1"/>
        <pt x="403" y="-178" on="0"/>
        <pt x="328" y="-236" on="0"/>
        <pt x="271" y="-236" on="1"/>
        <pt x="234" y="-236" on="0"/>
        <pt x="171" y="-213" on="0"/>
        <pt x="146" y="-191" on="1"/>
        <pt x="191" y="-143" on="1"/>
        <pt x="209" y="-157" on="0"/>
        <pt x="248" y="-172" on="0"/>
        <pt x="269" y="-172" on="1"/>
        <pt x="295" y="-172" on="0"/>
        <pt x="323" y="-152" on="0"/>
        <pt x="323" y="-134" on="1"/>
        <pt x="323" y="-117" on="0"/>
        <pt x="294" y="-97" on="0"/>
        <pt x="269" y="-97" on="1"/>
        <pt x="227" y="-97" on="1"/>
        <pt x="255" y="0" on="1"/>
        <pt x="322" y="0" on="1"/>
        <pt x="308" y="-46" on="1"/>
        <pt x="351" y="-50" on="0"/>
        <pt x="403" y="-98" on="0"/>
      </contour>
    </TTGlyph>
    <TTGlyph name="cent" xMin="30" yMin="-110" xMax="519" yMax="623">
      <contour>
        <pt x="272" y="-110" on="1"/>
        <pt x="272" y="-8" on="1"/>
        <pt x="220" y="-3" on="0"/>
        <pt x="131" y="43" on="0"/>
        <pt x="67" y="113" on="0"/>
        <pt x="30" y="207" on="0"/>
        <pt x="30" y="260" on="1"/>
        <pt x="30" y="313" on="0"/>
        <pt x="67" y="407" on="0"/>
        <pt x="131" y="478" on="0"/>
        <pt x="220" y="524" on="0"/>
        <pt x="272" y="529" on="1"/>
        <pt x="272" y="623" on="1"/>
        <pt x="334" y="623" on="1"/>
        <pt x="334" y="529" on="1"/>
        <pt x="387" y="524" on="0"/>
        <pt x="484" y="477" on="0"/>
        <pt x="519" y="438" on="1"/>
        <pt x="435" y="349" on="1"/>
        <pt x="412" y="374" on="0"/>
        <pt x="362" y="405" on="0"/>
        <pt x="334" y="410" on="1"/>
        <pt x="334" y="112" on="1"/>
        <pt x="361" y="116" on="0"/>
        <pt x="411" y="143" on="0"/>
        <pt x="433" y="168" on="1"/>
        <pt x="515" y="83" on="1"/>
        <pt x="480" y="45" on="0"/>
        <pt x="385" y="-3" on="0"/>
        <pt x="334" y="-8" on="1"/>
        <pt x="334" y="-110" on="1"/>
      </contour>
      <contour>
        <pt x="166" y="260" on="1"/>
        <pt x="166" y="206" on="0"/>
        <pt x="226" y="127" on="0"/>
        <pt x="272" y="115" on="1"/>
        <pt x="272" y="408" on="1"/>
        <pt x="226" y="396" on="0"/>
        <pt x="166" y="314" on="0"/>
      </contour>
    </TTGlyph>
    <TTGlyph name="circumflex" xMin="74" yMin="605" xMax="444" yMax="741">
      <contour>
        <pt x="332" y="605" on="1"/>
        <pt x="258" y="679" on="1"/>
        <pt x="184" y="605" on="1"/>
        <pt x="74" y="605" on="1"/>
        <pt x="189" y="741" on="1"/>
        <pt x="329" y="741" on="1"/>
        <pt x="444" y="605" on="1"/>
      </contour>
    </TTGlyph>
    <TTGlyph name="colon" xMin="39" yMin="-10" xMax="202" yMax="531">
      <component glyphName="period" x="0" y="0" flags="0x204"/>
      <component glyphName="period" x="0" y="378" flags="0x4"/>
    </TTGlyph>
    <TTGlyph name="comma" xMin="-2" yMin="-151" xMax="209" yMax="112">
      <contour>
        <pt x="67" y="112" on="1"/>
        <pt x="209" y="112" on="1"/>
        <pt x="101" y="-151" on="1"/>
        <pt x="-2" y="-151" on="1"/>
      </contour>
    </TTGlyph>
    <TTGlyph name="commaaccent" xMin="17" yMin="-286" xMax="197" yMax="-81">
      <contour>
        <pt x="68" y="-81" on="1"/>
        <pt x="197" y="-81" on="1"/>
        <pt x="116" y="-286" on="1"/>
        <pt x="17" y="-286" on="1"/>
      </contour>
    </TTGlyph>
    <TTGlyph name="copyright" xMin="36" yMin="-11" xMax="752" yMax="711">
      <contour>
        <pt x="36" y="350" on="1"/>
        <pt x="36" y="425" on="0"/>
        <pt x="92" y="558" on="0"/>
        <pt x="188" y="655" on="0"/>
        <pt x="319" y="711" on="0"/>
        <pt x="394" y="711" on="1"/>
        <pt x="469" y="711" on="0"/>
        <pt x="600" y="655" on="0"/>
        <pt x="696" y="558" on="0"/>
        <pt x="752" y="425" on="0"/>
        <pt x="752" y="350" on="1"/>
        <pt x="752" y="275" on="0"/>
        <pt x="696" y="142" on="0"/>
        <pt x="600" y="45" on="0"/>
        <pt x="469" y="-11" on="0"/>
        <pt x="394" y="-11" on="1"/>
        <pt x="319" y="-11" on="0"/>
        <pt x="188" y="45" on="0"/>
        <pt x="92" y="142" on="0"/>
        <pt x="36" y="275" on="0"/>
      </contour>
      <contour>
        <pt x="688" y="350" on="1"/>
        <pt x="688" y="412" on="0"/>
        <pt x="642" y="523" on="0"/>
        <pt x="562" y="604" on="0"/>
        <pt x="455" y="651" on="0"/>
        <pt x="394" y="651" on="1"/>
        <pt x="333" y="651" on="0"/>
        <pt x="226" y="604" on="0"/>
        <pt x="147" y="523" on="0"/>
        <pt x="101" y="412" on="0"/>
        <pt x="101" y="350" on="1"/>
        <pt x="101" y="288" on="0"/>
        <pt x="147" y="177" on="0"/>
        <pt x="226" y="96" on="0"/>
        <pt x="333" y="49" on="0"/>
        <pt x="394" y="49" on="1"/>
        <pt x="455" y="49" on="0"/>
        <pt x="562" y="96" on="0"/>
        <pt x="642" y="177" on="0"/>
        <pt x="688" y="288" on="0"/>
      </contour>
      <contour>
        <pt x="211" y="351" on="1"/>
        <pt x="211" y="391" on="0"/>
        <pt x="241" y="460" on="0"/>
        <pt x="292" y="511" on="0"/>
        <pt x="362" y="540" on="0"/>
        <pt x="402" y="540" on="1"/>
        <pt x="445" y="540" on="0"/>
        <pt x="525" y="506" on="0"/>
        <pt x="553" y="475" on="1"/>
        <pt x="494" y="413" on="1"/>
        <pt x="474" y="435" on="0"/>
        <pt x="430" y="456" on="0"/>
        <pt x="405" y="456" on="1"/>
        <pt x="364" y="456" on="0"/>
        <pt x="308" y="396" on="0"/>
        <pt x="308" y="351" on="1"/>
        <pt x="308" y="306" on="0"/>
        <pt x="364" y="247" on="0"/>
        <pt x="406" y="247" on="1"/>
        <pt x="431" y="247" on="0"/>
        <pt x="473" y="267" on="0"/>
        <pt x="492" y="288" on="1"/>
        <pt x="550" y="227" on="1"/>
        <pt x="522" y="196" on="0"/>
        <pt x="445" y="162" on="0"/>
        <pt x="402" y="162" on="1"/>
        <pt x="362" y="162" on="0"/>
        <pt x="292" y="191" on="0"/>
        <pt x="241" y="242" on="0"/>
        <pt x="211" y="311" on="0"/>
      </contour>
    </TTGlyph>
    <TTGlyph name="cordinal" xMin="29" yMin="300" xMax="399" yMax="708">
      <contour>
        <pt x="240" y="394" on="1"/>
        <pt x="266" y="394" on="0"/>
        <pt x="311" y="416" on="0"/>
        <pt x="331" y="438" on="1"/>
        <pt x="396" y="370" on="1"/>
        <pt x="366" y="337" on="0"/>
        <pt x="282" y="300" on="0"/>
        <pt x="236" y="300" on="1"/>
        <pt x="192" y="300" on="0"/>
        <pt x="116" y="332" on="0"/>
        <pt x="61" y="386" on="0"/>
        <pt x="29" y="460" on="0"/>
        <pt x="29" y="503" on="1"/>
        <pt x="29" y="546" on="0"/>
        <pt x="61" y="621" on="0"/>
        <pt x="116" y="676" on="0"/>
        <pt x="192" y="708" on="0"/>
        <pt x="236" y="708" on="1"/>
        <pt x="283" y="708" on="0"/>
        <pt x="369" y="670" on="0"/>
        <pt x="399" y="637" on="1"/>
        <pt x="333" y="567" on="1"/>
        <pt x="311" y="591" on="0"/>
        <pt x="265" y="613" on="0"/>
        <pt x="238" y="613" on="1"/>
        <pt x="195" y="613" on="0"/>
        <pt x="137" y="549" on="0"/>
        <pt x="137" y="503" on="1"/>
        <pt x="137" y="457" on="0"/>
        <pt x="196" y="394" on="0"/>
      </contour>
    </TTGlyph>
    <TTGlyph name="d" xMin="30" yMin="-7" xMax="578" yMax="730">
      <contour>
        <pt x="443" y="0" on="1"/>
        <pt x="443" y="43" on="1"/>
        <pt x="412" y="18" on="0"/>
        <pt x="336" y="-7" on="0"/>
        <pt x="295" y="-7" on="1"/>
        <pt x="240" y="-7" on="0"/>
        <pt x="143" y="35" on="0"/>
        <pt x="71" y="107" on="0"/>
        <pt x="30" y="205" on="0"/>
        <pt x="30" y="261" on="1"/>
        <pt x="30" y="317" on="0"/>
        <pt x="72" y="415" on="0"/>
        <pt x="144" y="487" on="0"/>
        <pt x="243" y="528" on="0"/>
        <pt x="299" y="528" on="1"/>
        <pt x="337" y="528" on="0"/>
        <pt x="410" y="507" on="0"/>
        <pt x="441" y="487" on="1"/>
        <pt x="441" y="700" on="1"/>
        <pt x="578" y="730" on="1"/>
        <pt x="578" y="0" on="1"/>
      </contour>
      <contour>
        <pt x="165" y="261" on="1"/>
        <pt x="165" y="198" on="0"/>
        <pt x="253" y="110" on="0"/>
        <pt x="317" y="110" on="1"/>
        <pt x="355" y="110" on="0"/>
        <pt x="418" y="136" on="0"/>
        <pt x="441" y="160" on="1"/>
        <pt x="441" y="363" on="1"/>
        <pt x="419" y="386" on="0"/>
        <pt x="354" y="412" on="0"/>
        <pt x="317" y="412" on="1"/>
        <pt x="252" y="412" on="0"/>
        <pt x="165" y="325" on="0"/>
      </contour>
    </TTGlyph>
    <TTGlyph name="dagger" xMin="49" yMin="0" xMax="401" yMax="700">
      <contour>
        <pt x="170" y="0" on="1"/>
        <pt x="170" y="413" on="1"/>
        <pt x="49" y="413" on="1"/>
        <pt x="49" y="519" on="1"/>
        <pt x="170" y="519" on="1"/>
        <pt x="170" y="700" on="1"/>
        <pt x="281" y="700" on="1"/>
        <pt x="281" y="519" on="1"/>
        <pt x="401" y="519" on="1"/>
        <pt x="401" y="413" on="1"/>
        <pt x="281" y="413" on="1"/>
        <pt x="281" y="0" on="1"/>
      </contour>
    </TTGlyph>
    <TTGlyph name="daggerdbl" xMin="49" yMin="0" xMax="401" yMax="700">
      <contour>
        <pt x="170" y="0" on="1"/>
        <pt x="170" y="181" on="1"/>
        <pt x="49" y="181" on="1"/>
        <pt x="49" y="287" on="1"/>
        <pt x="170" y="287" on="1"/>
        <pt x="170" y="413" on="1"/>
        <pt x="49" y="413" on="1"/>
        <pt x="49" y="519" on="1"/>
        <pt x="170" y="519" on="1"/>
        <pt x="170" y="700" on="1"/>
        <pt x="281" y="700" on="1"/>
        <pt x="281" y="519" on="1"/>
        <pt x="401" y="519" on="1"/>
        <pt x="401" y="413" on="1"/>
        <pt x="281" y="413" on="1"/>
        <pt x="281" y="287" on="1"/>
        <pt x="401" y="287" on="1"/>
        <pt x="401" y="181" on="1"/>
        <pt x="281" y="181" on="1"/>
        <pt x="281" y="0" on="1"/>
      </contour>
    </TTGlyph>
    <TTGlyph name="dcaron" xMin="30" yMin="-7" xMax="789" yMax="730">
      <component glyphName="d" x="0" y="0" flags="0x4"/>
      <component glyphName="caronSlovak" x="539" y="0" flags="0x4"/>
    </TTGlyph>
    <TTGlyph name="dcroat" xMin="30" yMin="-7" xMax="633" yMax="730">
      <contour>
        <pt x="443" y="0" on="1"/>
        <pt x="443" y="43" on="1"/>
        <pt x="412" y="18" on="0"/>
        <pt x="336" y="-7" on="0"/>
        <pt x="295" y="-7" on="1"/>
        <pt x="240" y="-7" on="0"/>
        <pt x="143" y="35" on="0"/>
        <pt x="71" y="107" on="0"/>
        <pt x="30" y="205" on="0"/>
        <pt x="30" y="261" on="1"/>
        <pt x="30" y="317" on="0"/>
        <pt x="72" y="415" on="0"/>
        <pt x="144" y="487" on="0"/>
        <pt x="243" y="528" on="0"/>
        <pt x="299" y="528" on="1"/>
        <pt x="337" y="528" on="0"/>
        <pt x="410" y="507" on="0"/>
        <pt x="441" y="487" on="1"/>
        <pt x="441" y="579" on="1"/>
        <pt x="301" y="579" on="1"/>
        <pt x="301" y="663" on="1"/>
        <pt x="441" y="663" on="1"/>
        <pt x="441" y="700" on="1"/>
        <pt x="578" y="730" on="1"/>
        <pt x="578" y="663" on="1"/>
        <pt x="633" y="663" on="1"/>
        <pt x="633" y="579" on="1"/>
        <pt x="578" y="579" on="1"/>
        <pt x="578" y="0" on="1"/>
      </contour>
      <contour>
        <pt x="165" y="261" on="1"/>
        <pt x="165" y="198" on="0"/>
        <pt x="253" y="110" on="0"/>
        <pt x="317" y="110" on="1"/>
        <pt x="355" y="110" on="0"/>
        <pt x="418" y="136" on="0"/>
        <pt x="441" y="160" on="1"/>
        <pt x="441" y="363" on="1"/>
        <pt x="419" y="386" on="0"/>
        <pt x="354" y="412" on="0"/>
        <pt x="317" y="412" on="1"/>
        <pt x="252" y="412" on="0"/>
        <pt x="165" y="325" on="0"/>
      </contour>
    </TTGlyph>
    <TTGlyph name="degree" xMin="42" yMin="418" xMax="333" yMax="710">
      <contour>
        <pt x="188" y="418" on="1"/>
        <pt x="127" y="418" on="0"/>
        <pt x="42" y="505" on="0"/>
        <pt x="42" y="566" on="1"/>
        <pt x="42" y="625" on="0"/>
        <pt x="127" y="710" on="0"/>
        <pt x="188" y="710" on="1"/>
        <pt x="248" y="710" on="0"/>
        <pt x="333" y="625" on="0"/>
        <pt x="333" y="566" on="1"/>
        <pt x="333" y="506" on="0"/>
        <pt x="248" y="418" on="0"/>
      </contour>
      <contour>
        <pt x="188" y="492" on="1"/>
        <pt x="216" y="492" on="0"/>
        <pt x="258" y="535" on="0"/>
        <pt x="258" y="566" on="1"/>
        <pt x="258" y="595" on="0"/>
        <pt x="216" y="637" on="0"/>
        <pt x="188" y="637" on="1"/>
        <pt x="158" y="637" on="0"/>
        <pt x="116" y="595" on="0"/>
        <pt x="116" y="566" on="1"/>
        <pt x="116" y="535" on="0"/>
        <pt x="158" y="492" on="0"/>
      </contour>
    </TTGlyph>
    <TTGlyph name="dieresis" xMin="110" yMin="604" xMax="478" yMax="749">
      <contour>
        <pt x="185" y="604" on="1"/>
        <pt x="154" y="604" on="0"/>
        <pt x="110" y="646" on="0"/>
        <pt x="110" y="677" on="1"/>
        <pt x="110" y="708" on="0"/>
        <pt x="153" y="749" on="0"/>
        <pt x="185" y="749" on="1"/>
        <pt x="217" y="749" on="0"/>
        <pt x="260" y="708" on="0"/>
        <pt x="260" y="677" on="1"/>
        <pt x="260" y="646" on="0"/>
        <pt x="216" y="604" on="0"/>
      </contour>
      <contour>
        <pt x="404" y="604" on="1"/>
        <pt x="372" y="604" on="0"/>
        <pt x="329" y="646" on="0"/>
        <pt x="329" y="677" on="1"/>
        <pt x="329" y="708" on="0"/>
        <pt x="371" y="749" on="0"/>
        <pt x="404" y="749" on="1"/>
        <pt x="436" y="749" on="0"/>
        <pt x="478" y="708" on="0"/>
        <pt x="478" y="677" on="1"/>
        <pt x="478" y="646" on="0"/>
        <pt x="435" y="604" on="0"/>
      </contour>
    </TTGlyph>
    <TTGlyph name="divide" xMin="46" yMin="57" xMax="504" yMax="660">
      <contour>
        <pt x="275" y="498" on="1"/>
        <pt x="242" y="498" on="0"/>
        <pt x="194" y="546" on="0"/>
        <pt x="194" y="579" on="1"/>
        <pt x="194" y="613" on="0"/>
        <pt x="242" y="660" on="0"/>
        <pt x="275" y="660" on="1"/>
        <pt x="309" y="660" on="0"/>
        <pt x="356" y="613" on="0"/>
        <pt x="356" y="579" on="1"/>
        <pt x="356" y="546" on="0"/>
        <pt x="309" y="498" on="0"/>
      </contour>
      <contour>
        <pt x="46" y="306" on="1"/>
        <pt x="46" y="412" on="1"/>
        <pt x="504" y="412" on="1"/>
        <pt x="504" y="306" on="1"/>
      </contour>
      <contour>
        <pt x="275" y="57" on="1"/>
        <pt x="242" y="57" on="0"/>
        <pt x="194" y="104" on="0"/>
        <pt x="194" y="138" on="1"/>
        <pt x="194" y="171" on="0"/>
        <pt x="242" y="219" on="0"/>
        <pt x="275" y="219" on="1"/>
        <pt x="309" y="219" on="0"/>
        <pt x="356" y="171" on="0"/>
        <pt x="356" y="138" on="1"/>
        <pt x="356" y="104" on="0"/>
        <pt x="309" y="57" on="0"/>
      </contour>
    </TTGlyph>
    <TTGlyph name="dollar" xMin="6" yMin="-75" xMax="575" yMax="759">
      <contour>
        <pt x="258" y="-75" on="1"/>
        <pt x="258" y="19" on="1"/>
        <pt x="185" y="25" on="0"/>
        <pt x="55" y="81" on="0"/>
        <pt x="6" y="127" on="1"/>
        <pt x="77" y="224" on="1"/>
        <pt x="115" y="187" on="0"/>
        <pt x="209" y="140" on="0"/>
        <pt x="258" y="132" on="1"/>
        <pt x="258" y="294" on="1"/>
        <pt x="203" y="305" on="1"/>
        <pt x="106" y="323" on="0"/>
        <pt x="21" y="407" on="0"/>
        <pt x="21" y="485" on="1"/>
        <pt x="21" y="575" on="0"/>
        <pt x="148" y="681" on="0"/>
        <pt x="258" y="685" on="1"/>
        <pt x="258" y="759" on="1"/>
        <pt x="324" y="759" on="1"/>
        <pt x="324" y="682" on="1"/>
        <pt x="384" y="676" on="0"/>
        <pt x="505" y="635" on="0"/>
        <pt x="556" y="603" on="1"/>
        <pt x="498" y="498" on="1"/>
        <pt x="452" y="526" on="0"/>
        <pt x="364" y="560" on="0"/>
        <pt x="324" y="567" on="1"/>
        <pt x="324" y="408" on="1"/>
        <pt x="377" y="399" on="1"/>
        <pt x="481" y="379" on="0"/>
        <pt x="575" y="296" on="0"/>
        <pt x="575" y="222" on="1"/>
        <pt x="575" y="133" on="0"/>
        <pt x="440" y="23" on="0"/>
        <pt x="324" y="18" on="1"/>
        <pt x="324" y="-75" on="1"/>
      </contour>
      <contour>
        <pt x="252" y="417" on="1"/>
        <pt x="258" y="416" on="1"/>
        <pt x="258" y="572" on="1"/>
        <pt x="208" y="571" on="0"/>
        <pt x="148" y="529" on="0"/>
        <pt x="148" y="496" on="1"/>
        <pt x="148" y="459" on="0"/>
        <pt x="190" y="427" on="0"/>
      </contour>
      <contour>
        <pt x="328" y="287" on="1"/>
        <pt x="324" y="288" on="1"/>
        <pt x="324" y="128" on="1"/>
        <pt x="378" y="132" on="0"/>
        <pt x="443" y="176" on="0"/>
        <pt x="443" y="210" on="1"/>
        <pt x="443" y="245" on="0"/>
        <pt x="397" y="276" on="0"/>
      </contour>
    </TTGlyph>
    <TTGlyph name="dotaccent" xMin="71" yMin="602" xMax="220" yMax="747">
      <contour>
        <pt x="146" y="602" on="1"/>
        <pt x="114" y="602" on="0"/>
        <pt x="71" y="644" on="0"/>
        <pt x="71" y="675" on="1"/>
        <pt x="71" y="706" on="0"/>
        <pt x="114" y="747" on="0"/>
        <pt x="146" y="747" on="1"/>
        <pt x="177" y="747" on="0"/>
        <pt x="220" y="706" on="0"/>
        <pt x="220" y="675" on="1"/>
        <pt x="220" y="644" on="0"/>
        <pt x="177" y="602" on="0"/>
      </contour>
    </TTGlyph>
    <TTGlyph name="dotlessi" xMin="54" yMin="0" xMax="191" yMax="521">
      <contour>
        <pt x="191" y="521" on="1"/>
        <pt x="191" y="0" on="1"/>
        <pt x="54" y="0" on="1"/>
        <pt x="54" y="521" on="1"/>
      </contour>
    </TTGlyph>
    <TTGlyph name="dotlessj" xMin="-50" yMin="-215" xMax="191" yMax="521">
      <contour>
        <pt x="-50" y="-206" on="1"/>
        <pt x="-50" y="-101" on="1"/>
        <pt x="-38" y="-103" on="0"/>
        <pt x="-17" y="-105" on="0"/>
        <pt x="-4" y="-105" on="1"/>
        <pt x="26" y="-105" on="0"/>
        <pt x="54" y="-80" on="0"/>
        <pt x="54" y="-52" on="1"/>
        <pt x="54" y="521" on="1"/>
        <pt x="191" y="521" on="1"/>
        <pt x="191" y="-61" on="1"/>
        <pt x="191" y="-134" on="0"/>
        <pt x="103" y="-215" on="0"/>
        <pt x="23" y="-215" on="1"/>
        <pt x="4" y="-215" on="0"/>
        <pt x="-37" y="-210" on="0"/>
      </contour>
    </TTGlyph>
    <TTGlyph name="e" xMin="30" yMin="-10" xMax="556" yMax="530">
      <contour>
        <pt x="521" y="65" on="1"/>
        <pt x="473" y="26" on="0"/>
        <pt x="372" y="-10" on="0"/>
        <pt x="310" y="-10" on="1"/>
        <pt x="251" y="-10" on="0"/>
        <pt x="148" y="32" on="0"/>
        <pt x="73" y="104" on="0"/>
        <pt x="30" y="203" on="0"/>
        <pt x="30" y="260" on="1"/>
        <pt x="30" y="316" on="0"/>
        <pt x="71" y="415" on="0"/>
        <pt x="143" y="488" on="0"/>
        <pt x="242" y="530" on="0"/>
        <pt x="298" y="530" on="1"/>
        <pt x="353" y="530" on="0"/>
        <pt x="448" y="487" on="0"/>
        <pt x="517" y="413" on="0"/>
        <pt x="556" y="310" on="0"/>
        <pt x="556" y="250" on="1"/>
        <pt x="556" y="214" on="1"/>
        <pt x="168" y="214" on="1"/>
        <pt x="182" y="165" on="0"/>
        <pt x="262" y="105" on="0"/>
        <pt x="316" y="105" on="1"/>
        <pt x="350" y="105" on="0"/>
        <pt x="410" y="127" on="0"/>
        <pt x="431" y="147" on="1"/>
      </contour>
      <contour>
        <pt x="295" y="417" on="1"/>
        <pt x="248" y="417" on="0"/>
        <pt x="180" y="360" on="0"/>
        <pt x="167" y="312" on="1"/>
        <pt x="422" y="312" on="1"/>
        <pt x="409" y="358" on="0"/>
        <pt x="340" y="417" on="0"/>
      </contour>
    </TTGlyph>
    <TTGlyph name="eacute" xMin="30" yMin="-10" xMax="556" yMax="738">
      <component glyphName="e" x="0" y="0" flags="0x204"/>
      <component glyphName="acute" x="72" y="0" flags="0x4"/>
    </TTGlyph>
    <TTGlyph name="ebreve" xMin="30" yMin="-10" xMax="556" yMax="757">
      <component glyphName="e" x="0" y="0" flags="0x204"/>
      <component glyphName="breve" x="38" y="0" flags="0x4"/>
    </TTGlyph>
    <TTGlyph name="ecaron" xMin="30" yMin="-10" xMax="556" yMax="741">
      <component glyphName="e" x="0" y="0" flags="0x204"/>
      <component glyphName="caron" x="36" y="0" flags="0x4"/>
    </TTGlyph>
    <TTGlyph name="ecircumflex" xMin="30" yMin="-10" xMax="556" yMax="741">
      <component glyphName="e" x="0" y="0" flags="0x204"/>
      <component glyphName="circumflex" x="38" y="0" flags="0x4"/>
    </TTGlyph>
    <TTGlyph name="edieresis" xMin="30" yMin="-10" xMax="556" yMax="749">
      <component glyphName="e" x="0" y="0" flags="0x204"/>
      <component glyphName="dieresis" x="2" y="0" flags="0x4"/>
    </TTGlyph>
    <TTGlyph name="edotaccent" xMin="30" yMin="-10" xMax="556" yMax="747">
      <component glyphName="e" x="0" y="0" flags="0x204"/>
      <component glyphName="dotaccent" x="150" y="0" flags="0x4"/>
    </TTGlyph>
    <TTGlyph name="egrave" xMin="30" yMin="-10" xMax="556" yMax="738">
      <component glyphName="e" x="0" y="0" flags="0x204"/>
      <component glyphName="grave" x="-5" y="0" flags="0x4"/>
    </TTGlyph>
    <TTGlyph name="eight" xMin="37" yMin="-11" xMax="596" yMax="711">
      <contour>
        <pt x="316" y="-11" on="1"/>
        <pt x="255" y="-11" on="0"/>
        <pt x="152" y="20" on="0"/>
        <pt x="78" y="74" on="0"/>
        <pt x="37" y="150" on="0"/>
        <pt x="37" y="196" on="1"/>
        <pt x="37" y="250" on="0"/>
        <pt x="104" y="338" on="0"/>
        <pt x="158" y="360" on="1"/>
        <pt x="114" y="385" on="0"/>
        <pt x="60" y="465" on="0"/>
        <pt x="60" y="514" on="1"/>
        <pt x="60" y="556" on="0"/>
        <pt x="99" y="628" on="0"/>
        <pt x="167" y="681" on="0"/>
        <pt x="262" y="711" on="0"/>
        <pt x="316" y="711" on="1"/>
        <pt x="370" y="711" on="0"/>
        <pt x="465" y="681" on="0"/>
        <pt x="534" y="628" on="0"/>
        <pt x="573" y="556" on="0"/>
        <pt x="573" y="514" on="1"/>
        <pt x="573" y="465" on="0"/>
        <pt x="519" y="384" on="0"/>
        <pt x="475" y="360" on="1"/>
        <pt x="529" y="338" on="0"/>
        <pt x="596" y="250" on="0"/>
        <pt x="596" y="196" on="1"/>
        <pt x="596" y="150" on="0"/>
        <pt x="555" y="74" on="0"/>
        <pt x="481" y="20" on="0"/>
        <pt x="378" y="-11" on="0"/>
      </contour>
      <contour>
        <pt x="316" y="411" on="1"/>
        <pt x="368" y="411" on="0"/>
        <pt x="439" y="465" on="0"/>
        <pt x="439" y="505" on="1"/>
        <pt x="439" y="545" on="0"/>
        <pt x="369" y="600" on="0"/>
        <pt x="316" y="600" on="1"/>
        <pt x="264" y="600" on="0"/>
        <pt x="194" y="545" on="0"/>
        <pt x="194" y="505" on="1"/>
        <pt x="194" y="465" on="0"/>
        <pt x="265" y="411" on="0"/>
      </contour>
      <contour>
        <pt x="316" y="101" on="1"/>
        <pt x="378" y="101" on="0"/>
        <pt x="459" y="159" on="0"/>
        <pt x="459" y="204" on="1"/>
        <pt x="459" y="248" on="0"/>
        <pt x="378" y="307" on="0"/>
        <pt x="316" y="307" on="1"/>
        <pt x="255" y="307" on="0"/>
        <pt x="174" y="248" on="0"/>
        <pt x="174" y="204" on="1"/>
        <pt x="174" y="159" on="0"/>
        <pt x="255" y="101" on="0"/>
      </contour>
    </TTGlyph>
    <TTGlyph name="ellipsis" xMin="39" yMin="-10" xMax="659" yMax="153">
      <component glyphName="period" x="0" y="0" flags="0x4"/>
      <component glyphName="period" x="229" y="0" flags="0x4"/>
      <component glyphName="period" x="457" y="0" flags="0x4"/>
    </TTGlyph>
    <TTGlyph name="emacron" xMin="30" yMin="-10" xMax="556" yMax="713">
      <component glyphName="e" x="0" y="0" flags="0x204"/>
      <component glyphName="macron" x="38" y="0" flags="0x4"/>
    </TTGlyph>
    <TTGlyph name="emdash" xMin="41" yMin="227" xMax="667" yMax="343">
      <contour>
        <pt x="41" y="343" on="1"/>
        <pt x="667" y="343" on="1"/>
        <pt x="667" y="227" on="1"/>
        <pt x="41" y="227" on="1"/>
      </contour>
    </TTGlyph>
    <TTGlyph name="emdash.cap" xMin="41" yMin="292" xMax="667" yMax="408">
      <component glyphName="emdash" x="0" y="65" flags="0x4"/>
    </TTGlyph>
    <TTGlyph name="endash" xMin="41" yMin="227" xMax="517" yMax="343">
      <contour>
        <pt x="41" y="343" on="1"/>
        <pt x="517" y="343" on="1"/>
        <pt x="517" y="227" on="1"/>
        <pt x="41" y="227" on="1"/>
      </contour>
    </TTGlyph>
    <TTGlyph name="endash.cap" xMin="41" yMin="292" xMax="517" yMax="408">
      <component glyphName="endash" x="0" y="65" flags="0x4"/>
    </TTGlyph>
    <TTGlyph name="eng" xMin="54" yMin="-215" xMax="543" yMax="531">
      <contour>
        <pt x="54" y="0" on="1"/>
        <pt x="54" y="521" on="1"/>
        <pt x="191" y="521" on="1"/>
        <pt x="191" y="480" on="1"/>
        <pt x="221" y="505" on="0"/>
        <pt x="294" y="531" on="0"/>
        <pt x="337" y="531" on="1"/>
        <pt x="427" y="531" on="0"/>
        <pt x="543" y="415" on="0"/>
        <pt x="543" y="324" on="1"/>
        <pt x="543" y="-61" on="1"/>
        <pt x="543" y="-134" on="0"/>
        <pt x="455" y="-215" on="0"/>
        <pt x="375" y="-215" on="1"/>
        <pt x="356" y="-215" on="0"/>
        <pt x="316" y="-210" on="0"/>
        <pt x="303" y="-206" on="1"/>
        <pt x="303" y="-101" on="1"/>
        <pt x="314" y="-103" on="0"/>
        <pt x="335" y="-105" on="0"/>
        <pt x="348" y="-105" on="1"/>
        <pt x="378" y="-105" on="0"/>
        <pt x="406" y="-80" on="0"/>
        <pt x="406" y="-52" on="1"/>
        <pt x="406" y="304" on="1"/>
        <pt x="406" y="353" on="0"/>
        <pt x="347" y="413" on="0"/>
        <pt x="298" y="413" on="1"/>
        <pt x="264" y="413" on="0"/>
        <pt x="209" y="386" on="0"/>
        <pt x="191" y="361" on="1"/>
        <pt x="191" y="0" on="1"/>
      </contour>
    </TTGlyph>
    <TTGlyph name="eogonek" xMin="30" yMin="-221" xMax="556" yMax="530">
      <contour>
        <pt x="413" y="-199" on="1"/>
        <pt x="396" y="-209" on="0"/>
        <pt x="352" y="-221" on="0"/>
        <pt x="330" y="-221" on="1"/>
        <pt x="282" y="-221" on="0"/>
        <pt x="224" y="-170" on="0"/>
        <pt x="224" y="-129" on="1"/>
        <pt x="224" y="-96" on="0"/>
        <pt x="261" y="-38" on="0"/>
        <pt x="301" y="-10" on="1"/>
        <pt x="244" y="-9" on="0"/>
        <pt x="144" y="35" on="0"/>
        <pt x="72" y="107" on="0"/>
        <pt x="30" y="204" on="0"/>
        <pt x="30" y="260" on="1"/>
        <pt x="30" y="316" on="0"/>
        <pt x="71" y="415" on="0"/>
        <pt x="143" y="488" on="0"/>
        <pt x="242" y="530" on="0"/>
        <pt x="298" y="530" on="1"/>
        <pt x="353" y="530" on="0"/>
        <pt x="448" y="487" on="0"/>
        <pt x="517" y="413" on="0"/>
        <pt x="556" y="310" on="0"/>
        <pt x="556" y="250" on="1"/>
        <pt x="556" y="214" on="1"/>
        <pt x="168" y="214" on="1"/>
        <pt x="182" y="165" on="0"/>
        <pt x="262" y="105" on="0"/>
        <pt x="316" y="105" on="1"/>
        <pt x="350" y="105" on="0"/>
        <pt x="410" y="127" on="0"/>
        <pt x="431" y="147" on="1"/>
        <pt x="521" y="65" on="1"/>
        <pt x="490" y="40" on="0"/>
        <pt x="427" y="7" on="0"/>
        <pt x="392" y="-1" on="1"/>
        <pt x="347" y="-29" on="0"/>
        <pt x="304" y="-79" on="0"/>
        <pt x="304" y="-105" on="1"/>
        <pt x="304" y="-126" on="0"/>
        <pt x="331" y="-149" on="0"/>
        <pt x="354" y="-149" on="1"/>
        <pt x="364" y="-149" on="0"/>
        <pt x="386" y="-143" on="0"/>
        <pt x="394" y="-137" on="1"/>
      </contour>
      <contour>
        <pt x="295" y="417" on="1"/>
        <pt x="248" y="417" on="0"/>
        <pt x="180" y="360" on="0"/>
        <pt x="167" y="312" on="1"/>
        <pt x="422" y="312" on="1"/>
        <pt x="409" y="358" on="0"/>
        <pt x="340" y="417" on="0"/>
      </contour>
    </TTGlyph>
    <TTGlyph name="equal" xMin="46" yMin="205" xMax="504" yMax="502">
      <component glyphName="minus" x="0" y="-101" flags="0x4"/>
      <component glyphName="minus" x="0" y="90" flags="0x4"/>
    </TTGlyph>
    <TTGlyph name="eth" xMin="30" yMin="-9" xMax="562" yMax="760">
      <contour>
        <pt x="244" y="512" on="1"/>
        <pt x="193" y="583" on="1"/>
        <pt x="260" y="626" on="1"/>
        <pt x="241" y="639" on="0"/>
        <pt x="200" y="660" on="0"/>
        <pt x="178" y="668" on="1"/>
        <pt x="249" y="760" on="1"/>
        <pt x="281" y="746" on="0"/>
        <pt x="340" y="713" on="0"/>
        <pt x="366" y="694" on="1"/>
        <pt x="464" y="757" on="1"/>
        <pt x="515" y="686" on="1"/>
        <pt x="434" y="634" on="1"/>
        <pt x="496" y="570" on="0"/>
        <pt x="562" y="405" on="0"/>
        <pt x="562" y="312" on="1"/>
        <pt x="562" y="165" on="0"/>
        <pt x="414" y="-9" on="0"/>
        <pt x="288" y="-9" on="1"/>
        <pt x="234" y="-9" on="0"/>
        <pt x="139" y="30" on="0"/>
        <pt x="70" y="99" on="0"/>
        <pt x="30" y="192" on="0"/>
        <pt x="30" y="246" on="1"/>
        <pt x="30" y="294" on="0"/>
        <pt x="69" y="380" on="0"/>
        <pt x="135" y="445" on="0"/>
        <pt x="222" y="483" on="0"/>
        <pt x="271" y="483" on="1"/>
        <pt x="317" y="483" on="0"/>
        <pt x="389" y="454" on="0"/>
        <pt x="414" y="428" on="1"/>
        <pt x="406" y="465" on="0"/>
        <pt x="363" y="537" on="0"/>
        <pt x="332" y="568" on="1"/>
      </contour>
      <contour>
        <pt x="292" y="111" on="1"/>
        <pt x="345" y="111" on="0"/>
        <pt x="420" y="187" on="0"/>
        <pt x="420" y="241" on="1"/>
        <pt x="420" y="295" on="0"/>
        <pt x="345" y="370" on="0"/>
        <pt x="292" y="370" on="1"/>
        <pt x="238" y="370" on="0"/>
        <pt x="162" y="295" on="0"/>
        <pt x="162" y="241" on="1"/>
        <pt x="162" y="187" on="0"/>
        <pt x="238" y="111" on="0"/>
      </contour>
    </TTGlyph>
    <TTGlyph name="exclam" xMin="39" yMin="-10" xMax="202" yMax="737">
      <contour>
        <pt x="68" y="210" on="1"/>
        <pt x="51" y="737" on="1"/>
        <pt x="190" y="737" on="1"/>
        <pt x="173" y="210" on="1"/>
      </contour>
      <contour>
        <pt x="120" y="-10" on="1"/>
        <pt x="87" y="-10" on="0"/>
        <pt x="39" y="38" on="0"/>
        <pt x="39" y="71" on="1"/>
        <pt x="39" y="105" on="0"/>
        <pt x="87" y="153" on="0"/>
        <pt x="120" y="153" on="1"/>
        <pt x="154" y="153" on="0"/>
        <pt x="202" y="105" on="0"/>
        <pt x="202" y="71" on="1"/>
        <pt x="202" y="38" on="0"/>
        <pt x="154" y="-10" on="0"/>
      </contour>
    </TTGlyph>
    <TTGlyph name="exclamdown" xMin="39" yMin="-35" xMax="202" yMax="712">
      <contour>
        <pt x="173" y="492" on="1"/>
        <pt x="190" y="-35" on="1"/>
        <pt x="51" y="-35" on="1"/>
        <pt x="68" y="492" on="1"/>
      </contour>
      <contour>
        <pt x="121" y="712" on="1"/>
        <pt x="154" y="712" on="0"/>
        <pt x="202" y="664" on="0"/>
        <pt x="202" y="631" on="1"/>
        <pt x="202" y="597" on="0"/>
        <pt x="154" y="549" on="0"/>
        <pt x="121" y="549" on="1"/>
        <pt x="87" y="549" on="0"/>
        <pt x="39" y="597" on="0"/>
        <pt x="39" y="631" on="1"/>
        <pt x="39" y="664" on="0"/>
        <pt x="87" y="712" on="0"/>
      </contour>
    </TTGlyph>
    <TTGlyph name="f" xMin="18" yMin="0" xMax="413" yMax="752">
      <contour>
        <pt x="18" y="521" on="1"/>
        <pt x="134" y="521" on="1"/>
        <pt x="134" y="571" on="1"/>
        <pt x="134" y="658" on="0"/>
        <pt x="236" y="752" on="0"/>
        <pt x="332" y="752" on="1"/>
        <pt x="353" y="752" on="0"/>
        <pt x="397" y="747" on="0"/>
        <pt x="413" y="743" on="1"/>
        <pt x="413" y="628" on="1"/>
        <pt x="394" y="632" on="0"/>
        <pt x="365" y="636" on="0"/>
        <pt x="349" y="636" on="1"/>
        <pt x="310" y="636" on="0"/>
        <pt x="271" y="602" on="0"/>
        <pt x="271" y="568" on="1"/>
        <pt x="271" y="521" on="1"/>
        <pt x="413" y="521" on="1"/>
        <pt x="413" y="406" on="1"/>
        <pt x="271" y="406" on="1"/>
        <pt x="271" y="0" on="1"/>
        <pt x="134" y="0" on="1"/>
        <pt x="134" y="406" on="1"/>
        <pt x="18" y="406" on="1"/>
      </contour>
    </TTGlyph>
    <TTGlyph name="fi" xMin="18" yMin="0" xMax="631" yMax="752">
      <component glyphName="f" x="0" y="0" flags="0x4"/>
      <component glyphName="i" x="431" y="0" flags="0x4"/>
    </TTGlyph>
    <TTGlyph name="five" xMin="25" yMin="-11" xMax="571" yMax="700">
      <contour>
        <pt x="63" y="333" on="1"/>
        <pt x="80" y="700" on="1"/>
        <pt x="531" y="700" on="1"/>
        <pt x="531" y="585" on="1"/>
        <pt x="191" y="585" on="1"/>
        <pt x="184" y="422" on="1"/>
        <pt x="215" y="433" on="0"/>
        <pt x="280" y="443" on="0"/>
        <pt x="315" y="443" on="1"/>
        <pt x="429" y="443" on="0"/>
        <pt x="571" y="324" on="0"/>
        <pt x="571" y="228" on="1"/>
        <pt x="571" y="175" on="0"/>
        <pt x="530" y="87" on="0"/>
        <pt x="455" y="24" on="0"/>
        <pt x="349" y="-11" on="0"/>
        <pt x="286" y="-11" on="1"/>
        <pt x="211" y="-11" on="0"/>
        <pt x="77" y="37" on="0"/>
        <pt x="25" y="83" on="1"/>
        <pt x="108" y="176" on="1"/>
        <pt x="154" y="138" on="0"/>
        <pt x="239" y="105" on="0"/>
        <pt x="290" y="105" on="1"/>
        <pt x="353" y="105" on="0"/>
        <pt x="431" y="169" on="0"/>
        <pt x="431" y="221" on="1"/>
        <pt x="431" y="271" on="0"/>
        <pt x="347" y="334" on="0"/>
        <pt x="281" y="334" on="1"/>
        <pt x="250" y="334" on="0"/>
        <pt x="183" y="319" on="0"/>
        <pt x="152" y="306" on="1"/>
      </contour>
    </TTGlyph>
    <TTGlyph name="fl" xMin="18" yMin="0" xMax="622" yMax="752">
      <component glyphName="f" x="0" y="0" flags="0x4"/>
      <component glyphName="l" x="431" y="0" flags="0x4"/>
    </TTGlyph>
    <TTGlyph name="four" xMin="27" yMin="0" xMax="645" yMax="700">
      <contour>
        <pt x="559" y="700" on="1"/>
        <pt x="559" y="279" on="1"/>
        <pt x="645" y="279" on="1"/>
        <pt x="645" y="164" on="1"/>
        <pt x="559" y="164" on="1"/>
        <pt x="559" y="0" on="1"/>
        <pt x="422" y="0" on="1"/>
        <pt x="422" y="164" on="1"/>
        <pt x="27" y="164" on="1"/>
        <pt x="27" y="274" on="1"/>
        <pt x="401" y="700" on="1"/>
      </contour>
      <contour>
        <pt x="185" y="279" on="1"/>
        <pt x="422" y="279" on="1"/>
        <pt x="422" y="548" on="1"/>
      </contour>
    </TTGlyph>
    <TTGlyph name="fraction" xMin="18" yMin="0" xMax="517" yMax="700">
      <contour>
        <pt x="120" y="0" on="1"/>
        <pt x="18" y="0" on="1"/>
        <pt x="414" y="700" on="1"/>
        <pt x="517" y="700" on="1"/>
      </contour>
    </TTGlyph>
    <TTGlyph name="g" xMin="30" yMin="-215" xMax="574" yMax="529">
      <contour>
        <pt x="294" y="-3" on="1"/>
        <pt x="239" y="-3" on="0"/>
        <pt x="142" y="39" on="0"/>
        <pt x="71" y="111" on="0"/>
        <pt x="30" y="208" on="0"/>
        <pt x="30" y="264" on="1"/>
        <pt x="30" y="319" on="0"/>
        <pt x="72" y="416" on="0"/>
        <pt x="144" y="488" on="0"/>
        <pt x="242" y="529" on="0"/>
        <pt x="298" y="529" on="1"/>
        <pt x="337" y="529" on="0"/>
        <pt x="408" y="507" on="0"/>
        <pt x="439" y="487" on="1"/>
        <pt x="439" y="521" on="1"/>
        <pt x="574" y="521" on="1"/>
        <pt x="574" y="0" on="1"/>
        <pt x="574" y="-103" on="0"/>
        <pt x="441" y="-215" on="0"/>
        <pt x="316" y="-215" on="1"/>
        <pt x="256" y="-215" on="0"/>
        <pt x="145" y="-191" on="0"/>
        <pt x="99" y="-168" on="1"/>
        <pt x="147" y="-61" on="1"/>
        <pt x="190" y="-82" on="0"/>
        <pt x="272" y="-103" on="0"/>
        <pt x="313" y="-103" on="1"/>
        <pt x="374" y="-103" on="0"/>
        <pt x="437" y="-50" on="0"/>
        <pt x="437" y="1" on="1"/>
        <pt x="437" y="44" on="1"/>
        <pt x="406" y="21" on="0"/>
        <pt x="333" y="-3" on="0"/>
      </contour>
      <contour>
        <pt x="165" y="264" on="1"/>
        <pt x="165" y="201" on="0"/>
        <pt x="252" y="113" on="0"/>
        <pt x="315" y="113" on="1"/>
        <pt x="352" y="113" on="0"/>
        <pt x="414" y="138" on="0"/>
        <pt x="437" y="160" on="1"/>
        <pt x="437" y="365" on="1"/>
        <pt x="415" y="387" on="0"/>
        <pt x="351" y="412" on="0"/>
        <pt x="316" y="412" on="1"/>
        <pt x="253" y="412" on="0"/>
        <pt x="165" y="326" on="0"/>
      </contour>
    </TTGlyph>
    <TTGlyph name="g.alt" xMin="19" yMin="-217" xMax="597" yMax="558">
      <contour>
        <pt x="53" y="335" on="1"/>
        <pt x="53" y="376" on="0"/>
        <pt x="89" y="447" on="0"/>
        <pt x="153" y="500" on="0"/>
        <pt x="239" y="531" on="0"/>
        <pt x="288" y="531" on="1"/>
        <pt x="331" y="531" on="0"/>
        <pt x="409" y="507" on="0"/>
        <pt x="439" y="485" on="1"/>
        <pt x="463" y="521" on="0"/>
        <pt x="526" y="558" on="0"/>
        <pt x="562" y="558" on="1"/>
        <pt x="572" y="558" on="0"/>
        <pt x="588" y="555" on="0"/>
        <pt x="595" y="553" on="1"/>
        <pt x="597" y="450" on="1"/>
        <pt x="590" y="451" on="0"/>
        <pt x="570" y="453" on="0"/>
        <pt x="560" y="453" on="1"/>
        <pt x="541" y="453" on="0"/>
        <pt x="503" y="446" on="0"/>
        <pt x="487" y="439" on="1"/>
        <pt x="503" y="417" on="0"/>
        <pt x="522" y="363" on="0"/>
        <pt x="522" y="335" on="1"/>
        <pt x="522" y="294" on="0"/>
        <pt x="486" y="223" on="0"/>
        <pt x="424" y="172" on="0"/>
        <pt x="338" y="143" on="0"/>
        <pt x="288" y="143" on="1"/>
        <pt x="274" y="143" on="0"/>
        <pt x="247" y="146" on="0"/>
        <pt x="234" y="148" on="1"/>
        <pt x="219" y="143" on="0"/>
        <pt x="202" y="126" on="0"/>
        <pt x="202" y="115" on="1"/>
        <pt x="202" y="99" on="0"/>
        <pt x="229" y="82" on="0"/>
        <pt x="257" y="81" on="1"/>
        <pt x="432" y="76" on="1"/>
        <pt x="507" y="75" on="0"/>
        <pt x="592" y="10" on="0"/>
        <pt x="592" y="-45" on="1"/>
        <pt x="592" y="-84" on="0"/>
        <pt x="548" y="-148" on="0"/>
        <pt x="467" y="-193" on="0"/>
        <pt x="350" y="-217" on="0"/>
        <pt x="279" y="-217" on="1"/>
        <pt x="153" y="-217" on="0"/>
        <pt x="19" y="-155" on="0"/>
        <pt x="19" y="-96" on="1"/>
        <pt x="19" y="-63" on="0"/>
        <pt x="73" y="-11" on="0"/>
        <pt x="119" y="3" on="1"/>
        <pt x="102" y="16" on="0"/>
        <pt x="84" y="54" on="0"/>
        <pt x="84" y="76" on="1"/>
        <pt x="84" y="108" on="0"/>
        <pt x="124" y="159" on="0"/>
        <pt x="159" y="173" on="1"/>
        <pt x="110" y="198" on="0"/>
        <pt x="53" y="284" on="0"/>
      </contour>
      <contour>
        <pt x="394" y="335" on="1"/>
        <pt x="394" y="375" on="0"/>
        <pt x="333" y="429" on="0"/>
        <pt x="288" y="429" on="1"/>
        <pt x="242" y="429" on="0"/>
        <pt x="182" y="375" on="0"/>
        <pt x="182" y="335" on="1"/>
        <pt x="182" y="294" on="0"/>
        <pt x="242" y="240" on="0"/>
        <pt x="288" y="240" on="1"/>
        <pt x="333" y="240" on="0"/>
        <pt x="394" y="295" on="0"/>
      </contour>
      <contour>
        <pt x="143" y="-78" on="1"/>
        <pt x="143" y="-105" on="0"/>
        <pt x="211" y="-132" on="0"/>
        <pt x="277" y="-132" on="1"/>
        <pt x="359" y="-132" on="0"/>
        <pt x="455" y="-99" on="0"/>
        <pt x="455" y="-71" on="1"/>
        <pt x="455" y="-57" on="0"/>
        <pt x="432" y="-40" on="0"/>
        <pt x="410" y="-40" on="1"/>
        <pt x="259" y="-36" on="1"/>
        <pt x="243" y="-35" on="0"/>
        <pt x="213" y="-32" on="0"/>
        <pt x="200" y="-30" on="1"/>
        <pt x="173" y="-36" on="0"/>
        <pt x="143" y="-61" on="0"/>
      </contour>
    </TTGlyph>
    <TTGlyph name="gbreve" xMin="30" yMin="-215" xMax="574" yMax="757">
      <component glyphName="g" x="0" y="0" flags="0x204"/>
      <component glyphName="breve" x="54" y="0" flags="0x4"/>
    </TTGlyph>
    <TTGlyph name="gbreve.alt" xMin="19" yMin="-217" xMax="597" yMax="757">
      <component glyphName="g.alt" x="0" y="0" flags="0x204"/>
      <component glyphName="breve" x="30" y="0" flags="0x4"/>
    </TTGlyph>
    <TTGlyph name="gcircumflex" xMin="30" yMin="-215" xMax="574" yMax="741">
      <component glyphName="g" x="0" y="0" flags="0x204"/>
      <component glyphName="circumflex" x="54" y="0" flags="0x4"/>
    </TTGlyph>
    <TTGlyph name="gcircumflex.alt" xMin="19" yMin="-217" xMax="597" yMax="741">
      <component glyphName="g.alt" x="0" y="0" flags="0x204"/>
      <component glyphName="circumflex" x="30" y="0" flags="0x4"/>
    </TTGlyph>
    <TTGlyph name="gcommaaccent" xMin="30" yMin="-215" xMax="574" yMax="819">
      <contour>
        <pt x="368" y="614" on="1"/>
        <pt x="239" y="614" on="1"/>
        <pt x="320" y="819" on="1"/>
        <pt x="419" y="819" on="1"/>
      </contour>
      <contour>
        <pt x="294" y="-3" on="1"/>
        <pt x="239" y="-3" on="0"/>
        <pt x="142" y="39" on="0"/>
        <pt x="71" y="111" on="0"/>
        <pt x="30" y="208" on="0"/>
        <pt x="30" y="264" on="1"/>
        <pt x="30" y="319" on="0"/>
        <pt x="72" y="416" on="0"/>
        <pt x="144" y="488" on="0"/>
        <pt x="242" y="529" on="0"/>
        <pt x="298" y="529" on="1"/>
        <pt x="337" y="529" on="0"/>
        <pt x="408" y="507" on="0"/>
        <pt x="439" y="487" on="1"/>
        <pt x="439" y="521" on="1"/>
        <pt x="574" y="521" on="1"/>
        <pt x="574" y="0" on="1"/>
        <pt x="574" y="-103" on="0"/>
        <pt x="441" y="-215" on="0"/>
        <pt x="316" y="-215" on="1"/>
        <pt x="256" y="-215" on="0"/>
        <pt x="145" y="-191" on="0"/>
        <pt x="99" y="-168" on="1"/>
        <pt x="147" y="-61" on="1"/>
        <pt x="190" y="-82" on="0"/>
        <pt x="272" y="-103" on="0"/>
        <pt x="313" y="-103" on="1"/>
        <pt x="374" y="-103" on="0"/>
        <pt x="437" y="-50" on="0"/>
        <pt x="437" y="1" on="1"/>
        <pt x="437" y="44" on="1"/>
        <pt x="406" y="21" on="0"/>
        <pt x="333" y="-3" on="0"/>
      </contour>
      <contour>
        <pt x="165" y="264" on="1"/>
        <pt x="165" y="201" on="0"/>
        <pt x="252" y="113" on="0"/>
        <pt x="315" y="113" on="1"/>
        <pt x="352" y="113" on="0"/>
        <pt x="414" y="138" on="0"/>
        <pt x="437" y="160" on="1"/>
        <pt x="437" y="365" on="1"/>
        <pt x="415" y="387" on="0"/>
        <pt x="351" y="412" on="0"/>
        <pt x="316" y="412" on="1"/>
        <pt x="253" y="412" on="0"/>
        <pt x="165" y="326" on="0"/>
      </contour>
    </TTGlyph>
    <TTGlyph name="gcommaaccent.alt" xMin="19" yMin="-217" xMax="597" yMax="816">
      <contour>
        <pt x="362" y="611" on="1"/>
        <pt x="233" y="611" on="1"/>
        <pt x="314" y="816" on="1"/>
        <pt x="413" y="816" on="1"/>
      </contour>
      <contour>
        <pt x="53" y="335" on="1"/>
        <pt x="53" y="376" on="0"/>
        <pt x="89" y="447" on="0"/>
        <pt x="153" y="500" on="0"/>
        <pt x="239" y="531" on="0"/>
        <pt x="288" y="531" on="1"/>
        <pt x="331" y="531" on="0"/>
        <pt x="409" y="507" on="0"/>
        <pt x="439" y="485" on="1"/>
        <pt x="463" y="521" on="0"/>
        <pt x="526" y="558" on="0"/>
        <pt x="562" y="558" on="1"/>
        <pt x="572" y="558" on="0"/>
        <pt x="588" y="555" on="0"/>
        <pt x="595" y="553" on="1"/>
        <pt x="597" y="450" on="1"/>
        <pt x="590" y="451" on="0"/>
        <pt x="570" y="453" on="0"/>
        <pt x="560" y="453" on="1"/>
        <pt x="541" y="453" on="0"/>
        <pt x="503" y="446" on="0"/>
        <pt x="487" y="439" on="1"/>
        <pt x="503" y="417" on="0"/>
        <pt x="522" y="363" on="0"/>
        <pt x="522" y="335" on="1"/>
        <pt x="522" y="294" on="0"/>
        <pt x="486" y="223" on="0"/>
        <pt x="424" y="172" on="0"/>
        <pt x="338" y="143" on="0"/>
        <pt x="288" y="143" on="1"/>
        <pt x="274" y="143" on="0"/>
        <pt x="247" y="146" on="0"/>
        <pt x="234" y="148" on="1"/>
        <pt x="219" y="143" on="0"/>
        <pt x="202" y="126" on="0"/>
        <pt x="202" y="115" on="1"/>
        <pt x="202" y="99" on="0"/>
        <pt x="229" y="82" on="0"/>
        <pt x="257" y="81" on="1"/>
        <pt x="432" y="76" on="1"/>
        <pt x="507" y="75" on="0"/>
        <pt x="592" y="10" on="0"/>
        <pt x="592" y="-45" on="1"/>
        <pt x="592" y="-84" on="0"/>
        <pt x="548" y="-148" on="0"/>
        <pt x="467" y="-193" on="0"/>
        <pt x="350" y="-217" on="0"/>
        <pt x="279" y="-217" on="1"/>
        <pt x="153" y="-217" on="0"/>
        <pt x="19" y="-155" on="0"/>
        <pt x="19" y="-96" on="1"/>
        <pt x="19" y="-63" on="0"/>
        <pt x="73" y="-11" on="0"/>
        <pt x="119" y="3" on="1"/>
        <pt x="102" y="16" on="0"/>
        <pt x="84" y="54" on="0"/>
        <pt x="84" y="76" on="1"/>
        <pt x="84" y="108" on="0"/>
        <pt x="124" y="159" on="0"/>
        <pt x="159" y="173" on="1"/>
        <pt x="110" y="198" on="0"/>
        <pt x="53" y="284" on="0"/>
      </contour>
      <contour>
        <pt x="394" y="335" on="1"/>
        <pt x="394" y="375" on="0"/>
        <pt x="333" y="429" on="0"/>
        <pt x="288" y="429" on="1"/>
        <pt x="242" y="429" on="0"/>
        <pt x="182" y="375" on="0"/>
        <pt x="182" y="335" on="1"/>
        <pt x="182" y="294" on="0"/>
        <pt x="242" y="240" on="0"/>
        <pt x="288" y="240" on="1"/>
        <pt x="333" y="240" on="0"/>
        <pt x="394" y="295" on="0"/>
      </contour>
      <contour>
        <pt x="143" y="-78" on="1"/>
        <pt x="143" y="-105" on="0"/>
        <pt x="211" y="-132" on="0"/>
        <pt x="277" y="-132" on="1"/>
        <pt x="359" y="-132" on="0"/>
        <pt x="455" y="-99" on="0"/>
        <pt x="455" y="-71" on="1"/>
        <pt x="455" y="-57" on="0"/>
        <pt x="432" y="-40" on="0"/>
        <pt x="410" y="-40" on="1"/>
        <pt x="259" y="-36" on="1"/>
        <pt x="243" y="-35" on="0"/>
        <pt x="213" y="-32" on="0"/>
        <pt x="200" y="-30" on="1"/>
        <pt x="173" y="-36" on="0"/>
        <pt x="143" y="-61" on="0"/>
      </contour>
    </TTGlyph>
    <TTGlyph name="gdotaccent" xMin="30" yMin="-215" xMax="574" yMax="747">
      <component glyphName="g" x="0" y="0" flags="0x204"/>
      <component glyphName="dotaccent" x="167" y="0" flags="0x4"/>
    </TTGlyph>
    <TTGlyph name="gdotaccent.alt" xMin="19" yMin="-217" xMax="597" yMax="747">
      <component glyphName="g.alt" x="0" y="0" flags="0x204"/>
      <component glyphName="dotaccent" x="143" y="0" flags="0x4"/>
    </TTGlyph>
    <TTGlyph name="germandbls" xMin="54" yMin="-11" xMax="674" yMax="735">
      <contour>
        <pt x="421" y="367" on="1"/>
        <pt x="421" y="352" on="0"/>
        <pt x="441" y="334" on="0"/>
        <pt x="469" y="323" on="1"/>
        <pt x="549" y="296" on="1"/>
        <pt x="615" y="272" on="0"/>
        <pt x="674" y="205" on="0"/>
        <pt x="674" y="154" on="1"/>
        <pt x="674" y="79" on="0"/>
        <pt x="563" y="-11" on="0"/>
        <pt x="471" y="-11" on="1"/>
        <pt x="408" y="-11" on="0"/>
        <pt x="302" y="29" on="0"/>
        <pt x="257" y="70" on="1"/>
        <pt x="326" y="144" on="1"/>
        <pt x="359" y="113" on="0"/>
        <pt x="428" y="83" on="0"/>
        <pt x="465" y="83" on="1"/>
        <pt x="504" y="83" on="0"/>
        <pt x="549" y="116" on="0"/>
        <pt x="549" y="144" on="1"/>
        <pt x="549" y="168" on="0"/>
        <pt x="521" y="196" on="0"/>
        <pt x="485" y="208" on="1"/>
        <pt x="400" y="236" on="1"/>
        <pt x="343" y="255" on="0"/>
        <pt x="291" y="308" on="0"/>
        <pt x="291" y="348" on="1"/>
        <pt x="291" y="392" on="0"/>
        <pt x="344" y="444" on="0"/>
        <pt x="407" y="482" on="0"/>
        <pt x="460" y="519" on="0"/>
        <pt x="460" y="548" on="1"/>
        <pt x="460" y="582" on="0"/>
        <pt x="388" y="626" on="0"/>
        <pt x="334" y="626" on="1"/>
        <pt x="264" y="626" on="0"/>
        <pt x="190" y="546" on="0"/>
        <pt x="190" y="470" on="1"/>
        <pt x="190" y="0" on="1"/>
        <pt x="54" y="0" on="1"/>
        <pt x="54" y="473" on="1"/>
        <pt x="54" y="596" on="0"/>
        <pt x="201" y="735" on="0"/>
        <pt x="331" y="735" on="1"/>
        <pt x="450" y="735" on="0"/>
        <pt x="593" y="643" on="0"/>
        <pt x="593" y="567" on="1"/>
        <pt x="593" y="517" on="0"/>
        <pt x="539" y="458" on="0"/>
        <pt x="475" y="418" on="0"/>
        <pt x="421" y="388" on="0"/>
      </contour>
    </TTGlyph>
    <TTGlyph name="grave" xMin="127" yMin="608" xMax="373" yMax="738">
      <contour>
        <pt x="285" y="738" on="1"/>
        <pt x="373" y="608" on="1"/>
        <pt x="262" y="608" on="1"/>
        <pt x="127" y="738" on="1"/>
      </contour>
    </TTGlyph>
    <TTGlyph name="greater" xMin="62" yMin="60" xMax="479" yMax="636">
      <contour>
        <pt x="134" y="636" on="1"/>
        <pt x="479" y="349" on="1"/>
        <pt x="133" y="60" on="1"/>
        <pt x="64" y="140" on="1"/>
        <pt x="320" y="347" on="1"/>
        <pt x="62" y="554" on="1"/>
      </contour>
    </TTGlyph>
    <TTGlyph name="guillemotleft" xMin="19" yMin="0" xMax="651" yMax="521">
      <component glyphName="guilsinglleft" x="0" y="0" flags="0x4"/>
      <component glyphName="guilsinglleft" x="247" y="0" flags="0x4"/>
    </TTGlyph>
    <TTGlyph name="guillemotright" xMin="27" yMin="0" xMax="660" yMax="521">
      <contour>
        <pt x="278" y="0" on="1"/>
        <pt x="514" y="259" on="1"/>
        <pt x="275" y="521" on="1"/>
        <pt x="418" y="521" on="1"/>
        <pt x="660" y="260" on="1"/>
        <pt x="418" y="0" on="1"/>
      </contour>
      <contour>
        <pt x="30" y="0" on="1"/>
        <pt x="266" y="259" on="1"/>
        <pt x="27" y="521" on="1"/>
        <pt x="170" y="521" on="1"/>
        <pt x="412" y="260" on="1"/>
        <pt x="170" y="0" on="1"/>
      </contour>
    </TTGlyph>
    <TTGlyph name="guilsinglleft" xMin="19" yMin="0" xMax="404" yMax="521">
      <contour>
        <pt x="401" y="521" on="1"/>
        <pt x="165" y="262" on="1"/>
        <pt x="404" y="0" on="1"/>
        <pt x="261" y="0" on="1"/>
        <pt x="19" y="261" on="1"/>
        <pt x="261" y="521" on="1"/>
      </contour>
    </TTGlyph>
    <TTGlyph name="guilsinglright" xMin="27" yMin="0" xMax="412" yMax="521">
      <contour>
        <pt x="30" y="0" on="1"/>
        <pt x="266" y="259" on="1"/>
        <pt x="27" y="521" on="1"/>
        <pt x="170" y="521" on="1"/>
        <pt x="412" y="260" on="1"/>
        <pt x="170" y="0" on="1"/>
      </contour>
    </TTGlyph>
    <TTGlyph name="h" xMin="54" yMin="0" xMax="543" yMax="730">
      <contour>
        <pt x="54" y="0" on="1"/>
        <pt x="54" y="700" on="1"/>
        <pt x="191" y="730" on="1"/>
        <pt x="191" y="480" on="1"/>
        <pt x="221" y="505" on="0"/>
        <pt x="294" y="531" on="0"/>
        <pt x="337" y="531" on="1"/>
        <pt x="427" y="531" on="0"/>
        <pt x="543" y="415" on="0"/>
        <pt x="543" y="324" on="1"/>
        <pt x="543" y="0" on="1"/>
        <pt x="406" y="0" on="1"/>
        <pt x="406" y="304" on="1"/>
        <pt x="406" y="353" on="0"/>
        <pt x="347" y="413" on="0"/>
        <pt x="298" y="413" on="1"/>
        <pt x="264" y="413" on="0"/>
        <pt x="209" y="386" on="0"/>
        <pt x="191" y="361" on="1"/>
        <pt x="191" y="0" on="1"/>
      </contour>
    </TTGlyph>
    <TTGlyph name="hbar" xMin="-4" yMin="0" xMax="543" yMax="730">
      <contour>
        <pt x="54" y="0" on="1"/>
        <pt x="54" y="579" on="1"/>
        <pt x="-4" y="579" on="1"/>
        <pt x="-4" y="663" on="1"/>
        <pt x="54" y="663" on="1"/>
        <pt x="54" y="700" on="1"/>
        <pt x="191" y="730" on="1"/>
        <pt x="191" y="663" on="1"/>
        <pt x="329" y="663" on="1"/>
        <pt x="329" y="579" on="1"/>
        <pt x="191" y="579" on="1"/>
        <pt x="191" y="480" on="1"/>
        <pt x="221" y="505" on="0"/>
        <pt x="294" y="531" on="0"/>
        <pt x="337" y="531" on="1"/>
        <pt x="427" y="531" on="0"/>
        <pt x="543" y="415" on="0"/>
        <pt x="543" y="324" on="1"/>
        <pt x="543" y="0" on="1"/>
        <pt x="406" y="0" on="1"/>
        <pt x="406" y="304" on="1"/>
        <pt x="406" y="353" on="0"/>
        <pt x="347" y="413" on="0"/>
        <pt x="298" y="413" on="1"/>
        <pt x="264" y="413" on="0"/>
        <pt x="209" y="386" on="0"/>
        <pt x="191" y="361" on="1"/>
        <pt x="191" y="0" on="1"/>
      </contour>
    </TTGlyph>
    <TTGlyph name="hcircumflex" xMin="-63" yMin="0" xMax="543" yMax="920">
      <contour>
        <pt x="195" y="784" on="1"/>
        <pt x="121" y="858" on="1"/>
        <pt x="47" y="784" on="1"/>
        <pt x="-63" y="784" on="1"/>
        <pt x="52" y="920" on="1"/>
        <pt x="192" y="920" on="1"/>
        <pt x="307" y="784" on="1"/>
      </contour>
      <contour>
        <pt x="54" y="0" on="1"/>
        <pt x="54" y="700" on="1"/>
        <pt x="191" y="700" on="1"/>
        <pt x="191" y="480" on="1"/>
        <pt x="221" y="505" on="0"/>
        <pt x="294" y="531" on="0"/>
        <pt x="337" y="531" on="1"/>
        <pt x="427" y="531" on="0"/>
        <pt x="543" y="415" on="0"/>
        <pt x="543" y="324" on="1"/>
        <pt x="543" y="0" on="1"/>
        <pt x="406" y="0" on="1"/>
        <pt x="406" y="304" on="1"/>
        <pt x="406" y="353" on="0"/>
        <pt x="347" y="413" on="0"/>
        <pt x="298" y="413" on="1"/>
        <pt x="264" y="413" on="0"/>
        <pt x="209" y="386" on="0"/>
        <pt x="191" y="361" on="1"/>
        <pt x="191" y="0" on="1"/>
      </contour>
    </TTGlyph>
    <TTGlyph name="hungarumlaut" xMin="86" yMin="610" xMax="532" yMax="737">
      <contour>
        <pt x="187" y="737" on="1"/>
        <pt x="324" y="737" on="1"/>
        <pt x="192" y="610" on="1"/>
        <pt x="86" y="610" on="1"/>
      </contour>
      <contour>
        <pt x="394" y="737" on="1"/>
        <pt x="532" y="737" on="1"/>
        <pt x="390" y="610" on="1"/>
        <pt x="293" y="610" on="1"/>
      </contour>
    </TTGlyph>
    <TTGlyph name="hyphen" xMin="41" yMin="227" xMax="417" yMax="343">
      <contour>
        <pt x="41" y="343" on="1"/>
        <pt x="417" y="343" on="1"/>
        <pt x="417" y="227" on="1"/>
        <pt x="41" y="227" on="1"/>
      </contour>
    </TTGlyph>
    <TTGlyph name="hyphen.cap" xMin="41" yMin="292" xMax="417" yMax="408">
      <component glyphName="hyphen" x="0" y="65" flags="0x4"/>
    </TTGlyph>
    <TTGlyph name="i" xMin="44" yMin="0" xMax="200" yMax="739">
      <contour>
        <pt x="122" y="583" on="1"/>
        <pt x="90" y="583" on="0"/>
        <pt x="44" y="629" on="0"/>
        <pt x="44" y="661" on="1"/>
        <pt x="44" y="693" on="0"/>
        <pt x="90" y="739" on="0"/>
        <pt x="122" y="739" on="1"/>
        <pt x="154" y="739" on="0"/>
        <pt x="200" y="693" on="0"/>
        <pt x="200" y="661" on="1"/>
        <pt x="200" y="629" on="0"/>
        <pt x="154" y="583" on="0"/>
      </contour>
      <contour>
        <pt x="191" y="521" on="1"/>
        <pt x="191" y="0" on="1"/>
        <pt x="54" y="0" on="1"/>
        <pt x="54" y="521" on="1"/>
      </contour>
    </TTGlyph>
    <TTGlyph name="iacute" xMin="52" yMin="0" xMax="298" yMax="738">
      <component glyphName="dotlessi" x="0" y="0" flags="0x204"/>
      <component glyphName="acute" x="-102" y="0" flags="0x4"/>
    </TTGlyph>
    <TTGlyph name="ibreve" xMin="-53" yMin="0" xMax="298" yMax="757">
      <component glyphName="dotlessi" x="0" y="0" flags="0x204"/>
      <component glyphName="breve" x="-136" y="0" flags="0x4"/>
    </TTGlyph>
    <TTGlyph name="icircumflex" xMin="-62" yMin="0" xMax="308" yMax="741">
      <component glyphName="dotlessi" x="0" y="0" flags="0x204"/>
      <component glyphName="circumflex" x="-136" y="0" flags="0x4"/>
    </TTGlyph>
    <TTGlyph name="idieresis" xMin="-62" yMin="0" xMax="306" yMax="749">
      <component glyphName="dotlessi" x="0" y="0" flags="0x204"/>
      <component glyphName="dieresis" x="-172" y="0" flags="0x4"/>
    </TTGlyph>
    <TTGlyph name="idotaccent" xMin="44" yMin="0" xMax="200" yMax="739">
      <component glyphName="i" x="0" y="0" flags="0x4"/>
    </TTGlyph>
    <TTGlyph name="igrave" xMin="-51" yMin="0" xMax="195" yMax="738">
      <component glyphName="dotlessi" x="0" y="0" flags="0x204"/>
      <component glyphName="grave" x="-178" y="0" flags="0x4"/>
    </TTGlyph>
    <TTGlyph name="ij" xMin="44" yMin="-215" xMax="441" yMax="739">
      <component glyphName="i" x="0" y="0" flags="0x4"/>
      <component glyphName="j" x="241" y="0" flags="0x4"/>
    </TTGlyph>
    <TTGlyph name="imacron" xMin="-34" yMin="0" xMax="286" yMax="713">
      <component glyphName="dotlessi" x="0" y="0" flags="0x204"/>
      <component glyphName="macron" x="-136" y="0" flags="0x4"/>
    </TTGlyph>
    <TTGlyph name="iogonek" xMin="20" yMin="-221" xMax="209" yMax="739">
      <contour>
        <pt x="122" y="583" on="1"/>
        <pt x="90" y="583" on="0"/>
        <pt x="44" y="629" on="0"/>
        <pt x="44" y="661" on="1"/>
        <pt x="44" y="693" on="0"/>
        <pt x="90" y="739" on="0"/>
        <pt x="122" y="739" on="1"/>
        <pt x="154" y="739" on="0"/>
        <pt x="200" y="693" on="0"/>
        <pt x="200" y="661" on="1"/>
        <pt x="200" y="629" on="0"/>
        <pt x="154" y="583" on="0"/>
      </contour>
      <contour>
        <pt x="190" y="0" on="1"/>
        <pt x="144" y="-28" on="0"/>
        <pt x="100" y="-79" on="0"/>
        <pt x="100" y="-105" on="1"/>
        <pt x="100" y="-126" on="0"/>
        <pt x="127" y="-149" on="0"/>
        <pt x="150" y="-149" on="1"/>
        <pt x="160" y="-149" on="0"/>
        <pt x="182" y="-143" on="0"/>
        <pt x="190" y="-137" on="1"/>
        <pt x="209" y="-199" on="1"/>
        <pt x="192" y="-209" on="0"/>
        <pt x="148" y="-221" on="0"/>
        <pt x="126" y="-221" on="1"/>
        <pt x="78" y="-221" on="0"/>
        <pt x="20" y="-170" on="0"/>
        <pt x="20" y="-129" on="1"/>
        <pt x="20" y="-93" on="0"/>
        <pt x="64" y="-31" on="0"/>
        <pt x="112" y="0" on="1"/>
        <pt x="54" y="0" on="1"/>
        <pt x="54" y="521" on="1"/>
        <pt x="191" y="521" on="1"/>
        <pt x="191" y="0" on="1"/>
      </contour>
    </TTGlyph>
    <TTGlyph name="itilde" xMin="-69" yMin="0" xMax="318" yMax="740">
      <component glyphName="dotlessi" x="0" y="0" flags="0x204"/>
      <component glyphName="tilde" x="-135" y="0" flags="0x4"/>
    </TTGlyph>
    <TTGlyph name="j" xMin="-50" yMin="-215" xMax="200" yMax="739">
      <contour>
        <pt x="122" y="583" on="1"/>
        <pt x="90" y="583" on="0"/>
        <pt x="44" y="629" on="0"/>
        <pt x="44" y="661" on="1"/>
        <pt x="44" y="693" on="0"/>
        <pt x="90" y="739" on="0"/>
        <pt x="122" y="739" on="1"/>
        <pt x="154" y="739" on="0"/>
        <pt x="200" y="693" on="0"/>
        <pt x="200" y="661" on="1"/>
        <pt x="200" y="629" on="0"/>
        <pt x="154" y="583" on="0"/>
      </contour>
      <contour>
        <pt x="22" y="-215" on="1"/>
        <pt x="3" y="-215" on="0"/>
        <pt x="-38" y="-210" on="0"/>
        <pt x="-50" y="-206" on="1"/>
        <pt x="-50" y="-101" on="1"/>
        <pt x="-39" y="-103" on="0"/>
        <pt x="-18" y="-105" on="0"/>
        <pt x="-5" y="-105" on="1"/>
        <pt x="26" y="-105" on="0"/>
        <pt x="54" y="-80" on="0"/>
        <pt x="54" y="-52" on="1"/>
        <pt x="54" y="521" on="1"/>
        <pt x="191" y="521" on="1"/>
        <pt x="191" y="-60" on="1"/>
        <pt x="191" y="-134" on="0"/>
        <pt x="102" y="-215" on="0"/>
      </contour>
    </TTGlyph>
    <TTGlyph name="jcircumflex" xMin="-62" yMin="-215" xMax="308" yMax="741">
      <component glyphName="dotlessj" x="0" y="0" flags="0x204"/>
      <component glyphName="circumflex" x="-136" y="0" flags="0x4"/>
    </TTGlyph>
    <TTGlyph name="k" xMin="54" yMin="0" xMax="586" yMax="730">
      <contour>
        <pt x="54" y="0" on="1"/>
        <pt x="54" y="700" on="1"/>
        <pt x="191" y="730" on="1"/>
        <pt x="191" y="301" on="1"/>
        <pt x="416" y="521" on="1"/>
        <pt x="571" y="521" on="1"/>
        <pt x="327" y="282" on="1"/>
        <pt x="586" y="0" on="1"/>
        <pt x="411" y="0" on="1"/>
        <pt x="191" y="238" on="1"/>
        <pt x="191" y="0" on="1"/>
      </contour>
    </TTGlyph>
    <TTGlyph name="kcommaaccent" xMin="54" yMin="-286" xMax="586" yMax="730">
      <component glyphName="k" x="0" y="0" flags="0x204"/>
      <component glyphName="commaaccent" x="157" y="0" flags="0x4"/>
    </TTGlyph>
    <TTGlyph name="kgreenlandic" xMin="54" yMin="0" xMax="586" yMax="521">
      <contour>
        <pt x="54" y="0" on="1"/>
        <pt x="54" y="521" on="1"/>
        <pt x="191" y="521" on="1"/>
        <pt x="191" y="301" on="1"/>
        <pt x="416" y="521" on="1"/>
        <pt x="571" y="521" on="1"/>
        <pt x="327" y="282" on="1"/>
        <pt x="586" y="0" on="1"/>
        <pt x="411" y="0" on="1"/>
        <pt x="191" y="238" on="1"/>
        <pt x="191" y="0" on="1"/>
      </contour>
    </TTGlyph>
    <TTGlyph name="l" xMin="54" yMin="0" xMax="191" yMax="730">
      <contour>
        <pt x="191" y="730" on="1"/>
        <pt x="191" y="0" on="1"/>
        <pt x="54" y="0" on="1"/>
        <pt x="54" y="700" on="1"/>
      </contour>
    </TTGlyph>
    <TTGlyph name="lacute" xMin="52" yMin="0" xMax="298" yMax="917">
      <contour>
        <pt x="142" y="917" on="1"/>
        <pt x="298" y="917" on="1"/>
        <pt x="163" y="787" on="1"/>
        <pt x="52" y="787" on="1"/>
      </contour>
      <contour>
        <pt x="54" y="0" on="1"/>
        <pt x="54" y="700" on="1"/>
        <pt x="191" y="700" on="1"/>
        <pt x="191" y="0" on="1"/>
      </contour>
    </TTGlyph>
    <TTGlyph name="lcaron" xMin="54" yMin="0" xMax="400" yMax="730">
      <component glyphName="l" x="0" y="0" flags="0x4"/>
      <component glyphName="caronSlovak" x="150" y="0" flags="0x4"/>
    </TTGlyph>
    <TTGlyph name="lcommaaccent" xMin="9" yMin="-286" xMax="191" yMax="730">
      <component glyphName="l" x="0" y="0" flags="0x204"/>
      <component glyphName="commaaccent" x="-8" y="0" flags="0x4"/>
    </TTGlyph>
    <TTGlyph name="ldot" xMin="54" yMin="0" xMax="396" yMax="730">
      <component glyphName="l" x="0" y="0" flags="0x4"/>
      <component glyphName="dotaccent" x="176" y="-317" flags="0x4"/>
    </TTGlyph>
    <TTGlyph name="less" xMin="52" yMin="60" xMax="469" yMax="636">
      <contour>
        <pt x="397" y="60" on="1"/>
        <pt x="52" y="347" on="1"/>
        <pt x="398" y="636" on="1"/>
        <pt x="467" y="556" on="1"/>
        <pt x="211" y="349" on="1"/>
        <pt x="469" y="142" on="1"/>
      </contour>
    </TTGlyph>
    <TTGlyph name="lslash" xMin="7" yMin="0" xMax="285" yMax="730">
      <contour>
        <pt x="7" y="334" on="1"/>
        <pt x="78" y="384" on="1"/>
        <pt x="78" y="700" on="1"/>
        <pt x="215" y="730" on="1"/>
        <pt x="215" y="481" on="1"/>
        <pt x="285" y="530" on="1"/>
        <pt x="285" y="405" on="1"/>
        <pt x="215" y="356" on="1"/>
        <pt x="215" y="0" on="1"/>
        <pt x="78" y="0" on="1"/>
        <pt x="78" y="259" on="1"/>
        <pt x="7" y="209" on="1"/>
      </contour>
    </TTGlyph>
    <TTGlyph name="m" xMin="54" yMin="0" xMax="855" yMax="531">
      <contour>
        <pt x="54" y="0" on="1"/>
        <pt x="54" y="521" on="1"/>
        <pt x="191" y="521" on="1"/>
        <pt x="191" y="482" on="1"/>
        <pt x="219" y="506" on="0"/>
        <pt x="287" y="531" on="0"/>
        <pt x="327" y="531" on="1"/>
        <pt x="377" y="531" on="0"/>
        <pt x="458" y="490" on="0"/>
        <pt x="484" y="453" on="1"/>
        <pt x="515" y="491" on="0"/>
        <pt x="603" y="531" on="0"/>
        <pt x="656" y="531" on="1"/>
        <pt x="743" y="531" on="0"/>
        <pt x="855" y="415" on="0"/>
        <pt x="855" y="324" on="1"/>
        <pt x="855" y="0" on="1"/>
        <pt x="718" y="0" on="1"/>
        <pt x="718" y="304" on="1"/>
        <pt x="718" y="353" on="0"/>
        <pt x="665" y="413" on="0"/>
        <pt x="620" y="413" on="1"/>
        <pt x="589" y="413" on="0"/>
        <pt x="538" y="386" on="0"/>
        <pt x="520" y="361" on="1"/>
        <pt x="521" y="352" on="0"/>
        <pt x="523" y="334" on="0"/>
        <pt x="523" y="324" on="1"/>
        <pt x="523" y="0" on="1"/>
        <pt x="386" y="0" on="1"/>
        <pt x="386" y="304" on="1"/>
        <pt x="386" y="353" on="0"/>
        <pt x="333" y="413" on="0"/>
        <pt x="288" y="413" on="1"/>
        <pt x="257" y="413" on="0"/>
        <pt x="209" y="389" on="0"/>
        <pt x="191" y="366" on="1"/>
        <pt x="191" y="0" on="1"/>
      </contour>
    </TTGlyph>
    <TTGlyph name="macron" xMin="102" yMin="623" xMax="422" yMax="713">
      <contour>
        <pt x="422" y="713" on="1"/>
        <pt x="422" y="623" on="1"/>
        <pt x="102" y="623" on="1"/>
        <pt x="102" y="713" on="1"/>
      </contour>
    </TTGlyph>
    <TTGlyph name="minus" xMin="46" yMin="306" xMax="504" yMax="412">
      <contour>
        <pt x="504" y="412" on="1"/>
        <pt x="504" y="306" on="1"/>
        <pt x="46" y="306" on="1"/>
        <pt x="46" y="412" on="1"/>
      </contour>
    </TTGlyph>
    <TTGlyph name="multiply" xMin="55" yMin="140" xMax="487" yMax="578">
      <contour>
        <pt x="120" y="141" on="1"/>
        <pt x="56" y="206" on="1"/>
        <pt x="206" y="358" on="1"/>
        <pt x="55" y="511" on="1"/>
        <pt x="121" y="578" on="1"/>
        <pt x="272" y="425" on="1"/>
        <pt x="421" y="577" on="1"/>
        <pt x="486" y="512" on="1"/>
        <pt x="336" y="360" on="1"/>
        <pt x="487" y="207" on="1"/>
        <pt x="420" y="140" on="1"/>
        <pt x="270" y="293" on="1"/>
      </contour>
    </TTGlyph>
    <TTGlyph name="n" xMin="54" yMin="0" xMax="543" yMax="531">
      <contour>
        <pt x="54" y="0" on="1"/>
        <pt x="54" y="521" on="1"/>
        <pt x="191" y="521" on="1"/>
        <pt x="191" y="480" on="1"/>
        <pt x="221" y="505" on="0"/>
        <pt x="294" y="531" on="0"/>
        <pt x="337" y="531" on="1"/>
        <pt x="427" y="531" on="0"/>
        <pt x="543" y="415" on="0"/>
        <pt x="543" y="324" on="1"/>
        <pt x="543" y="0" on="1"/>
        <pt x="406" y="0" on="1"/>
        <pt x="406" y="304" on="1"/>
        <pt x="406" y="353" on="0"/>
        <pt x="347" y="413" on="0"/>
        <pt x="298" y="413" on="1"/>
        <pt x="264" y="413" on="0"/>
        <pt x="209" y="386" on="0"/>
        <pt x="191" y="361" on="1"/>
        <pt x="191" y="0" on="1"/>
      </contour>
    </TTGlyph>
    <TTGlyph name="nacute" xMin="54" yMin="0" xMax="543" yMax="738">
      <component glyphName="n" x="0" y="0" flags="0x204"/>
      <component glyphName="acute" x="75" y="0" flags="0x4"/>
    </TTGlyph>
    <TTGlyph name="ncaron" xMin="54" yMin="0" xMax="543" yMax="741">
      <component glyphName="n" x="0" y="0" flags="0x204"/>
      <component glyphName="caron" x="39" y="0" flags="0x4"/>
    </TTGlyph>
    <TTGlyph name="ncommaaccent" xMin="54" yMin="-286" xMax="543" yMax="531">
      <component glyphName="n" x="0" y="0" flags="0x204"/>
      <component glyphName="commaaccent" x="169" y="0" flags="0x4"/>
    </TTGlyph>
    <TTGlyph name="nine" xMin="32" yMin="-10" xMax="603" yMax="712">
      <contour>
        <pt x="294" y="712" on="1"/>
        <pt x="363" y="712" on="0"/>
        <pt x="477" y="661" on="0"/>
        <pt x="558" y="570" on="0"/>
        <pt x="603" y="442" on="0"/>
        <pt x="603" y="365" on="1"/>
        <pt x="603" y="281" on="0"/>
        <pt x="553" y="142" on="0"/>
        <pt x="463" y="44" on="0"/>
        <pt x="335" y="-10" on="0"/>
        <pt x="258" y="-10" on="1"/>
        <pt x="201" y="-10" on="0"/>
        <pt x="89" y="27" on="0"/>
        <pt x="51" y="58" on="1"/>
        <pt x="129" y="156" on="1"/>
        <pt x="160" y="132" on="0"/>
        <pt x="228" y="110" on="0"/>
        <pt x="268" y="110" on="1"/>
        <pt x="358" y="110" on="0"/>
        <pt x="461" y="233" on="0"/>
        <pt x="466" y="346" on="1"/>
        <pt x="432" y="308" on="0"/>
        <pt x="332" y="265" on="0"/>
        <pt x="276" y="265" on="1"/>
        <pt x="223" y="265" on="0"/>
        <pt x="133" y="297" on="0"/>
        <pt x="68" y="354" on="0"/>
        <pt x="32" y="433" on="0"/>
        <pt x="32" y="480" on="1"/>
        <pt x="32" y="530" on="0"/>
        <pt x="72" y="615" on="0"/>
        <pt x="141" y="677" on="0"/>
        <pt x="238" y="712" on="0"/>
      </contour>
      <contour>
        <pt x="298" y="373" on="1"/>
        <pt x="345" y="373" on="0"/>
        <pt x="426" y="413" on="0"/>
        <pt x="458" y="450" on="1"/>
        <pt x="442" y="516" on="0"/>
        <pt x="358" y="596" on="0"/>
        <pt x="300" y="596" on="1"/>
        <pt x="243" y="596" on="0"/>
        <pt x="166" y="532" on="0"/>
        <pt x="166" y="483" on="1"/>
        <pt x="166" y="434" on="0"/>
        <pt x="240" y="373" on="0"/>
      </contour>
    </TTGlyph>
    <TTGlyph name="notequal" xMin="40" yMin="103" xMax="506" yMax="602">
      <contour>
        <pt x="40" y="103" on="1"/>
        <pt x="112" y="205" on="1"/>
        <pt x="46" y="205" on="1"/>
        <pt x="46" y="311" on="1"/>
        <pt x="186" y="311" on="1"/>
        <pt x="246" y="396" on="1"/>
        <pt x="46" y="396" on="1"/>
        <pt x="46" y="501" on="1"/>
        <pt x="319" y="501" on="1"/>
        <pt x="390" y="602" on="1"/>
        <pt x="506" y="602" on="1"/>
        <pt x="436" y="501" on="1"/>
        <pt x="504" y="501" on="1"/>
        <pt x="504" y="396" on="1"/>
        <pt x="362" y="396" on="1"/>
        <pt x="303" y="311" on="1"/>
        <pt x="504" y="311" on="1"/>
        <pt x="504" y="205" on="1"/>
        <pt x="229" y="205" on="1"/>
        <pt x="158" y="103" on="1"/>
      </contour>
    </TTGlyph>
    <TTGlyph name="ntilde" xMin="54" yMin="0" xMax="543" yMax="740">
      <component glyphName="n" x="0" y="0" flags="0x204"/>
      <component glyphName="tilde" x="42" y="0" flags="0x4"/>
    </TTGlyph>
    <TTGlyph name="numbersign" xMin="29" yMin="0" xMax="709" yMax="700">
      <contour>
        <pt x="70" y="0" on="1"/>
        <pt x="125" y="194" on="1"/>
        <pt x="29" y="194" on="1"/>
        <pt x="29" y="292" on="1"/>
        <pt x="153" y="292" on="1"/>
        <pt x="187" y="408" on="1"/>
        <pt x="79" y="408" on="1"/>
        <pt x="79" y="506" on="1"/>
        <pt x="215" y="506" on="1"/>
        <pt x="270" y="700" on="1"/>
        <pt x="394" y="700" on="1"/>
        <pt x="339" y="506" on="1"/>
        <pt x="490" y="506" on="1"/>
        <pt x="545" y="700" on="1"/>
        <pt x="667" y="700" on="1"/>
        <pt x="612" y="506" on="1"/>
        <pt x="709" y="506" on="1"/>
        <pt x="709" y="408" on="1"/>
        <pt x="584" y="408" on="1"/>
        <pt x="550" y="292" on="1"/>
        <pt x="659" y="292" on="1"/>
        <pt x="659" y="194" on="1"/>
        <pt x="522" y="194" on="1"/>
        <pt x="467" y="0" on="1"/>
        <pt x="345" y="0" on="1"/>
        <pt x="400" y="194" on="1"/>
        <pt x="249" y="194" on="1"/>
        <pt x="194" y="0" on="1"/>
      </contour>
      <contour>
        <pt x="277" y="292" on="1"/>
        <pt x="428" y="292" on="1"/>
        <pt x="462" y="408" on="1"/>
        <pt x="311" y="408" on="1"/>
      </contour>
    </TTGlyph>
    <TTGlyph name="o" xMin="30" yMin="-10" xMax="586" yMax="531">
      <contour>
        <pt x="30" y="260" on="1"/>
        <pt x="30" y="317" on="0"/>
        <pt x="73" y="416" on="0"/>
        <pt x="148" y="489" on="0"/>
        <pt x="250" y="531" on="0"/>
        <pt x="308" y="531" on="1"/>
        <pt x="366" y="531" on="0"/>
        <pt x="468" y="489" on="0"/>
        <pt x="543" y="416" on="0"/>
        <pt x="586" y="317" on="0"/>
        <pt x="586" y="260" on="1"/>
        <pt x="586" y="203" on="0"/>
        <pt x="543" y="104" on="0"/>
        <pt x="468" y="32" on="0"/>
        <pt x="366" y="-10" on="0"/>
        <pt x="308" y="-10" on="1"/>
        <pt x="250" y="-10" on="0"/>
        <pt x="148" y="32" on="0"/>
        <pt x="73" y="104" on="0"/>
        <pt x="30" y="203" on="0"/>
      </contour>
      <contour>
        <pt x="308" y="109" on="1"/>
        <pt x="368" y="109" on="0"/>
        <pt x="452" y="197" on="0"/>
        <pt x="452" y="260" on="1"/>
        <pt x="452" y="324" on="0"/>
        <pt x="368" y="412" on="0"/>
        <pt x="308" y="412" on="1"/>
        <pt x="248" y="412" on="0"/>
        <pt x="164" y="324" on="0"/>
        <pt x="164" y="260" on="1"/>
        <pt x="164" y="197" on="0"/>
        <pt x="248" y="109" on="0"/>
      </contour>
    </TTGlyph>
    <TTGlyph name="oacute" xMin="30" yMin="-10" xMax="586" yMax="738">
      <component glyphName="o" x="0" y="0" flags="0x204"/>
      <component glyphName="acute" x="84" y="0" flags="0x4"/>
    </TTGlyph>
    <TTGlyph name="obreve" xMin="30" yMin="-10" xMax="586" yMax="757">
      <component glyphName="o" x="0" y="0" flags="0x204"/>
      <component glyphName="breve" x="50" y="0" flags="0x4"/>
    </TTGlyph>
    <TTGlyph name="ocircumflex" xMin="30" yMin="-10" xMax="586" yMax="741">
      <component glyphName="o" x="0" y="0" flags="0x204"/>
      <component glyphName="circumflex" x="50" y="0" flags="0x4"/>
    </TTGlyph>
    <TTGlyph name="odieresis" xMin="30" yMin="-10" xMax="586" yMax="749">
      <component glyphName="o" x="0" y="0" flags="0x204"/>
      <component glyphName="dieresis" x="14" y="0" flags="0x4"/>
    </TTGlyph>
    <TTGlyph name="oe" xMin="30" yMin="-10" xMax="980" yMax="531">
      <contour>
        <pt x="30" y="260" on="1"/>
        <pt x="30" y="317" on="0"/>
        <pt x="73" y="416" on="0"/>
        <pt x="148" y="489" on="0"/>
        <pt x="250" y="531" on="0"/>
        <pt x="308" y="531" on="1"/>
        <pt x="371" y="531" on="0"/>
        <pt x="480" y="478" on="0"/>
        <pt x="517" y="433" on="1"/>
        <pt x="553" y="478" on="0"/>
        <pt x="659" y="530" on="0"/>
        <pt x="722" y="530" on="1"/>
        <pt x="777" y="530" on="0"/>
        <pt x="872" y="487" on="0"/>
        <pt x="941" y="413" on="0"/>
        <pt x="980" y="310" on="0"/>
        <pt x="980" y="250" on="1"/>
        <pt x="980" y="214" on="1"/>
        <pt x="592" y="214" on="1"/>
        <pt x="606" y="165" on="0"/>
        <pt x="686" y="105" on="0"/>
        <pt x="740" y="105" on="1"/>
        <pt x="774" y="105" on="0"/>
        <pt x="834" y="127" on="0"/>
        <pt x="855" y="147" on="1"/>
        <pt x="945" y="65" on="1"/>
        <pt x="897" y="26" on="0"/>
        <pt x="796" y="-10" on="0"/>
        <pt x="733" y="-10" on="1"/>
        <pt x="667" y="-10" on="0"/>
        <pt x="555" y="43" on="0"/>
        <pt x="518" y="88" on="1"/>
        <pt x="481" y="43" on="0"/>
        <pt x="372" y="-10" on="0"/>
        <pt x="308" y="-10" on="1"/>
        <pt x="250" y="-10" on="0"/>
        <pt x="148" y="32" on="0"/>
        <pt x="73" y="104" on="0"/>
        <pt x="30" y="203" on="0"/>
      </contour>
      <contour>
        <pt x="719" y="417" on="1"/>
        <pt x="671" y="417" on="0"/>
        <pt x="603" y="360" on="0"/>
        <pt x="591" y="312" on="1"/>
        <pt x="846" y="312" on="1"/>
        <pt x="833" y="358" on="0"/>
        <pt x="764" y="417" on="0"/>
      </contour>
      <contour>
        <pt x="308" y="109" on="1"/>
        <pt x="368" y="109" on="0"/>
        <pt x="452" y="197" on="0"/>
        <pt x="452" y="260" on="1"/>
        <pt x="452" y="324" on="0"/>
        <pt x="368" y="412" on="0"/>
        <pt x="308" y="412" on="1"/>
        <pt x="248" y="412" on="0"/>
        <pt x="164" y="324" on="0"/>
        <pt x="164" y="260" on="1"/>
        <pt x="164" y="197" on="0"/>
        <pt x="248" y="109" on="0"/>
      </contour>
    </TTGlyph>
    <TTGlyph name="ogonek" xMin="157" yMin="-221" xMax="346" yMax="20">
      <contour>
        <pt x="327" y="0" on="1"/>
        <pt x="281" y="-28" on="0"/>
        <pt x="237" y="-79" on="0"/>
        <pt x="237" y="-105" on="1"/>
        <pt x="237" y="-126" on="0"/>
        <pt x="264" y="-149" on="0"/>
        <pt x="287" y="-149" on="1"/>
        <pt x="297" y="-149" on="0"/>
        <pt x="319" y="-143" on="0"/>
        <pt x="327" y="-137" on="1"/>
        <pt x="346" y="-199" on="1"/>
        <pt x="329" y="-209" on="0"/>
        <pt x="285" y="-221" on="0"/>
        <pt x="263" y="-221" on="1"/>
        <pt x="215" y="-221" on="0"/>
        <pt x="157" y="-170" on="0"/>
        <pt x="157" y="-129" on="1"/>
        <pt x="157" y="-87" on="0"/>
        <pt x="217" y="-16" on="0"/>
        <pt x="283" y="20" on="1"/>
      </contour>
    </TTGlyph>
    <TTGlyph name="ograve" xMin="30" yMin="-10" xMax="586" yMax="738">
      <component glyphName="o" x="0" y="0" flags="0x204"/>
      <component glyphName="grave" x="8" y="0" flags="0x4"/>
    </TTGlyph>
    <TTGlyph name="ohungarumlaut" xMin="30" yMin="-10" xMax="591" yMax="737">
      <component glyphName="o" x="0" y="0" flags="0x204"/>
      <component glyphName="hungarumlaut" x="59" y="0" flags="0x4"/>
    </TTGlyph>
    <TTGlyph name="omacron" xMin="30" yMin="-10" xMax="586" yMax="713">
      <component glyphName="o" x="0" y="0" flags="0x204"/>
      <component glyphName="macron" x="50" y="0" flags="0x4"/>
    </TTGlyph>
    <TTGlyph name="one" xMin="21" yMin="0" xMax="295" yMax="700">
      <contour>
        <pt x="295" y="700" on="1"/>
        <pt x="295" y="0" on="1"/>
        <pt x="158" y="0" on="1"/>
        <pt x="158" y="561" on="1"/>
        <pt x="21" y="505" on="1"/>
        <pt x="21" y="624" on="1"/>
        <pt x="208" y="700" on="1"/>
      </contour>
    </TTGlyph>
    <TTGlyph name="onehalf" xMin="16" yMin="0" xMax="674" yMax="700">
      <component glyphName="onesuperior" x="0" y="0" flags="0x4"/>
      <component glyphName="fraction" x="35" y="0" flags="0x4"/>
      <component glyphName="uni2082" x="386" y="0" flags="0x4"/>
    </TTGlyph>
    <TTGlyph name="onequarter" xMin="16" yMin="0" xMax="655" yMax="700">
      <component glyphName="uni2084" x="309" y="0" flags="0x4"/>
      <component glyphName="onesuperior" x="0" y="0" flags="0x4"/>
      <component glyphName="fraction" x="35" y="0" flags="0x4"/>
    </TTGlyph>
    <TTGlyph name="onesuperior" xMin="16" yMin="350" xMax="174" yMax="700">
      <component glyphName="uni2081" x="0" y="350" flags="0x4"/>
    </TTGlyph>
    <TTGlyph name="ordfeminine" xMin="29" yMin="301" xMax="391" yMax="708">
      <contour>
        <pt x="172" y="301" on="1"/>
        <pt x="109" y="301" on="0"/>
        <pt x="29" y="368" on="0"/>
        <pt x="29" y="422" on="1"/>
        <pt x="29" y="477" on="0"/>
        <pt x="114" y="540" on="0"/>
        <pt x="190" y="540" on="1"/>
        <pt x="214" y="540" on="0"/>
        <pt x="262" y="533" on="0"/>
        <pt x="284" y="526" on="1"/>
        <pt x="284" y="551" on="1"/>
        <pt x="284" y="584" on="0"/>
        <pt x="243" y="617" on="0"/>
        <pt x="203" y="617" on="1"/>
        <pt x="180" y="617" on="0"/>
        <pt x="122" y="601" on="0"/>
        <pt x="84" y="585" on="1"/>
        <pt x="45" y="665" on="1"/>
        <pt x="92" y="687" on="0"/>
        <pt x="179" y="708" on="0"/>
        <pt x="222" y="708" on="1"/>
        <pt x="302" y="708" on="0"/>
        <pt x="391" y="630" on="0"/>
        <pt x="391" y="561" on="1"/>
        <pt x="391" y="307" on="1"/>
        <pt x="284" y="307" on="1"/>
        <pt x="284" y="334" on="1"/>
        <pt x="259" y="317" on="0"/>
        <pt x="205" y="301" on="0"/>
      </contour>
      <contour>
        <pt x="132" y="424" on="1"/>
        <pt x="132" y="403" on="0"/>
        <pt x="170" y="378" on="0"/>
        <pt x="201" y="378" on="1"/>
        <pt x="225" y="378" on="0"/>
        <pt x="267" y="389" on="0"/>
        <pt x="284" y="401" on="1"/>
        <pt x="284" y="457" on="1"/>
        <pt x="265" y="463" on="0"/>
        <pt x="226" y="469" on="0"/>
        <pt x="204" y="469" on="1"/>
        <pt x="170" y="469" on="0"/>
        <pt x="132" y="445" on="0"/>
      </contour>
    </TTGlyph>
    <TTGlyph name="ordmasculine" xMin="29" yMin="300" xMax="450" yMax="708">
      <contour>
        <pt x="29" y="503" on="1"/>
        <pt x="29" y="546" on="0"/>
        <pt x="62" y="621" on="0"/>
        <pt x="118" y="676" on="0"/>
        <pt x="195" y="708" on="0"/>
        <pt x="239" y="708" on="1"/>
        <pt x="283" y="708" on="0"/>
        <pt x="361" y="676" on="0"/>
        <pt x="417" y="621" on="0"/>
        <pt x="450" y="546" on="0"/>
        <pt x="450" y="503" on="1"/>
        <pt x="450" y="461" on="0"/>
        <pt x="417" y="386" on="0"/>
        <pt x="361" y="332" on="0"/>
        <pt x="283" y="300" on="0"/>
        <pt x="239" y="300" on="1"/>
        <pt x="195" y="300" on="0"/>
        <pt x="118" y="332" on="0"/>
        <pt x="62" y="386" on="0"/>
        <pt x="29" y="461" on="0"/>
      </contour>
      <contour>
        <pt x="345" y="503" on="1"/>
        <pt x="345" y="549" on="0"/>
        <pt x="284" y="613" on="0"/>
        <pt x="239" y="613" on="1"/>
        <pt x="196" y="613" on="0"/>
        <pt x="135" y="549" on="0"/>
        <pt x="135" y="503" on="1"/>
        <pt x="135" y="457" on="0"/>
        <pt x="196" y="394" on="0"/>
        <pt x="239" y="394" on="1"/>
        <pt x="284" y="394" on="0"/>
        <pt x="345" y="457" on="0"/>
      </contour>
    </TTGlyph>
    <TTGlyph name="oslash" xMin="30" yMin="-10" xMax="586" yMax="531">
      <contour>
        <pt x="46" y="0" on="1"/>
        <pt x="106" y="73" on="1"/>
        <pt x="71" y="109" on="0"/>
        <pt x="30" y="205" on="0"/>
        <pt x="30" y="260" on="1"/>
        <pt x="30" y="317" on="0"/>
        <pt x="73" y="416" on="0"/>
        <pt x="148" y="489" on="0"/>
        <pt x="250" y="531" on="0"/>
        <pt x="308" y="531" on="1"/>
        <pt x="348" y="531" on="0"/>
        <pt x="422" y="511" on="0"/>
        <pt x="453" y="493" on="1"/>
        <pt x="476" y="521" on="1"/>
        <pt x="570" y="521" on="1"/>
        <pt x="510" y="448" on="1"/>
        <pt x="545" y="412" on="0"/>
        <pt x="586" y="315" on="0"/>
        <pt x="586" y="260" on="1"/>
        <pt x="586" y="203" on="0"/>
        <pt x="543" y="104" on="0"/>
        <pt x="468" y="32" on="0"/>
        <pt x="366" y="-10" on="0"/>
        <pt x="308" y="-10" on="1"/>
        <pt x="268" y="-10" on="0"/>
        <pt x="194" y="10" on="0"/>
        <pt x="163" y="29" on="1"/>
        <pt x="139" y="0" on="1"/>
      </contour>
      <contour>
        <pt x="164" y="260" on="1"/>
        <pt x="164" y="236" on="0"/>
        <pt x="177" y="192" on="0"/>
        <pt x="189" y="174" on="1"/>
        <pt x="373" y="396" on="1"/>
        <pt x="359" y="403" on="0"/>
        <pt x="326" y="412" on="0"/>
        <pt x="308" y="412" on="1"/>
        <pt x="248" y="412" on="0"/>
        <pt x="164" y="324" on="0"/>
      </contour>
      <contour>
        <pt x="308" y="109" on="1"/>
        <pt x="368" y="109" on="0"/>
        <pt x="452" y="197" on="0"/>
        <pt x="452" y="260" on="1"/>
        <pt x="452" y="285" on="0"/>
        <pt x="439" y="329" on="0"/>
        <pt x="427" y="348" on="1"/>
        <pt x="242" y="125" on="1"/>
        <pt x="257" y="118" on="0"/>
        <pt x="290" y="109" on="0"/>
      </contour>
    </TTGlyph>
    <TTGlyph name="otilde" xMin="30" yMin="-10" xMax="586" yMax="740">
      <component glyphName="o" x="0" y="0" flags="0x204"/>
      <component glyphName="tilde" x="51" y="0" flags="0x4"/>
    </TTGlyph>
    <TTGlyph name="p" xMin="54" yMin="-209" xMax="602" yMax="528">
      <contour>
        <pt x="54" y="-209" on="1"/>
        <pt x="54" y="521" on="1"/>
        <pt x="189" y="521" on="1"/>
        <pt x="189" y="478" on="1"/>
        <pt x="220" y="503" on="0"/>
        <pt x="296" y="528" on="0"/>
        <pt x="337" y="528" on="1"/>
        <pt x="392" y="528" on="0"/>
        <pt x="489" y="486" on="0"/>
        <pt x="561" y="414" on="0"/>
        <pt x="602" y="316" on="0"/>
        <pt x="602" y="260" on="1"/>
        <pt x="602" y="204" on="0"/>
        <pt x="560" y="106" on="0"/>
        <pt x="488" y="34" on="0"/>
        <pt x="389" y="-7" on="0"/>
        <pt x="333" y="-7" on="1"/>
        <pt x="295" y="-7" on="0"/>
        <pt x="222" y="14" on="0"/>
        <pt x="191" y="34" on="1"/>
        <pt x="191" y="-209" on="1"/>
      </contour>
      <contour>
        <pt x="315" y="411" on="1"/>
        <pt x="278" y="411" on="0"/>
        <pt x="214" y="386" on="0"/>
        <pt x="191" y="362" on="1"/>
        <pt x="191" y="157" on="1"/>
        <pt x="213" y="135" on="0"/>
        <pt x="278" y="109" on="0"/>
        <pt x="315" y="109" on="1"/>
        <pt x="379" y="109" on="0"/>
        <pt x="467" y="196" on="0"/>
        <pt x="467" y="260" on="1"/>
        <pt x="467" y="324" on="0"/>
        <pt x="378" y="411" on="0"/>
      </contour>
    </TTGlyph>
    <TTGlyph name="paragraph" xMin="27" yMin="0" xMax="635" yMax="700">
      <contour>
        <pt x="314" y="0" on="1"/>
        <pt x="314" y="253" on="1"/>
        <pt x="276" y="253" on="1"/>
        <pt x="222" y="253" on="0"/>
        <pt x="130" y="285" on="0"/>
        <pt x="64" y="343" on="0"/>
        <pt x="27" y="424" on="0"/>
        <pt x="27" y="473" on="1"/>
        <pt x="27" y="575" on="0"/>
        <pt x="164" y="700" on="0"/>
        <pt x="276" y="700" on="1"/>
        <pt x="635" y="700" on="1"/>
        <pt x="635" y="0" on="1"/>
        <pt x="522" y="0" on="1"/>
        <pt x="522" y="253" on="1"/>
        <pt x="426" y="253" on="1"/>
        <pt x="426" y="0" on="1"/>
      </contour>
      <contour>
        <pt x="522" y="361" on="1"/>
        <pt x="522" y="589" on="1"/>
        <pt x="426" y="589" on="1"/>
        <pt x="426" y="361" on="1"/>
      </contour>
      <contour>
        <pt x="271" y="361" on="1"/>
        <pt x="314" y="361" on="1"/>
        <pt x="314" y="589" on="1"/>
        <pt x="271" y="589" on="1"/>
        <pt x="217" y="589" on="0"/>
        <pt x="149" y="527" on="0"/>
        <pt x="149" y="476" on="1"/>
        <pt x="149" y="425" on="0"/>
        <pt x="217" y="361" on="0"/>
      </contour>
    </TTGlyph>
    <TTGlyph name="parenleft" xMin="53" yMin="-219" xMax="388" yMax="714">
      <contour>
        <pt x="53" y="247" on="1"/>
        <pt x="53" y="399" on="0"/>
        <pt x="187" y="641" on="0"/>
        <pt x="312" y="714" on="1"/>
        <pt x="388" y="628" on="1"/>
        <pt x="287" y="566" on="0"/>
        <pt x="180" y="370" on="0"/>
        <pt x="180" y="247" on="1"/>
        <pt x="180" y="125" on="0"/>
        <pt x="287" y="-71" on="0"/>
        <pt x="388" y="-133" on="1"/>
        <pt x="312" y="-219" on="1"/>
        <pt x="187" y="-146" on="0"/>
        <pt x="53" y="95" on="0"/>
      </contour>
    </TTGlyph>
    <TTGlyph name="parenright" xMin="24" yMin="-219" xMax="359" yMax="714">
      <contour>
        <pt x="359" y="248" on="1"/>
        <pt x="359" y="96" on="0"/>
        <pt x="225" y="-146" on="0"/>
        <pt x="100" y="-219" on="1"/>
        <pt x="24" y="-133" on="1"/>
        <pt x="125" y="-71" on="0"/>
        <pt x="232" y="125" on="0"/>
        <pt x="232" y="248" on="1"/>
        <pt x="232" y="370" on="0"/>
        <pt x="125" y="566" on="0"/>
        <pt x="24" y="628" on="1"/>
        <pt x="100" y="714" on="1"/>
        <pt x="225" y="641" on="0"/>
        <pt x="359" y="400" on="0"/>
      </contour>
    </TTGlyph>
    <TTGlyph name="percent" xMin="22" yMin="-5" xMax="771" yMax="706">
      <component glyphName="uni2070" x="0" y="0" flags="0x4"/>
      <component glyphName="fraction" x="125" y="0" flags="0x4"/>
      <component glyphName="uni2080" x="430" y="0" flags="0x4"/>
    </TTGlyph>
    <TTGlyph name="period" xMin="39" yMin="-10" xMax="202" yMax="153">
      <contour>
        <pt x="120" y="153" on="1"/>
        <pt x="154" y="153" on="0"/>
        <pt x="202" y="105" on="0"/>
        <pt x="202" y="71" on="1"/>
        <pt x="202" y="38" on="0"/>
        <pt x="154" y="-10" on="0"/>
        <pt x="120" y="-10" on="1"/>
        <pt x="87" y="-10" on="0"/>
        <pt x="39" y="38" on="0"/>
        <pt x="39" y="71" on="1"/>
        <pt x="39" y="105" on="0"/>
        <pt x="87" y="153" on="0"/>
      </contour>
    </TTGlyph>
    <TTGlyph name="periodcentered" xMin="39" yMin="204" xMax="202" yMax="367">
      <component glyphName="period" x="0" y="214" flags="0x4"/>
    </TTGlyph>
    <TTGlyph name="periodcentered.cap" xMin="39" yMin="269" xMax="202" yMax="432">
      <component glyphName="periodcentered" x="0" y="65" flags="0x4"/>
    </TTGlyph>
    <TTGlyph name="perthousand" xMin="22" yMin="-5" xMax="1126" yMax="706">
      <component glyphName="uni2070" x="0" y="0" flags="0x4"/>
      <component glyphName="fraction" x="125" y="0" flags="0x4"/>
      <component glyphName="uni2080" x="430" y="0" flags="0x4"/>
      <component glyphName="uni2080" x="785" y="0" flags="0x4"/>
    </TTGlyph>
    <TTGlyph name="plus" xMin="46" yMin="129" xMax="504" yMax="584">
      <contour>
        <pt x="329" y="129" on="1"/>
        <pt x="222" y="129" on="1"/>
        <pt x="222" y="306" on="1"/>
        <pt x="46" y="306" on="1"/>
        <pt x="46" y="412" on="1"/>
        <pt x="222" y="412" on="1"/>
        <pt x="222" y="584" on="1"/>
        <pt x="329" y="584" on="1"/>
        <pt x="329" y="412" on="1"/>
        <pt x="504" y="412" on="1"/>
        <pt x="504" y="306" on="1"/>
        <pt x="329" y="306" on="1"/>
      </contour>
    </TTGlyph>
    <TTGlyph name="plusminus" xMin="46" yMin="-1" xMax="504" yMax="616">
      <contour>
        <pt x="329" y="199" on="1"/>
        <pt x="222" y="199" on="1"/>
        <pt x="222" y="356" on="1"/>
        <pt x="46" y="356" on="1"/>
        <pt x="46" y="462" on="1"/>
        <pt x="222" y="462" on="1"/>
        <pt x="222" y="616" on="1"/>
        <pt x="329" y="616" on="1"/>
        <pt x="329" y="462" on="1"/>
        <pt x="504" y="462" on="1"/>
        <pt x="504" y="356" on="1"/>
        <pt x="329" y="356" on="1"/>
      </contour>
      <contour>
        <pt x="504" y="105" on="1"/>
        <pt x="504" y="-1" on="1"/>
        <pt x="46" y="-1" on="1"/>
        <pt x="46" y="105" on="1"/>
      </contour>
    </TTGlyph>
    <TTGlyph name="q" xMin="30" yMin="-209" xMax="578" yMax="528">
      <contour>
        <pt x="295" y="-7" on="1"/>
        <pt x="240" y="-7" on="0"/>
        <pt x="143" y="35" on="0"/>
        <pt x="71" y="107" on="0"/>
        <pt x="30" y="205" on="0"/>
        <pt x="30" y="261" on="1"/>
        <pt x="30" y="317" on="0"/>
        <pt x="72" y="415" on="0"/>
        <pt x="144" y="487" on="0"/>
        <pt x="243" y="528" on="0"/>
        <pt x="299" y="528" on="1"/>
        <pt x="338" y="528" on="0"/>
        <pt x="412" y="507" on="0"/>
        <pt x="443" y="486" on="1"/>
        <pt x="443" y="521" on="1"/>
        <pt x="578" y="521" on="1"/>
        <pt x="578" y="-209" on="1"/>
        <pt x="441" y="-209" on="1"/>
        <pt x="441" y="41" on="1"/>
        <pt x="410" y="18" on="0"/>
        <pt x="335" y="-7" on="0"/>
      </contour>
      <contour>
        <pt x="165" y="261" on="1"/>
        <pt x="165" y="198" on="0"/>
        <pt x="253" y="110" on="0"/>
        <pt x="317" y="110" on="1"/>
        <pt x="355" y="110" on="0"/>
        <pt x="418" y="136" on="0"/>
        <pt x="441" y="160" on="1"/>
        <pt x="441" y="363" on="1"/>
        <pt x="419" y="386" on="0"/>
        <pt x="354" y="412" on="0"/>
        <pt x="317" y="412" on="1"/>
        <pt x="252" y="412" on="0"/>
        <pt x="165" y="325" on="0"/>
      </contour>
    </TTGlyph>
    <TTGlyph name="question" xMin="8" yMin="-10" xMax="500" yMax="710">
      <contour>
        <pt x="376" y="344" on="1"/>
        <pt x="349" y="325" on="1"/>
        <pt x="318" y="303" on="0"/>
        <pt x="293" y="252" on="0"/>
        <pt x="294" y="212" on="1"/>
        <pt x="179" y="212" on="1"/>
        <pt x="175" y="281" on="0"/>
        <pt x="209" y="361" on="0"/>
        <pt x="256" y="396" on="1"/>
        <pt x="307" y="433" on="1"/>
        <pt x="338" y="455" on="0"/>
        <pt x="366" y="494" on="0"/>
        <pt x="366" y="516" on="1"/>
        <pt x="366" y="550" on="0"/>
        <pt x="305" y="595" on="0"/>
        <pt x="259" y="595" on="1"/>
        <pt x="213" y="595" on="0"/>
        <pt x="138" y="550" on="0"/>
        <pt x="118" y="510" on="1"/>
        <pt x="8" y="556" on="1"/>
        <pt x="41" y="627" on="0"/>
        <pt x="178" y="710" on="0"/>
        <pt x="264" y="710" on="1"/>
        <pt x="314" y="710" on="0"/>
        <pt x="401" y="682" on="0"/>
        <pt x="464" y="632" on="0"/>
        <pt x="500" y="564" on="0"/>
        <pt x="500" y="524" on="1"/>
        <pt x="500" y="470" on="0"/>
        <pt x="445" y="392" on="0"/>
      </contour>
      <contour>
        <pt x="237" y="153" on="1"/>
        <pt x="271" y="153" on="0"/>
        <pt x="318" y="105" on="0"/>
        <pt x="318" y="71" on="1"/>
        <pt x="318" y="38" on="0"/>
        <pt x="271" y="-10" on="0"/>
        <pt x="237" y="-10" on="1"/>
        <pt x="204" y="-10" on="0"/>
        <pt x="156" y="38" on="0"/>
        <pt x="156" y="71" on="1"/>
        <pt x="156" y="105" on="0"/>
        <pt x="204" y="153" on="0"/>
      </contour>
    </TTGlyph>
    <TTGlyph name="questiondown" xMin="15" yMin="-9" xMax="507" yMax="711">
      <contour>
        <pt x="139" y="357" on="1"/>
        <pt x="166" y="376" on="1"/>
        <pt x="197" y="398" on="0"/>
        <pt x="222" y="449" on="0"/>
        <pt x="221" y="489" on="1"/>
        <pt x="336" y="489" on="1"/>
        <pt x="340" y="420" on="0"/>
        <pt x="306" y="340" on="0"/>
        <pt x="259" y="305" on="1"/>
        <pt x="208" y="268" on="1"/>
        <pt x="177" y="246" on="0"/>
        <pt x="149" y="207" on="0"/>
        <pt x="149" y="185" on="1"/>
        <pt x="149" y="151" on="0"/>
        <pt x="210" y="106" on="0"/>
        <pt x="256" y="106" on="1"/>
        <pt x="302" y="106" on="0"/>
        <pt x="377" y="151" on="0"/>
        <pt x="397" y="191" on="1"/>
        <pt x="507" y="145" on="1"/>
        <pt x="474" y="74" on="0"/>
        <pt x="337" y="-9" on="0"/>
        <pt x="251" y="-9" on="1"/>
        <pt x="201" y="-9" on="0"/>
        <pt x="114" y="19" on="0"/>
        <pt x="51" y="69" on="0"/>
        <pt x="15" y="137" on="0"/>
        <pt x="15" y="177" on="1"/>
        <pt x="15" y="231" on="0"/>
        <pt x="70" y="309" on="0"/>
      </contour>
      <contour>
        <pt x="278" y="548" on="1"/>
        <pt x="244" y="548" on="0"/>
        <pt x="197" y="596" on="0"/>
        <pt x="197" y="630" on="1"/>
        <pt x="197" y="663" on="0"/>
        <pt x="244" y="711" on="0"/>
        <pt x="278" y="711" on="1"/>
        <pt x="311" y="711" on="0"/>
        <pt x="359" y="663" on="0"/>
        <pt x="359" y="630" on="1"/>
        <pt x="359" y="596" on="0"/>
        <pt x="311" y="548" on="0"/>
      </contour>
    </TTGlyph>
    <TTGlyph name="quotedbl" xMin="59" yMin="425" xMax="377" yMax="705">
      <component glyphName="quotesingle" x="0" y="0" flags="0x4"/>
      <component glyphName="quotesingle" x="185" y="0" flags="0x4"/>
    </TTGlyph>
    <TTGlyph name="quotedblbase" xMin="-2" yMin="-151" xMax="401" yMax="112">
      <component glyphName="comma" x="192" y="0" flags="0x4"/>
      <component glyphName="comma" x="0" y="0" flags="0x4"/>
    </TTGlyph>
    <TTGlyph name="quotedblleft" xMin="15" yMin="478" xMax="417" yMax="741">
      <contour>
        <pt x="157" y="478" on="1"/>
        <pt x="15" y="478" on="1"/>
        <pt x="123" y="741" on="1"/>
        <pt x="226" y="741" on="1"/>
      </contour>
      <contour>
        <pt x="348" y="478" on="1"/>
        <pt x="206" y="478" on="1"/>
        <pt x="314" y="741" on="1"/>
        <pt x="417" y="741" on="1"/>
      </contour>
    </TTGlyph>
    <TTGlyph name="quotedblright" xMin="27" yMin="478" xMax="430" yMax="741">
      <component glyphName="comma" x="221" y="629" flags="0x4"/>
      <component glyphName="comma" x="29" y="629" flags="0x4"/>
    </TTGlyph>
    <TTGlyph name="quoteleft" xMin="15" yMin="478" xMax="226" yMax="741">
      <contour>
        <pt x="157" y="478" on="1"/>
        <pt x="15" y="478" on="1"/>
        <pt x="123" y="741" on="1"/>
        <pt x="226" y="741" on="1"/>
      </contour>
    </TTGlyph>
    <TTGlyph name="quoteright" xMin="27" yMin="478" xMax="238" yMax="741">
      <component glyphName="comma" x="29" y="629" flags="0x4"/>
    </TTGlyph>
    <TTGlyph name="quotesinglbase" xMin="-2" yMin="-151" xMax="209" yMax="112">
      <component glyphName="comma" x="0" y="0" flags="0x204"/>
    </TTGlyph>
    <TTGlyph name="quotesingle" xMin="59" yMin="425" xMax="192" yMax="705">
      <contour>
        <pt x="76" y="425" on="1"/>
        <pt x="59" y="705" on="1"/>
        <pt x="192" y="705" on="1"/>
        <pt x="176" y="425" on="1"/>
      </contour>
    </TTGlyph>
    <TTGlyph name="r" xMin="54" yMin="0" xMax="387" yMax="533">
      <contour>
        <pt x="54" y="0" on="1"/>
        <pt x="54" y="521" on="1"/>
        <pt x="191" y="521" on="1"/>
        <pt x="191" y="464" on="1"/>
        <pt x="216" y="498" on="0"/>
        <pt x="287" y="533" on="0"/>
        <pt x="330" y="533" on="1"/>
        <pt x="350" y="532" on="0"/>
        <pt x="377" y="527" on="0"/>
        <pt x="387" y="521" on="1"/>
        <pt x="387" y="401" on="1"/>
        <pt x="372" y="408" on="0"/>
        <pt x="336" y="415" on="0"/>
        <pt x="317" y="415" on="1"/>
        <pt x="277" y="415" on="0"/>
        <pt x="210" y="375" on="0"/>
        <pt x="191" y="337" on="1"/>
        <pt x="191" y="0" on="1"/>
      </contour>
    </TTGlyph>
</ttFont>
